<svg width="171" height="284" viewBox="0 0 171 284" fill="none" xmlns="http://www.w3.org/2000/svg">
<path d="M78.8986 155.762L85.9989 157.452L116.114 140.548C122.727 142.743 149.828 151.846 155.773 154.25C155.773 154.25 145.238 246.149 144.009 254.69C142.78 263.231 142.493 297.404 142.493 297.404H30.3916C30.3916 297.404 30.6883 205.296 30.3916 191.016C29.9782 172.534 27.6571 154.25 27.6571 154.25L47.201 146.723L71.3086 134.752L78.8986 155.762Z" fill="#0B7F9D"/>
<g opacity="0.3">
<path opacity="0.3" d="M97.1201 162.624C106.263 196.131 115.901 229.51 126.033 262.76C127.231 266.68 128.407 270.977 126.796 274.751C125.999 276.405 124.786 277.831 123.272 278.892C121.758 279.953 119.994 280.615 118.148 280.814C114.438 281.162 110.714 280.33 107.517 278.441C99.9393 274.259 95.0216 266.409 92.6051 258.192C90.1886 249.975 89.966 241.309 89.7753 232.758L88.1855 164.317L97.1201 162.624Z" fill="black"/>
</g>
<path d="M155.773 154.25C155.773 154.25 172.211 161.432 170.929 190.242C170.312 202.814 169.017 215.345 167.05 227.782L120.829 214.673L132.583 164.641L155.773 154.25Z" fill="#0B7F9D"/>
<path d="M46.1614 200.613L48.6309 233.866L2.16644 219.022C2.16644 219.022 12.1292 160.334 27.9105 154.208L44.9213 182.883L46.1614 200.613Z" fill="#0B7F9D"/>
<path d="M40.8719 191.016C40.8282 191.237 40.7999 191.461 40.7871 191.685C40.7871 192.187 40.7023 192.835 40.6493 193.64C40.554 195.396 40.4162 197.822 40.2466 200.79C39.9498 206.843 39.6213 215.196 39.3139 224.426C39.0066 233.657 38.7522 241.957 38.5508 248.073C38.4554 251.042 38.3812 253.477 38.3282 255.234C38.3282 256.039 38.3282 256.687 38.3282 257.189C38.3124 257.415 38.3124 257.642 38.3282 257.868C38.3869 257.646 38.4189 257.418 38.4236 257.189C38.4236 256.687 38.4978 256.039 38.5614 255.244C38.6568 253.488 38.7946 251.063 38.9642 248.083C39.2609 242.041 39.5895 233.678 39.8862 224.447C40.183 215.217 40.4586 206.916 40.66 200.811C40.7553 197.832 40.8295 195.407 40.8825 193.64C40.8825 192.846 40.8825 192.197 40.8825 191.696C40.9068 191.47 40.9033 191.241 40.8719 191.016V191.016Z" fill="#263238"/>
<path d="M132.784 177.039C133.02 176.711 133.223 176.361 133.389 175.994C133.791 175.189 134.3 174.206 134.883 173.036C136.468 169.775 138.412 166.697 140.68 163.857C142.975 161.051 145.924 158.834 149.276 157.397C150.695 156.874 152.155 156.468 153.643 156.184C153.235 156.127 152.821 156.127 152.413 156.184C151.294 156.33 150.196 156.6 149.138 156.989C145.659 158.361 142.597 160.593 140.246 163.47C137.946 166.356 136.027 169.517 134.533 172.879C133.94 174.154 133.473 175.189 133.198 175.91C133.006 176.265 132.867 176.646 132.784 177.039V177.039Z" fill="#263238"/>
<path d="M35.4458 152.85C36.5792 155.353 37.5561 157.922 38.3711 160.544C39.0013 163.217 39.4614 165.926 39.7489 168.656C39.8976 167.852 39.9262 167.032 39.8337 166.22C39.7331 164.255 39.4204 162.307 38.901 160.408C38.3975 158.508 37.6867 156.668 36.7813 154.919C36.4357 154.172 35.9862 153.475 35.4458 152.85V152.85Z" fill="#263238"/>
<path d="M71.3073 134.752L71.8839 127.143C71.8839 127.143 53.8662 122.157 55.8588 104.041C56.8127 95.2909 60.2678 77.4254 63.5746 61.3056C65.2922 52.9406 70.1399 45.52 77.153 40.5204C84.1661 35.5208 92.8306 33.3088 101.422 34.3245L103.192 34.5335C122.143 37.8997 129.837 55.6502 125.905 74.2579L115.232 147.016C114.348 152.889 107.466 152.687 102.646 156.245C97.8271 159.802 91.4697 158.272 85.5079 157.452C82.0801 156.486 80.856 156.245 78.8973 155.762C76.6937 150.207 76.4489 149.724 74.2453 142.963L71.3073 134.752Z" fill="#FFBE9D"/>
<path d="M71.8623 127.071C80.3146 128.235 88.9271 126.889 96.5996 123.203C96.5996 123.203 89.665 135.66 71.5519 131.854L71.8623 127.071Z" fill="#EB996E"/>
<path d="M69.2249 72.2402C69.1173 72.9228 69.2859 73.6197 69.6943 74.1809C70.1026 74.7421 70.7181 75.1226 71.4082 75.2405C71.7448 75.3018 72.0904 75.2962 72.4247 75.2237C72.759 75.1513 73.0753 75.0136 73.3548 74.8188C73.6343 74.6239 73.8715 74.3759 74.0523 74.0892C74.2331 73.8026 74.3539 73.4831 74.4076 73.1497C74.5154 72.4659 74.3471 71.7677 73.9389 71.2049C73.5308 70.642 72.9152 70.2594 72.2243 70.139C71.887 70.0777 71.5406 70.0838 71.2057 70.1569C70.8707 70.2299 70.5541 70.3685 70.2744 70.5645C69.9947 70.7604 69.7578 71.0096 69.5775 71.2975C69.3972 71.5853 69.2773 71.9059 69.2249 72.2402V72.2402Z" fill="#263238"/>
<path d="M66.4481 71.7698C66.7342 72.1357 68.8858 70.923 71.7474 71.268C74.609 71.613 76.4638 73.2438 76.8135 72.9406C76.9831 72.8047 76.7288 72.1566 75.9021 71.4039C74.7845 70.4278 73.3895 69.8146 71.9064 69.6477C70.4415 69.4752 68.9587 69.7603 67.6669 70.4631C66.6706 71.0171 66.2997 71.5921 66.4481 71.7698Z" fill="#263238"/>
<path d="M96.0501 74.467C95.9387 75.1562 96.1046 75.861 96.5125 76.4312C96.9203 77.0014 97.5379 77.3919 98.2335 77.5195C98.5751 77.579 98.9254 77.5701 99.2635 77.4933C99.6016 77.4165 99.9206 77.2733 100.201 77.0724C100.482 76.8715 100.719 76.6168 100.898 76.3237C101.077 76.0305 101.195 75.7048 101.243 75.366C101.358 74.6768 101.195 73.9707 100.789 73.3984C100.383 72.8261 99.7665 72.433 99.0707 72.3031C98.7278 72.2451 98.3766 72.2554 98.0378 72.3334C97.699 72.4113 97.3795 72.5554 97.098 72.757C96.8165 72.9587 96.5788 73.2139 96.3988 73.5075C96.2188 73.8012 96.1003 74.1275 96.0501 74.467Z" fill="#263238"/>
<path d="M93.5067 73.934C93.7929 74.3103 95.955 73.0977 98.806 73.4323C101.657 73.7668 103.522 75.408 103.872 75.1048C104.042 74.9794 103.787 74.3313 102.961 73.5786C101.846 72.5984 100.449 71.9846 98.965 71.8224C97.4999 71.6448 96.0156 71.9303 94.7255 72.6378C93.7399 73.1918 93.3583 73.7668 93.5067 73.934Z" fill="#263238"/>
<path d="M81.3495 93.7649C81.3495 93.6081 79.6643 93.1063 76.8663 92.4059C76.1562 92.2491 75.4991 92.0296 75.4355 91.5278C75.4642 90.7909 75.7192 90.08 76.1668 89.4893L78.9012 84.3356C82.8015 77.018 85.7056 70.913 85.4088 70.7457C85.1121 70.5784 81.7099 76.4221 77.8096 83.7711L75.1069 88.998C74.5526 89.8048 74.3014 90.7772 74.3968 91.7473C74.473 92.0085 74.6078 92.2493 74.7913 92.452C74.9748 92.6547 75.2022 92.814 75.4567 92.9181C75.8401 93.0743 76.2429 93.1797 76.6543 93.2317C79.5478 93.7021 81.3177 93.9217 81.3495 93.7649Z" fill="#263238"/>
<path d="M80.5412 105.08C80.1935 105.379 79.1243 104.697 75.7538 104.036C74.0684 103.706 73.3277 103.631 72.5546 103.673C72.9848 103.038 72.9201 103.271 73.4571 103.165C74.9386 103.315 74.7025 103.251 75.4109 103.443C76.4002 103.71 77.6008 103.784 79.4899 104.295C79.9621 104.422 80.7156 104.96 80.5412 105.08Z" fill="#263238"/>
<path d="M94.9263 61.2118C95.1065 62.0063 97.9681 61.9854 101.222 62.7694C104.476 63.5535 107.051 64.7556 107.581 64.1284C107.814 63.8253 107.443 63.083 106.447 62.2049C105.118 61.1376 103.559 60.3832 101.89 59.9992C100.22 59.6152 98.4839 59.6116 96.8129 59.9887C95.5305 60.3232 94.7991 60.8459 94.9263 61.2118Z" fill="#263238"/>
<path d="M68.4619 62.6334C68.8858 63.3234 70.8996 62.9052 73.2419 63.1457C75.5842 63.3861 77.4813 64.0865 78.0324 63.4802C78.2762 63.177 78.0325 62.508 77.2482 61.8076C76.1748 60.9534 74.8686 60.4329 73.4949 60.3119C72.1213 60.1909 70.7421 60.475 69.5323 61.1281C68.6315 61.6821 68.3029 62.2989 68.4619 62.6334Z" fill="#263238"/>
<path d="M122.778 87.4088C123.107 87.3147 135.825 85.2239 133.928 97.5489C132.031 109.874 119.864 105.442 119.906 105.076C119.949 104.71 122.778 87.4088 122.778 87.4088Z" fill="#FFBE9D"/>
<path d="M124.474 100.988C124.527 100.988 124.665 101.166 125.004 101.396C125.49 101.688 126.07 101.785 126.626 101.668C128.025 101.386 129.456 99.4935 129.859 97.2773C130.045 96.2345 129.998 95.1641 129.721 94.1412C129.664 93.7391 129.509 93.3567 129.269 93.027C129.029 92.6973 128.711 92.4303 128.343 92.249C128.102 92.1463 127.833 92.1297 127.581 92.2023C127.33 92.2748 127.112 92.4319 126.965 92.6462C126.743 92.9703 126.785 93.2212 126.721 93.2317C126.658 93.2421 126.478 92.9912 126.658 92.4894C126.78 92.1991 126.996 91.9567 127.272 91.7995C127.655 91.5945 128.104 91.5457 128.523 91.6636C129.022 91.841 129.466 92.1418 129.813 92.5372C130.16 92.9326 130.398 93.4093 130.505 93.9216C130.87 95.0675 130.946 96.2839 130.728 97.4654C130.261 99.9325 128.608 102.065 126.732 102.306C126.382 102.354 126.024 102.323 125.688 102.215C125.352 102.106 125.045 101.922 124.792 101.678C124.421 101.292 124.39 100.999 124.474 100.988Z" fill="#EB996E"/>
<path d="M94.1626 88.6004C94.2317 88.6244 94.3067 88.627 94.3774 88.6079C94.4481 88.5888 94.5112 88.5489 94.5583 88.4935C94.6055 88.438 94.6343 88.3698 94.6411 88.2978C94.6478 88.2258 94.6321 88.1535 94.5961 88.0905C94.56 88.0275 94.5054 87.9768 94.4395 87.9453C94.3735 87.9137 94.2993 87.9028 94.2269 87.9139C94.1544 87.925 94.0871 87.9576 94.034 88.0075C93.9808 88.0573 93.9444 88.1219 93.9294 88.1927C93.9065 88.2772 93.9181 88.3672 93.9617 88.4434C94.0053 88.5197 94.0774 88.576 94.1626 88.6004Z" fill="#EB996E"/>
<path d="M128.969 298L118.434 297.048L108.376 273.35C109.997 273.078 143.934 268.123 145.937 268.677L154.066 297.195C154.066 297.195 129.69 298 128.969 298Z" fill="#FFBE9D"/>
<path d="M122.451 271.521C122.451 271.521 145.546 261.391 146.987 262.855C148.429 264.318 150.654 269.022 150.654 269.022L122.451 271.521Z" fill="#FFBE9D"/>
<path d="M113.94 152.421C113.94 152.421 114.004 152.222 114.11 151.835C114.216 151.449 114.364 150.842 114.544 150.1C114.926 148.553 115.477 146.326 116.166 143.472C117.554 137.702 119.526 129.454 121.932 119.429V119.366V119.303C120.734 116.083 119.473 112.665 118.148 109.079L116.102 103.581C115.818 102.56 115.227 101.649 114.407 100.967C113.539 100.288 112.462 99.9189 111.354 99.9219L108.599 99.4306L108.779 99.5561C108.272 98.7212 107.584 98.0072 106.765 97.4653C105.91 96.8866 104.907 96.5569 103.872 96.514C102.8 96.4387 101.739 96.7675 100.904 97.4339C100.461 97.7591 100.098 98.1793 99.8424 98.6627C99.5873 99.1461 99.4465 99.6803 99.4307 100.225L99.7593 99.9428L97.7773 99.5561C97.4292 99.4702 97.0748 99.4108 96.7175 99.3783C96.3397 99.3575 95.9614 99.4108 95.6046 99.5351C95.2575 99.6641 94.9377 99.8556 94.6613 100.1L93.8558 100.748C93.3259 101.187 92.796 101.636 92.2766 102.096C91.2265 103.017 90.232 103.998 89.2984 105.034C88.2801 106.073 87.509 107.323 87.0409 108.693C86.9195 109.127 86.9195 109.586 87.0409 110.02C87.2223 110.418 87.4858 110.774 87.8146 111.066C88.1324 111.364 88.5092 111.594 88.9214 111.741C89.3336 111.889 89.7723 111.951 90.2099 111.923C91.8582 111.749 93.414 111.085 94.672 110.02L94.2586 109.968C95.7848 112.257 97.2792 114.526 98.7524 116.752L99.1022 116.366L94.6189 114.108C93.1033 113.543 91.6089 112.979 90.1039 112.508C89.3517 112.254 88.5834 112.048 87.804 111.891C87.5829 111.857 87.3575 111.857 87.1363 111.891C86.8879 111.968 86.6767 112.131 86.5428 112.351C86.319 112.678 86.1341 113.029 85.9917 113.397C85.0374 116.189 84.3283 119.057 83.8719 121.969V122.084L83.9567 122.178C85.8009 124.101 87.5673 125.955 89.256 127.739L89.4256 127.907L89.5952 127.739L92.4886 124.802L92.1177 124.593C90.0827 131.618 88.3022 137.712 86.8184 142.741V142.793C87.2953 147.947 87.6663 152.024 87.8782 154.836L88.1962 158.034C88.1962 158.369 88.2598 158.641 88.281 158.85C88.2836 158.943 88.3015 159.034 88.334 159.122C88.334 159.122 88.334 159.028 88.334 158.85C88.334 158.672 88.334 158.369 88.334 158.024C88.281 157.271 88.2068 156.205 88.1008 154.825C87.8782 152.003 87.5603 147.926 87.1469 142.772V142.824C88.6413 137.806 90.4431 131.722 92.531 124.708L92.7854 123.872L92.1601 124.499L89.2455 127.415H89.5846L84.2853 121.833L84.3489 122.042C84.8107 119.165 85.5198 116.333 86.4686 113.575C86.5968 113.241 86.7602 112.923 86.9561 112.623C87.0235 112.51 87.123 112.42 87.2423 112.362C87.4008 112.345 87.5607 112.345 87.7192 112.362C88.4712 112.526 89.2141 112.729 89.945 112.968C91.4394 113.439 92.9232 114.014 94.4282 114.568L98.9114 116.826L99.8123 117.286L99.2612 116.449L94.7779 109.654L94.6189 109.414L94.3752 109.602C93.2002 110.576 91.7646 111.193 90.2417 111.379C89.696 111.408 89.1541 111.274 88.687 110.994C88.2199 110.715 87.8494 110.302 87.6239 109.811C87.5183 109.471 87.5183 109.107 87.6239 108.766C88.0702 107.485 88.7934 106.315 89.7436 105.337C90.659 104.298 91.6395 103.317 92.6794 102.399C93.1881 101.95 93.7393 101.5 94.2374 101.072C94.7081 100.623 95.2439 100.246 95.8272 99.9533C96.4292 99.7556 97.0799 99.7556 97.682 99.9533L99.6639 100.34L99.9925 100.413V100.068C100.013 99.6088 100.137 99.1598 100.358 98.7544C100.578 98.349 100.888 97.9977 101.264 97.7266C101.997 97.14 102.93 96.852 103.872 96.9217C104.795 96.9814 105.689 97.2693 106.471 97.7588C107.252 98.2484 107.897 98.9239 108.344 99.7233L108.408 99.8383H108.524L111.291 100.33C112.285 100.332 113.249 100.667 114.025 101.281C114.774 101.907 115.313 102.741 115.572 103.675C116.279 105.55 116.964 107.382 117.629 109.174C118.978 112.749 120.254 116.15 121.455 119.376V119.261C119.123 129.328 117.215 137.587 115.88 143.368L114.375 150.027C114.205 150.769 114.078 151.344 113.993 151.773C113.964 151.988 113.946 152.204 113.94 152.421V152.421Z" fill="#EB996E"/>
<path d="M134.904 212.938C134.991 213.354 135.122 213.761 135.296 214.15L136.515 217.391C137.575 220.13 138.995 223.914 140.511 228.106C142.027 232.298 143.33 236.134 144.263 238.905C144.708 240.211 145.09 241.309 145.386 242.187C145.504 242.596 145.664 242.992 145.863 243.369C145.823 242.945 145.734 242.528 145.598 242.124C145.386 241.33 145.058 240.191 144.644 238.79C143.797 235.988 142.525 232.131 141.03 227.928C139.536 223.726 138.02 219.952 136.886 217.255C136.314 215.906 135.826 214.819 135.487 214.067C135.335 213.67 135.14 213.292 134.904 212.938V212.938Z" fill="#EB996E"/>
<path d="M99.4842 243.86C99.4655 243.96 99.4655 244.063 99.4842 244.163C99.4842 244.404 99.5584 244.696 99.6008 245.062C99.728 245.899 99.8976 247.049 100.11 248.523C100.322 249.997 100.618 251.857 101.053 253.969C101.517 256.375 102.183 258.739 103.045 261.036C104.095 263.841 105.682 266.421 107.719 268.636C110.069 271.152 112.784 273.311 115.774 275.044C119.098 276.944 122.662 278.403 126.373 279.382C128.339 279.912 130.366 280.19 132.404 280.208C134.506 280.217 136.593 279.863 138.572 279.163C142.455 277.701 145.859 275.221 148.418 271.991C150.795 269.023 152.716 265.726 154.12 262.207C155.498 258.872 156.325 255.537 157.3 252.505C158.275 249.474 159.144 246.63 159.949 244.038C161.592 238.863 162.843 234.629 163.627 231.723C164.019 230.249 164.305 229.11 164.486 228.336L164.687 227.448C164.703 227.347 164.703 227.245 164.687 227.145C164.638 227.237 164.603 227.335 164.581 227.437C164.517 227.657 164.433 227.949 164.337 228.305C164.104 229.11 163.786 230.239 163.373 231.661C162.536 234.577 161.253 238.769 159.536 243.923C158.709 246.515 157.798 249.338 156.823 252.38C155.848 255.422 155.01 258.725 153.643 262.018C152.248 265.486 150.345 268.733 147.994 271.657C145.496 274.805 142.177 277.222 138.392 278.65C136.472 279.336 134.446 279.69 132.404 279.696C130.412 279.683 128.431 279.412 126.511 278.891C122.857 277.933 119.347 276.506 116.071 274.646C113.12 272.948 110.436 270.835 108.101 268.374C106.091 266.207 104.512 263.685 103.448 260.942C102.579 258.667 101.892 256.329 101.392 253.948C100.936 251.857 100.629 250.017 100.332 248.533C100.035 247.049 99.8658 245.92 99.728 245.094L99.5478 244.195C99.5331 244.082 99.5119 243.97 99.4842 243.86Z" fill="#EB996E"/>
<path d="M81.8349 165.411C82.2514 164.865 82.9939 164.388 83.3039 163.731C84.0538 162.353 84.0079 162.911 85.117 160.833L85.0178 160.35C85.6583 163.622 86.1173 165.627 86.9765 170.01L87.2213 171.217L88.1772 170.493C90.9734 168.435 93.9414 165.555 97.1281 162.901C103.267 157.798 108.672 152.88 112.499 149.197C114.421 147.345 115.952 145.823 116.998 144.732C117.566 144.218 118.09 143.625 118.561 142.963C117.936 143.362 117.345 143.844 116.795 144.403L112.109 148.518C108.188 152.057 102.736 156.872 96.6282 161.954C93.504 164.608 90.3797 167.077 87.6304 169.279L88.1772 169.567L85.6933 158.086L85.5372 157.325L85.2091 157.983L82.6316 163.353C82.309 163.998 82.0418 164.688 81.8349 165.411Z" fill="#263238"/>
<path d="M113.939 152.421L137.829 219.492L164.686 227.124C164.686 227.124 154.945 267.768 145.004 275.075C141.623 277.553 136.101 280.239 130.441 279.852C119.705 279.11 107.665 271.646 103.076 261.213C99.0376 251.951 88.0998 156.132 88.0998 156.132L113.939 152.421Z" fill="#FFBE9D"/>
<path d="M88.4399 159.017L87.0408 142.678L90.8882 129.559L92.372 124.541L89.4679 127.478L84.1686 121.906C84.1686 121.906 85.8856 112.007 87.3482 112.007C89.1899 112.338 90.991 112.861 92.7217 113.564C93.7816 113.951 94.6189 114.265 94.6189 114.265L99.0385 116.533L94.5447 109.738C94.5447 109.738 89.9237 113.533 87.5602 110.24C85.7584 107.721 92.4886 102.076 94.9792 100.079C95.2679 99.8561 95.6022 99.6976 95.9591 99.6146C96.3159 99.5316 96.6867 99.526 97.046 99.5981L99.6638 100.11C99.744 99.1667 100.183 98.2879 100.892 97.65C101.602 97.0122 102.53 96.6625 103.49 96.6711C104.532 96.6843 105.552 96.97 106.446 97.4989C107.339 98.0278 108.075 98.781 108.577 99.6817L111.333 100.173C112.272 100.173 113.189 100.456 113.96 100.985C114.731 101.514 115.32 102.263 115.647 103.131L121.709 119.398L113.93 152.463" fill="#FFBE9D"/>
<path d="M94.7988 122.429C93.3281 121.473 91.7747 120.648 90.1566 119.962L88.429 119.125L89.8599 120.401C90.3681 120.854 90.7656 121.415 91.0226 122.041C91.2796 122.668 91.3893 123.344 91.3437 124.018C91.2922 124.709 91.0781 125.378 90.7184 125.973C90.3392 126.507 89.9175 127.01 89.4571 127.478C89.4571 127.53 90.2732 127.238 91.0469 126.171C91.4873 125.551 91.7641 124.833 91.8524 124.081C91.9503 123.141 91.7582 122.193 91.3013 121.363C91.0306 120.855 90.6719 120.399 90.2414 120.014L89.9553 120.453C91.5091 121.248 93.1296 121.909 94.7988 122.429V122.429Z" fill="#EB996E"/>
<path d="M107.516 113.596C107.174 112.731 106.741 111.904 106.223 111.129C105.364 109.634 104.103 107.606 102.757 105.379C102.057 104.261 101.411 103.205 100.775 102.243C100.233 101.348 99.4804 100.595 98.581 100.048C97.9544 99.6942 97.2334 99.5374 96.5142 99.5983C96.2497 99.6035 95.9936 99.6913 95.7829 99.8492C95.7829 99.8492 96.0585 99.8492 96.5248 99.8492C97.1844 99.8722 97.8253 100.071 98.3796 100.424C99.8422 101.271 100.87 103.508 102.28 105.703C103.69 107.899 104.94 109.885 105.883 111.369C106.36 112.157 106.906 112.902 107.516 113.596V113.596Z" fill="#EB996E"/>
<path d="M115.709 113.533C115.547 112.764 115.283 112.019 114.925 111.317C114.363 109.969 113.536 108.181 112.54 106.153C111.544 104.125 110.569 102.41 109.827 101.166C109.465 100.462 109.02 99.8028 108.502 99.2012C108.756 99.9281 109.083 100.628 109.477 101.292C110.229 102.776 111.099 104.428 112.042 106.341L114.575 111.422C114.871 112.166 115.251 112.874 115.709 113.533V113.533Z" fill="#EB996E"/>
<path d="M58.4035 142.963C58.1875 145.017 58.4524 147.077 59.1932 149.103C60.0957 152.869 61.506 158.054 63.2548 163.785C63.518 164.713 63.8 165.623 64.1009 166.514L64.7215 168.561L66.8087 166.76C70.438 163.635 74.5093 160.635 78.9934 157.781L77.019 157.454C77.0014 159.912 77.5309 162.364 78.5985 164.768C79.3654 162.339 79.5736 159.877 79.2191 157.427V155.98L77.2447 157.099C72.3447 159.887 68.0005 162.894 64.2701 166.078L66.9779 166.323L66.1882 163.594C64.4395 157.891 62.6906 152.678 61.2803 148.967C60.7993 146.919 59.8342 144.904 58.4035 142.963Z" fill="#263238"/>
<path d="M72.0679 268.46C72.1632 268.132 72.2301 267.796 72.2677 267.457C72.3586 266.668 72.4858 265.665 72.6494 264.518C72.9583 261.956 73.3763 258.247 73.8488 253.677C74.812 244.521 75.957 231.852 76.9747 217.84C77.9924 203.827 78.6649 191.141 79.0465 182.002C79.2282 177.415 79.3554 173.688 79.4099 171.126C79.4099 169.907 79.4099 168.94 79.4099 168.151C79.4571 167.806 79.4571 167.457 79.4099 167.112C79.3373 167.454 79.2948 167.802 79.2828 168.151C79.2828 168.928 79.2101 169.913 79.0647 171.108C78.9011 173.796 78.6648 177.487 78.3922 181.984C77.847 191.159 77.0656 203.845 76.0479 217.822C75.0302 231.799 73.9943 244.485 73.2128 253.659C72.8312 258.139 72.5222 261.812 72.3041 264.518C72.2133 265.719 72.1405 266.686 72.086 267.475C72.0357 267.801 72.0296 268.132 72.0679 268.46V268.46Z" fill="#263238"/>
<path d="M39.6855 228.963L38.7422 255.965C38.7422 255.965 118.115 271.468 128.332 276.653C138.55 281.838 142.704 282.643 142.111 297.561L15.3192 297.352C15.3192 297.352 -0.303163 291.581 0.00419735 274.803C0.311558 258.025 4.5616 217.705 4.5616 217.705L39.6855 228.963Z" fill="#FFBE9D"/>
<path d="M156.534 290.389C156.358 290.471 156.167 290.514 155.972 290.515C153.174 290.818 140.933 290.682 140.414 289.208C139.82 287.567 140.753 283.438 142.364 283.145C143.975 282.852 157.753 283.772 157.753 283.772C157.753 283.772 159.873 284.054 160.466 287.65C160.795 289.867 156.534 290.389 156.534 290.389Z" fill="#FFBE9D"/>
<path d="M158.708 283.302C158.532 283.384 158.34 283.426 158.146 283.427C155.337 283.731 143.107 283.595 142.577 282.121C141.983 280.479 142.926 276.35 144.537 276.058C146.148 275.765 159.927 276.685 159.927 276.685C159.927 276.685 162.046 276.967 162.629 280.563C162.968 282.779 158.708 283.302 158.708 283.302Z" fill="#FFBE9D"/>
<path d="M160.743 276.246C160.743 276.298 160.52 276.34 160.181 276.371C157.383 276.674 145.142 276.538 144.612 275.075C144.029 273.423 144.961 269.294 146.572 269.012C148.183 268.73 161.962 269.639 161.962 269.639C161.962 269.639 164.081 269.911 164.664 273.507C165.004 275.734 160.743 276.246 160.743 276.246Z" fill="#FFBE9D"/>
<path d="M141.507 283.218C141.507 283.427 145.291 283.72 149.986 283.866C154.681 284.013 158.465 283.96 158.465 283.751C158.465 283.542 154.671 283.249 149.986 283.103C145.301 282.957 141.518 283.009 141.507 283.218Z" fill="#EB996E"/>
<g opacity="0.78">
<path opacity="0.78" d="M142.089 275.984C142.089 276.193 145.873 276.486 150.568 276.632C155.263 276.779 159.047 276.726 159.047 276.517C159.047 276.308 155.263 276.015 150.568 275.879C145.873 275.744 142.089 275.775 142.089 275.984Z" fill="#EB996E"/>
</g>
<path d="M21.0526 279.486C21.148 279.486 21.6143 277.856 22.7166 275.305C23.3618 273.818 24.0944 272.369 24.9105 270.967C25.9097 269.253 27.0251 267.608 28.249 266.043C29.4971 264.521 30.8386 263.075 32.2659 261.715C33.452 260.601 34.7011 259.554 36.0073 258.579C38.233 256.906 39.7486 256.049 39.7062 255.965C39.3335 256.103 38.9779 256.282 38.6463 256.498C37.6715 257.031 36.73 257.621 35.8271 258.265C34.4719 259.225 33.1831 260.273 31.9692 261.401C30.4916 262.779 29.1173 264.26 27.8569 265.834C26.6207 267.426 25.5015 269.102 24.5077 270.852C23.6975 272.279 22.9892 273.76 22.388 275.284C21.9691 276.307 21.6151 277.354 21.3281 278.42C21.1938 278.764 21.1014 279.121 21.0526 279.486Z" fill="#EB996E"/>
<path d="M75.6449 41.6701C73.7612 40.2791 80.8214 34.6201 86.1476 33.0722C94.2203 30.742 106.081 30.2579 112.795 33.1829C120.867 36.6982 127.267 41.8059 130.415 49.9467C133.383 58.2013 134.068 67.0861 132.4 75.6879C132.136 78.3419 128.977 84.3048 127.376 86.4536C125.247 88.9673 123.613 87.3663 123.214 91.181C123.164 91.873 123.04 93.3199 122.724 93.9399C122.408 94.5598 121.543 95.4194 121.01 95.8718C118.346 97.9626 116.375 93.6231 115.385 91.181C113.321 85.9262 113.835 80.0681 114.393 74.4675C114.572 70.4567 115.413 66.5016 116.885 62.7584C117.799 60.7714 119.167 58.9634 119.868 56.9157C120.334 55.9236 120.576 54.8434 120.577 53.7501C120.577 52.6567 120.337 51.5762 119.872 50.5834C119.612 50.1699 119.315 49.7794 118.987 49.4163C117.446 47.6603 115.458 46.3409 113.228 45.5942C110.998 44.8474 108.606 44.7003 106.299 45.1678C98.804 46.6448 86.1935 48.6658 83.3634 45.8481C81.3118 44.0593 79.6654 41.8644 78.5313 39.4065L75.6449 41.6701Z" fill="#263238"/>
<path d="M85.7646 76.9534C85.8555 76.9534 85.7646 75.9141 86.2917 74.1223C86.9794 71.6168 88.4791 69.4017 90.5624 67.8149C92.0827 66.6377 93.8879 65.8715 95.8 65.5918C97.7122 65.3122 99.6652 65.5287 101.467 66.2201C103.662 67.0642 105.548 68.542 106.878 70.4603C108.207 72.3786 108.919 74.6479 108.919 76.9714C108.919 79.2948 108.207 81.5641 106.878 83.4824C105.548 85.4007 103.662 86.8786 101.467 87.7226C99.545 88.4494 97.4578 88.6415 95.433 88.2781C93.6721 87.9475 92.0155 87.2107 90.5988 86.1279C88.5116 84.5447 87.0107 82.3282 86.328 79.8205C85.8555 78.0286 85.8918 76.9893 85.8009 76.9893C85.7596 77.2385 85.7596 77.4927 85.8009 77.7419C85.8008 78.4718 85.8862 79.1994 86.0554 79.9101C86.4038 81.5646 87.1105 83.1255 88.1271 84.486C89.1437 85.8464 90.4463 86.9744 91.9458 87.7928C93.4454 88.6111 95.1064 89.1006 96.8155 89.2276C98.5245 89.3547 100.241 89.1164 101.848 88.529C104.14 87.6917 106.122 86.193 107.537 84.2285C109.054 82.1111 109.869 79.582 109.869 76.9893C109.869 74.3965 109.054 71.8675 107.537 69.7501C106.122 67.7855 104.14 66.2869 101.848 65.4496C99.774 64.6951 97.5284 64.5214 95.3603 64.9479C93.076 65.414 90.9792 66.5268 89.3266 68.1499C87.6739 69.773 86.5371 71.8361 86.0554 74.0864C85.8855 74.7909 85.8001 75.5126 85.8009 76.2367C85.7495 76.4721 85.7373 76.7142 85.7646 76.9534V76.9534Z" fill="#263238"/>
<path d="M55.8824 76.9532C55.9914 76.9532 55.8824 75.9139 56.4276 74.122C57.1067 71.6173 58.6007 69.4016 60.6802 67.8147C62.2013 66.6391 64.0064 65.8739 65.9182 65.5943C67.83 65.3147 69.7827 65.5303 71.5844 66.2199C73.7799 67.064 75.6658 68.5418 76.9954 70.4601C78.325 72.3784 79.0363 74.6477 79.0363 76.9711C79.0363 79.2946 78.325 81.5639 76.9954 83.4822C75.6658 85.4004 73.7799 86.8783 71.5844 87.7224C69.6694 88.4504 67.5876 88.6426 65.5689 88.2779C63.8014 87.9506 62.1382 87.2136 60.7166 86.1276C58.6331 84.5444 57.1381 82.3272 56.4639 79.8202C55.9914 78.0283 56.0278 76.9891 55.9187 76.9891C55.8731 77.2379 55.8731 77.4928 55.9187 77.7416C55.9104 78.471 55.9898 79.1988 56.155 79.9098C56.7316 82.5629 58.2134 84.9409 60.3531 86.6473C61.9529 87.9279 63.8639 88.775 65.8973 89.105C67.9306 89.4349 70.0161 89.2363 71.9478 88.5287C74.2419 87.6964 76.2256 86.1967 77.6362 84.2282C79.1538 82.1109 79.9688 79.5818 79.9688 76.9891C79.9688 74.3963 79.1538 71.8673 77.6362 69.7499C76.2256 67.7814 74.2419 66.2817 71.9478 65.4494C70.3392 64.8683 68.6226 64.6354 66.9146 64.7664C65.2067 64.8974 63.5473 65.3893 62.0491 66.2086C60.551 67.0279 59.2492 68.1554 58.2322 69.5147C57.2152 70.8739 56.5067 72.4331 56.155 74.0862C55.9884 74.7909 55.9091 75.5129 55.9187 76.2365C55.8945 76.7143 55.8824 76.9532 55.8824 76.9532Z" fill="#263238"/>
<path d="M79.3639 77.0967C79.5275 77.3117 80.8359 76.5949 82.5806 76.6845C84.3253 76.7741 85.5792 77.5088 85.7428 77.2938C85.9064 77.0787 84.7251 75.8064 82.6169 75.7527C80.5088 75.6989 79.1822 76.9354 79.3639 77.0967Z" fill="#263238"/>
<path d="M56.5667 39.9056L54.6598 33.5963C57.592 28.9426 58.6524 23.3757 57.6325 17.9901C56.6127 12.6046 53.5863 7.79 49.1485 4.49306C44.7107 1.19613 39.1825 -0.344652 33.6509 0.173659C28.1192 0.691971 22.9844 3.23188 19.2559 7.29399C15.5273 11.3561 13.475 16.6465 13.5022 22.1251C13.5295 27.6037 15.6344 32.874 19.4032 36.8998C23.172 40.9257 28.3319 43.4157 33.8684 43.8805C39.4049 44.3453 44.9175 42.7511 49.3223 39.4114V39.4114L56.5667 39.9056Z" fill="#FAFAFA"/>
<path d="M29.9307 18.164H33.0724C33.0697 17.8243 33.1388 17.4875 33.2756 17.1736C33.4125 16.8597 33.6143 16.5751 33.8692 16.3367C34.124 16.0982 34.4267 15.9108 34.7593 15.7855C35.0918 15.6601 35.4475 15.5995 35.8052 15.6071C36.333 15.587 36.8543 15.7241 37.296 15.9992C37.7377 16.2743 38.0778 16.6736 38.2687 17.1413C38.4352 17.5313 38.503 17.9529 38.4666 18.3724C38.4302 18.7918 38.2907 19.1973 38.0593 19.5562C37.5307 20.3895 36.3637 21.1566 34.2393 20.8062V27.5301H37.3412V23.5905C38.6219 23.2284 39.7411 22.4754 40.5255 21.4482C41.3098 20.4209 41.7155 19.1767 41.6797 17.9083C41.6797 13.5426 37.5307 12.5482 35.7753 12.5577C34.4388 12.5766 29.8509 12.8986 29.9307 18.164Z" fill="#263238"/>
<path d="M37.308 29.0446L34.2441 29.0557L34.2546 31.8769L37.3185 31.8658L37.308 29.0446Z" fill="#263238"/>
<path d="M56.5663 39.9055H56.1142L54.7479 39.8279L49.3121 39.5566C49.2986 39.5569 49.2852 39.5542 49.273 39.5486C49.2607 39.5431 49.2499 39.5349 49.2414 39.5246C49.2329 39.5143 49.2268 39.5022 49.2237 39.4893C49.2206 39.4764 49.2206 39.4629 49.2236 39.4499V39.4499L49.3612 39.5856C46.4433 41.8399 43.0001 43.3392 39.3448 43.9469C36.9791 44.3355 34.5644 44.3355 32.1987 43.9469C29.5147 43.5439 26.9289 42.6568 24.5709 41.3302C20.8868 39.2538 17.8763 36.1889 15.8895 32.4919C13.9027 28.7949 13.0213 24.6177 13.3477 20.4462C13.6741 16.2746 15.1949 12.2802 17.7333 8.92737C20.2717 5.57457 23.7234 3.00122 27.6869 1.50661C30.9487 0.264582 34.4569 -0.219612 37.9392 0.0916144C43.6844 0.668877 48.9822 3.40959 52.7288 7.74273C56.4753 12.0759 58.3817 17.6672 58.0506 23.3519C57.8334 26.9862 56.6944 30.5086 54.738 33.5961V33.5283C55.3278 35.5732 55.7898 37.1627 56.1142 38.2579C56.2616 38.7715 56.3697 39.1689 56.4582 39.4596C56.4984 39.5902 56.5312 39.7229 56.5565 39.857L56.4189 39.4306C56.3206 39.1398 56.1928 38.7424 56.0257 38.2191C55.685 37.1401 55.1967 35.5926 54.5611 33.5767C54.5542 33.5649 54.5506 33.5516 54.5506 33.538C54.5506 33.5244 54.5542 33.511 54.5611 33.4992C56.8366 29.81 57.9495 25.5377 57.7588 21.224C57.568 16.9103 56.0822 12.7496 53.4897 9.26974C51.7185 6.92404 49.4935 4.94763 46.9431 3.45466C44.1743 1.84329 41.0806 0.850764 37.8802 0.547129C34.4824 0.232693 31.0567 0.686805 27.8638 1.8749C22.9343 3.73964 18.848 7.2881 16.3493 11.874C13.8505 16.4599 13.1054 21.7782 14.2498 26.8603C15.2063 31.1072 17.4359 34.9723 20.649 37.9536C23.8621 40.935 27.9102 42.8949 32.2675 43.5787C34.6011 43.9566 36.9817 43.9566 39.3153 43.5787C42.9333 42.9986 46.3502 41.5471 49.2629 39.353C49.2813 39.3353 49.306 39.3253 49.3317 39.3253C49.3575 39.3253 49.3822 39.3353 49.4005 39.353C49.415 39.369 49.4231 39.3897 49.4231 39.4112C49.4231 39.4326 49.415 39.4533 49.4005 39.4693V39.4693L49.3317 39.3143L54.6889 39.7019L56.0945 39.8085L56.5663 39.9055Z" fill="#263238"/>
</svg>
