<svg width="505" height="104" viewBox="0 0 505 104" fill="none" xmlns="http://www.w3.org/2000/svg">
<g filter="url(#filter0_d_1_48)">
<path d="M9.39853 9C0.764938 20.012 2.69322 35.9355 13.7053 44.5691L78.044 95C86.6776 83.988 84.7493 68.0645 73.7373 59.4309L9.39853 9Z" fill="url(#paint0_linear_1_48)"/>
<path d="M73.7373 59.4309L9.39856 9L73.7373 59.4309Z" fill="url(#paint1_linear_1_48)"/>
<path d="M11.3267 26.6501C6.01219 22.4845 5.03126 14.8587 9.04235 9.47702C0.832041 20.4689 2.85437 36.0564 13.7119 44.5623L78.0506 94.9933C80.8859 91.3719 82.5791 87.2197 83.1838 82.9734L11.3267 26.6501Z" fill="url(#paint2_linear_1_48)"/>
<path d="M70.7809 11.6136C63.7867 11.6136 58.1161 17.2842 58.1161 24.2784V29.1227C58.1161 38.0787 61.5695 46.6922 67.7575 53.1623L73.7439 59.4242C81.7795 65.7264 84.9709 75.9121 82.7537 85.2377C83.1972 83.9477 83.4458 82.5703 83.4458 81.1325V24.2717C83.4458 17.2842 77.7751 11.6136 70.7809 11.6136Z" fill="url(#paint3_linear_1_48)"/>
<path d="M13.712 44.5623C7.20825 39.4628 3.87577 31.8169 4.01014 24.1441C4.01014 24.1911 4.00342 24.2314 4.00342 24.2784V80.7831C4.00342 87.6027 9.24404 93.4748 16.0569 93.7906C23.3333 94.1333 29.3331 88.335 29.3331 81.1392V74.8706C29.3331 65.9145 25.8797 57.3011 19.6917 50.8309L13.712 44.5623Z" fill="url(#paint4_linear_1_48)"/>
</g>
<g filter="url(#filter1_i_1_48)">
<path d="M102.734 83V20.4545H146.344V32.7315H117.851V45.5582H144.115V57.8658H117.851V70.723H146.344V83H102.734ZM193.651 20.4545H208.737V60.7976C208.737 65.46 207.628 69.5218 205.408 72.983C203.189 76.4238 200.094 79.0909 196.124 80.9844C192.154 82.8575 187.543 83.794 182.29 83.794C176.976 83.794 172.334 82.8575 168.364 80.9844C164.393 79.0909 161.309 76.4238 159.11 72.983C156.911 69.5218 155.812 65.46 155.812 60.7976V20.4545H170.929V59.4844C170.929 61.6425 171.397 63.5665 172.334 65.2564C173.291 66.9463 174.624 68.2696 176.335 69.2266C178.045 70.1835 180.03 70.6619 182.29 70.6619C184.55 70.6619 186.525 70.1835 188.214 69.2266C189.925 68.2696 191.258 66.9463 192.215 65.2564C193.172 63.5665 193.651 61.6425 193.651 59.4844V20.4545ZM218.212 83V20.4545H244.049C248.732 20.4545 252.773 21.2995 256.173 22.9893C259.594 24.6589 262.23 27.0613 264.083 30.1967C265.936 33.3118 266.862 37.0071 266.862 41.2827C266.862 45.6193 265.915 49.3045 264.022 52.3381C262.128 55.3513 259.441 57.652 255.959 59.2401C252.478 60.8078 248.355 61.5916 243.591 61.5916H227.252V49.6811H240.781C243.061 49.6811 244.965 49.3859 246.492 48.7955C248.039 48.1847 249.21 47.2685 250.004 46.0469C250.798 44.8049 251.195 43.2169 251.195 41.2827C251.195 39.3485 250.798 37.7502 250.004 36.4879C249.21 35.2053 248.039 34.2483 246.492 33.6172C244.945 32.9657 243.041 32.6399 240.781 32.6399H233.329V83H218.212ZM253.425 54.4148L269 83H252.508L237.238 54.4148H253.425ZM334.187 51.7273C334.187 58.6089 332.864 64.442 330.217 69.2266C327.57 74.0111 323.987 77.6454 319.467 80.1293C314.967 82.6132 309.918 83.8551 304.319 83.8551C298.7 83.8551 293.64 82.603 289.141 80.0987C284.641 77.5945 281.068 73.9602 278.421 69.196C275.795 64.4115 274.482 58.5885 274.482 51.7273C274.482 44.8456 275.795 39.0125 278.421 34.228C281.068 29.4434 284.641 25.8092 289.141 23.3253C293.64 20.8414 298.7 19.5994 304.319 19.5994C309.918 19.5994 314.967 20.8414 319.467 23.3253C323.987 25.8092 327.57 29.4434 330.217 34.228C332.864 39.0125 334.187 44.8456 334.187 51.7273ZM318.734 51.7273C318.734 47.6553 318.154 44.2145 316.993 41.4048C315.853 38.5952 314.204 36.4676 312.046 35.022C309.908 33.5765 307.332 32.8537 304.319 32.8537C301.326 32.8537 298.751 33.5765 296.593 35.022C294.434 36.4676 292.775 38.5952 291.615 41.4048C290.474 44.2145 289.904 47.6553 289.904 51.7273C289.904 55.7992 290.474 59.2401 291.615 62.0497C292.775 64.8594 294.434 66.987 296.593 68.4325C298.751 69.8781 301.326 70.6009 304.319 70.6009C307.332 70.6009 309.908 69.8781 312.046 68.4325C314.204 66.987 315.853 64.8594 316.993 62.0497C318.154 59.2401 318.734 55.7992 318.734 51.7273Z" fill="#404040"/>
<path d="M343.013 83V20.4545H386.624V32.7315H358.13V45.5582H384.394V57.8658H358.13V70.723H386.624V83H343.013ZM396.091 83V20.4545H421.928C426.611 20.4545 430.652 21.2995 434.052 22.9893C437.472 24.6589 440.109 27.0613 441.962 30.1967C443.815 33.3118 444.741 37.0071 444.741 41.2827C444.741 45.6193 443.794 49.3045 441.901 52.3381C440.007 55.3513 437.32 57.652 433.838 59.2401C430.357 60.8078 426.234 61.5916 421.47 61.5916H405.131V49.6811H418.66C420.94 49.6811 422.844 49.3859 424.371 48.7955C425.918 48.1847 427.089 47.2685 427.883 46.0469C428.677 44.8049 429.074 43.2169 429.074 41.2827C429.074 39.3485 428.677 37.7502 427.883 36.4879C427.089 35.2053 425.918 34.2483 424.371 33.6172C422.824 32.9657 420.92 32.6399 418.66 32.6399H411.208V83H396.091ZM431.303 54.4148L446.879 83H430.387L415.117 54.4148H431.303ZM453.032 83V20.4545H478.869C483.552 20.4545 487.593 21.3707 490.993 23.2031C494.414 25.0151 497.05 27.5499 498.903 30.8075C500.756 34.0447 501.682 37.8113 501.682 42.1072C501.682 46.4235 500.736 50.2003 498.842 53.4375C496.969 56.6544 494.292 59.1484 490.81 60.9197C487.329 62.6911 483.196 63.5767 478.411 63.5767H462.469V51.6662H475.601C477.882 51.6662 479.785 51.2692 481.312 50.4751C482.86 49.6811 484.03 48.5715 484.824 47.1463C485.618 45.7008 486.015 44.0211 486.015 42.1072C486.015 40.1731 485.618 38.5035 484.824 37.0987C484.03 35.6735 482.86 34.5741 481.312 33.8004C479.765 33.0268 477.861 32.6399 475.601 32.6399H468.15V83H453.032Z" fill="url(#paint5_linear_1_48)"/>
</g>
<defs>
<filter id="filter0_d_1_48" x="0" y="9" width="87.4458" height="94" filterUnits="userSpaceOnUse" color-interpolation-filters="sRGB">
<feFlood flood-opacity="0" result="BackgroundImageFix"/>
<feColorMatrix in="SourceAlpha" type="matrix" values="0 0 0 0 0 0 0 0 0 0 0 0 0 0 0 0 0 0 127 0" result="hardAlpha"/>
<feOffset dy="4"/>
<feGaussianBlur stdDeviation="2"/>
<feComposite in2="hardAlpha" operator="out"/>
<feColorMatrix type="matrix" values="0 0 0 0 0 0 0 0 0 0 0 0 0 0 0 0 0 0 0.25 0"/>
<feBlend mode="normal" in2="BackgroundImageFix" result="effect1_dropShadow_1_48"/>
<feBlend mode="normal" in="SourceGraphic" in2="effect1_dropShadow_1_48" result="shape"/>
</filter>
<filter id="filter1_i_1_48" x="102.734" y="19.5994" width="402.949" height="68.2557" filterUnits="userSpaceOnUse" color-interpolation-filters="sRGB">
<feFlood flood-opacity="0" result="BackgroundImageFix"/>
<feBlend mode="normal" in="SourceGraphic" in2="BackgroundImageFix" result="shape"/>
<feColorMatrix in="SourceAlpha" type="matrix" values="0 0 0 0 0 0 0 0 0 0 0 0 0 0 0 0 0 0 127 0" result="hardAlpha"/>
<feOffset dx="4" dy="4"/>
<feGaussianBlur stdDeviation="2"/>
<feComposite in2="hardAlpha" operator="arithmetic" k2="-1" k3="1"/>
<feColorMatrix type="matrix" values="0 0 0 0 0 0 0 0 0 0 0 0 0 0 0 0 0 0 0.3 0"/>
<feBlend mode="normal" in2="shape" result="effect1_innerShadow_1_48"/>
</filter>
<linearGradient id="paint0_linear_1_48" x1="84.8666" y1="87.8269" x2="3.88109" y2="17.2977" gradientUnits="userSpaceOnUse">
<stop stop-color="#1E50FF"/>
<stop offset="1" stop-color="#0C2429"/>
</linearGradient>
<linearGradient id="paint1_linear_1_48" x1="72.5991" y1="61.2361" x2="11.5206" y2="8.04357" gradientUnits="userSpaceOnUse">
<stop stop-color="#FF6E3B"/>
<stop offset="1" stop-color="#FFD727"/>
</linearGradient>
<linearGradient id="paint2_linear_1_48" x1="83.2722" y1="89.6582" x2="2.32152" y2="19.1593" gradientUnits="userSpaceOnUse">
<stop stop-color="#0C2429"/>
<stop offset="1" stop-color="#1E50FF"/>
</linearGradient>
<linearGradient id="paint3_linear_1_48" x1="60.0387" y1="62.5326" x2="93.4923" y2="29.0789" gradientUnits="userSpaceOnUse">
<stop stop-color="#0C2429"/>
<stop offset="1" stop-color="#1E50FF"/>
</linearGradient>
<linearGradient id="paint4_linear_1_48" x1="-5.16189" y1="77.1052" x2="25.9043" y2="46.0389" gradientUnits="userSpaceOnUse">
<stop stop-color="#1E50FF"/>
<stop offset="1" stop-color="#0C2429"/>
</linearGradient>
<linearGradient id="paint5_linear_1_48" x1="301.5" y1="0" x2="301.5" y2="104" gradientUnits="userSpaceOnUse">
<stop stop-color="#1D4CED"/>
<stop offset="1" stop-color="#0C2128"/>
</linearGradient>
</defs>
</svg>
