<svg width="590" height="127" viewBox="0 0 590 127" fill="none" xmlns="http://www.w3.org/2000/svg">
<g filter="url(#filter0_d_36_2226)">
<path d="M9.39853 21C0.764938 32.012 2.69322 47.9355 13.7053 56.5691L78.044 107C86.6776 95.988 84.7493 80.0645 73.7373 71.4309L9.39853 21Z" fill="url(#paint0_linear_36_2226)"/>
<path d="M73.7374 71.4309L9.39862 21L73.7374 71.4309Z" fill="url(#paint1_linear_36_2226)"/>
<path d="M11.3268 38.6501C6.01232 34.4845 5.03138 26.8587 9.04248 21.477C0.832163 32.4689 2.8545 48.0564 13.712 56.5623L78.0508 106.993C80.8861 103.372 82.5792 99.2197 83.1839 94.9734L11.3268 38.6501Z" fill="url(#paint2_linear_36_2226)"/>
<path d="M70.7809 23.6136C63.7867 23.6136 58.1161 29.2842 58.1161 36.2784V41.1227C58.1161 50.0787 61.5695 58.6922 67.7575 65.1623L73.7439 71.4242C81.7795 77.7264 84.9709 87.9121 82.7537 97.2377C83.1972 95.9477 83.4458 94.5703 83.4458 93.1325V36.2717C83.4458 29.2842 77.7751 23.6136 70.7809 23.6136Z" fill="url(#paint3_linear_36_2226)"/>
<path d="M13.712 56.5623C7.20825 51.4628 3.87577 43.8169 4.01014 36.1441C4.01014 36.1911 4.00342 36.2314 4.00342 36.2784V92.7831C4.00342 99.6027 9.24404 105.475 16.0569 105.791C23.3333 106.133 29.3331 100.335 29.3331 93.1392V86.8706C29.3331 77.9146 25.8797 69.3011 19.6917 62.8309L13.712 56.5623Z" fill="url(#paint4_linear_36_2226)"/>
</g>
<path d="M98.7795 102V25.6364H152.025V40.6257H117.237V56.2862H149.303V71.3129H117.237V87.0107H152.025V102H98.7795ZM209.783 25.6364H228.202V74.8924C228.202 80.5849 226.848 85.544 224.138 89.7699C221.429 93.9709 217.65 97.2273 212.803 99.5391C207.956 101.826 202.325 102.969 195.912 102.969C189.424 102.969 183.756 101.826 178.909 99.5391C174.062 97.2273 170.296 93.9709 167.611 89.7699C164.926 85.544 163.584 80.5849 163.584 74.8924V25.6364H182.041V73.2891C182.041 75.924 182.613 78.2731 183.756 80.3363C184.925 82.3995 186.553 84.0153 188.641 85.1836C190.729 86.3519 193.153 86.9361 195.912 86.9361C198.671 86.9361 201.082 86.3519 203.146 85.1836C205.234 84.0153 206.862 82.3995 208.03 80.3363C209.199 78.2731 209.783 75.924 209.783 73.2891V25.6364ZM239.771 102V25.6364H271.315C277.033 25.6364 281.967 26.668 286.118 28.7312C290.294 30.7695 293.514 33.7028 295.776 37.5309C298.038 41.3342 299.169 45.8459 299.169 51.066C299.169 56.3608 298.013 60.8601 295.701 64.5639C293.389 68.2429 290.108 71.0518 285.857 72.9908C281.607 74.9048 276.573 75.8619 270.756 75.8619H250.808V61.32H267.326C270.11 61.32 272.434 60.9595 274.298 60.2386C276.188 59.4929 277.617 58.3743 278.586 56.8828C279.556 55.3665 280.041 53.4276 280.041 51.066C280.041 48.7045 279.556 46.7532 278.586 45.212C277.617 43.646 276.188 42.4776 274.298 41.707C272.409 40.9116 270.085 40.5139 267.326 40.5139H258.228V102H239.771ZM282.763 67.0994L301.779 102H281.644L263 67.0994H282.763ZM381.368 63.8182C381.368 72.2202 379.752 79.342 376.521 85.1836C373.289 91.0252 368.914 95.4624 363.396 98.495C357.902 101.528 351.737 103.044 344.901 103.044C338.04 103.044 331.863 101.515 326.37 98.4577C320.876 95.4002 316.513 90.9631 313.282 85.1463C310.075 79.3047 308.472 72.1953 308.472 63.8182C308.472 55.4162 310.075 48.2944 313.282 42.4528C316.513 36.6111 320.876 32.174 326.37 29.1413C331.863 26.1087 338.04 24.5923 344.901 24.5923C351.737 24.5923 357.902 26.1087 363.396 29.1413C368.914 32.174 373.289 36.6111 376.521 42.4528C379.752 48.2944 381.368 55.4162 381.368 63.8182ZM362.501 63.8182C362.501 58.8466 361.792 54.6456 360.375 51.2152C358.983 47.7848 356.97 45.1871 354.335 43.4222C351.725 41.6573 348.58 40.7749 344.901 40.7749C341.247 40.7749 338.103 41.6573 335.468 43.4222C332.833 45.1871 330.807 47.7848 329.39 51.2152C327.998 54.6456 327.302 58.8466 327.302 63.8182C327.302 68.7898 327.998 72.9908 329.39 76.4212C330.807 79.8516 332.833 82.4492 335.468 84.2141C338.103 85.979 341.247 86.8615 344.901 86.8615C348.58 86.8615 351.725 85.979 354.335 84.2141C356.97 82.4492 358.983 79.8516 360.375 76.4212C361.792 72.9908 362.501 68.7898 362.501 63.8182Z" fill="url(#paint5_linear_36_2226)"/>
<path d="M392.144 102V25.6364H445.389V40.6257H410.601V56.2862H442.668V71.3129H410.601V87.0107H445.389V102H392.144ZM456.948 102V25.6364H488.493C494.21 25.6364 499.145 26.668 503.296 28.7312C507.472 30.7695 510.691 33.7028 512.953 37.5309C515.215 41.3342 516.347 45.8459 516.347 51.066C516.347 56.3608 515.191 60.8601 512.879 64.5639C510.567 68.2429 507.286 71.0518 503.035 72.9908C498.784 74.9048 493.751 75.8619 487.934 75.8619H467.985V61.32H484.503C487.288 61.32 489.612 60.9595 491.476 60.2386C493.365 59.4929 494.795 58.3743 495.764 56.8828C496.734 55.3665 497.218 53.4276 497.218 51.066C497.218 48.7045 496.734 46.7532 495.764 45.212C494.795 43.646 493.365 42.4776 491.476 41.707C489.587 40.9116 487.263 40.5139 484.503 40.5139H475.405V102H456.948ZM499.94 67.0994L518.957 102H498.822L480.178 67.0994H499.94ZM526.47 102V25.6364H558.015C563.732 25.6364 568.666 26.755 572.818 28.9922C576.994 31.2045 580.213 34.2994 582.475 38.2766C584.737 42.229 585.868 46.8278 585.868 52.0728C585.868 57.3427 584.712 61.9538 582.4 65.9062C580.113 69.8338 576.845 72.8789 572.594 75.0415C568.343 77.2042 563.297 78.2855 557.455 78.2855H537.992V63.7436H554.025C556.809 63.7436 559.133 63.2589 560.998 62.2894C562.887 61.32 564.316 59.9652 565.286 58.2251C566.255 56.4602 566.74 54.4094 566.74 52.0728C566.74 49.7113 566.255 47.6729 565.286 45.9577C564.316 44.2177 562.887 42.8754 560.998 41.9308C559.108 40.9862 556.784 40.5139 554.025 40.5139H544.927V102H526.47Z" fill="#444444"/>
<defs>
<filter id="filter0_d_36_2226" x="0" y="21" width="87.4457" height="94" filterUnits="userSpaceOnUse" color-interpolation-filters="sRGB">
<feFlood flood-opacity="0" result="BackgroundImageFix"/>
<feColorMatrix in="SourceAlpha" type="matrix" values="0 0 0 0 0 0 0 0 0 0 0 0 0 0 0 0 0 0 127 0" result="hardAlpha"/>
<feOffset dy="4"/>
<feGaussianBlur stdDeviation="2"/>
<feComposite in2="hardAlpha" operator="out"/>
<feColorMatrix type="matrix" values="0 0 0 0 0 0 0 0 0 0 0 0 0 0 0 0 0 0 0.25 0"/>
<feBlend mode="normal" in2="BackgroundImageFix" result="effect1_dropShadow_36_2226"/>
<feBlend mode="normal" in="SourceGraphic" in2="effect1_dropShadow_36_2226" result="shape"/>
</filter>
<linearGradient id="paint0_linear_36_2226" x1="84.8666" y1="99.8269" x2="3.88109" y2="29.2977" gradientUnits="userSpaceOnUse">
<stop stop-color="#1E50FF"/>
<stop offset="1" stop-color="#0C2429"/>
</linearGradient>
<linearGradient id="paint1_linear_36_2226" x1="72.5992" y1="73.2361" x2="11.5207" y2="20.0436" gradientUnits="userSpaceOnUse">
<stop stop-color="#FF6E3B"/>
<stop offset="1" stop-color="#FFD727"/>
</linearGradient>
<linearGradient id="paint2_linear_36_2226" x1="83.2723" y1="101.658" x2="2.32165" y2="31.1593" gradientUnits="userSpaceOnUse">
<stop stop-color="#0C2429"/>
<stop offset="1" stop-color="#1E50FF"/>
</linearGradient>
<linearGradient id="paint3_linear_36_2226" x1="60.0387" y1="74.5326" x2="93.4923" y2="41.0789" gradientUnits="userSpaceOnUse">
<stop stop-color="#0C2429"/>
<stop offset="1" stop-color="#1E50FF"/>
</linearGradient>
<linearGradient id="paint4_linear_36_2226" x1="-5.16189" y1="89.1052" x2="25.9043" y2="58.0389" gradientUnits="userSpaceOnUse">
<stop stop-color="#1E50FF"/>
<stop offset="1" stop-color="#0C2429"/>
</linearGradient>
<linearGradient id="paint5_linear_36_2226" x1="341.5" y1="0" x2="341.5" y2="127" gradientUnits="userSpaceOnUse">
<stop stop-color="#1D4CED"/>
<stop offset="1" stop-color="#0C2128"/>
</linearGradient>
</defs>
</svg>
