<svg width="20" height="20" viewBox="0 0 20 20" fill="none" xmlns="http://www.w3.org/2000/svg">
<g clip-path="url(#clip0_3_29)">
<path d="M3.23046 0.0625C1.70702 0.335938 0.523425 1.44531 0.105456 2.98828L0.0195185 3.30078L0.00779973 10.5859C-0.00391902 18.6953 -0.019544 18.1484 0.261706 18.7227C0.363268 18.9219 0.488268 19.0898 0.699206 19.2969C1.03905 19.6367 1.33983 19.8086 1.78124 19.9219C2.06639 19.9961 2.22264 20 4.94921 20H7.81249V19.2188V18.4414L4.94921 18.4297L2.08592 18.418L1.92577 18.3125C1.83983 18.2539 1.72655 18.1406 1.67577 18.0586L1.58202 17.9102L1.5703 11.2969L1.56249 4.6875H3.12499H4.68749V3.125V1.5625L8.95702 1.57031L13.2226 1.58203L13.3711 1.67578C13.4531 1.72656 13.5664 1.83984 13.625 1.92578L13.7305 2.08203L13.7422 3.38672L13.7539 4.6875H14.5351H15.3125V3.38672C15.3125 2.21484 15.3047 2.05078 15.2344 1.78125C15.1211 1.33984 14.9492 1.03906 14.6094 0.703125C14.2734 0.363281 13.9726 0.191406 13.5312 0.078125C13.2383 0.00390625 13.0898 0 8.3828 0.00390625C4.40624 0.0078125 3.48046 0.015625 3.23046 0.0625ZM3.12499 2.42188V3.125H2.42186C1.93358 3.125 1.71874 3.11328 1.71874 3.08203C1.71874 2.94922 1.99999 2.52734 2.26561 2.26562C2.52733 2 2.94139 1.72266 3.07811 1.71875C3.11327 1.71875 3.12499 1.88672 3.12499 2.42188Z" fill="black"/>
<path d="M10.8281 6.01563C10.4023 6.12891 10.0977 6.30469 9.76562 6.64063C9.42578 6.97656 9.25391 7.27734 9.14062 7.71875C9.06641 8.01172 9.0625 8.16797 9.0625 12.9688C9.0625 17.7695 9.06641 17.9258 9.14062 18.2188C9.25391 18.6602 9.42578 18.9609 9.76562 19.2969C10.1016 19.6367 10.4023 19.8086 10.8438 19.9219C11.1328 19.9961 11.2891 20 14.5312 20C17.7734 20 17.9297 19.9961 18.2188 19.9219C18.6602 19.8086 18.9609 19.6367 19.2969 19.2969C19.6367 18.9609 19.8086 18.6602 19.9219 18.2188C19.9961 17.9258 20 17.7695 20 12.9688C20 8.16797 19.9961 8.01172 19.9219 7.71875C19.8086 7.27734 19.6367 6.97656 19.2969 6.64063C18.9609 6.30078 18.6602 6.12891 18.2188 6.01563C17.9297 5.94141 17.7773 5.9375 14.5156 5.94141C11.293 5.94141 11.0977 5.94531 10.8281 6.01563ZM18.0742 7.625C18.1602 7.68359 18.2734 7.79688 18.3242 7.87891L18.418 8.02734V12.9688V17.9102L18.3242 18.0586C18.2734 18.1406 18.1602 18.2539 18.0742 18.3125L17.9141 18.418H14.5312H11.1484L10.9883 18.3125C10.9023 18.2539 10.7891 18.1406 10.7383 18.0586L10.6445 17.9102L10.6328 13.0547C10.6289 9.69922 10.6367 8.14844 10.6641 8.04297C10.7148 7.85547 10.9609 7.59766 11.1406 7.54297C11.2188 7.51953 12.5664 7.50781 14.5938 7.51172L17.9141 7.51953L18.0742 7.625Z" fill="black"/>
<path d="M12.1875 9.84375V10.625H14.5312H16.875V9.84375V9.0625H14.5312H12.1875V9.84375Z" fill="black"/>
<path d="M12.7031 12.2305C12.5156 12.2852 12.2773 12.543 12.2226 12.7422C12.1328 13.0898 12.2695 13.4531 12.5664 13.6367C12.789 13.7773 13.1679 13.7695 13.3867 13.625C13.6289 13.4648 13.7304 13.2734 13.7304 12.9687C13.7304 12.668 13.6289 12.4727 13.3984 12.3203C13.2304 12.207 12.9101 12.168 12.7031 12.2305Z" fill="black"/>
<path d="M15.8281 12.2305C15.6406 12.2852 15.4023 12.543 15.3476 12.7422C15.2578 13.0898 15.3945 13.4531 15.6914 13.6367C15.914 13.7773 16.2929 13.7695 16.5117 13.625C16.7539 13.4648 16.8554 13.2734 16.8554 12.9687C16.8554 12.668 16.7539 12.4727 16.5234 12.3203C16.3554 12.207 16.0351 12.168 15.8281 12.2305Z" fill="black"/>
<path d="M12.7031 15.3555C12.5156 15.4102 12.2773 15.668 12.2226 15.8672C12.1328 16.2148 12.2695 16.5781 12.5664 16.7617C12.789 16.9023 13.1679 16.8945 13.3867 16.75C13.6289 16.5898 13.7304 16.3984 13.7304 16.0937C13.7304 15.793 13.6289 15.5977 13.3984 15.4453C13.2304 15.332 12.9101 15.293 12.7031 15.3555Z" fill="black"/>
<path d="M15.8281 15.3555C15.6406 15.4102 15.4023 15.668 15.3476 15.8672C15.2578 16.2148 15.3945 16.5781 15.6914 16.7617C15.914 16.9023 16.2929 16.8945 16.5117 16.75C16.7539 16.5898 16.8554 16.3984 16.8554 16.0937C16.8554 15.793 16.7539 15.5977 16.5234 15.4453C16.3554 15.332 16.0351 15.293 15.8281 15.3555Z" fill="black"/>
<path d="M3.125 8.4375V9.21875H5.46875H7.8125V8.4375V7.65625H5.46875H3.125V8.4375Z" fill="black"/>
<path d="M3.125 11.5625V12.3438H5.46875H7.8125V11.5625V10.7812H5.46875H3.125V11.5625Z" fill="black"/>
<path d="M3.125 14.6875V15.4688H5.46875H7.8125V14.6875V13.9062H5.46875H3.125V14.6875Z" fill="black"/>
</g>
<defs>
<clipPath id="clip0_3_29">
<rect width="20" height="20" fill="white"/>
</clipPath>
</defs>
</svg>
