<svg width="24" height="24" viewBox="0 0 24 24" fill="none" xmlns="http://www.w3.org/2000/svg">
<path fill-rule="evenodd" clip-rule="evenodd" d="M7.09866 1.25004C7.14671 1.25006 7.19547 1.25008 7.24496 1.25008H16.7549C16.8044 1.25008 16.8532 1.25006 16.9012 1.25004C17.918 1.2496 18.6177 1.24929 19.207 1.45435C20.32 1.84161 21.1841 2.73726 21.5546 3.86559L20.842 4.09954L21.5546 3.86559C21.7506 4.46271 21.7504 5.17254 21.75 6.22655C21.75 6.27372 21.7499 6.32158 21.7499 6.37014V20.3743C21.7499 21.8395 20.023 22.7118 18.8855 21.671C18.8061 21.5983 18.6938 21.5983 18.6144 21.671L18.1313 22.1131C17.2031 22.9624 15.7968 22.9624 14.8686 22.1131C14.5136 21.7882 13.9862 21.7882 13.6313 22.1131C12.7031 22.9624 11.2968 22.9624 10.3686 22.1131C10.0136 21.7882 9.48625 21.7882 9.13126 22.1131C8.20307 22.9624 6.79682 22.9624 5.86863 22.1131L5.38554 21.671C5.30606 21.5983 5.19383 21.5983 5.11436 21.671C3.97693 22.7118 2.24995 21.8395 2.24995 20.3743V6.37014C2.24995 6.32158 2.24993 6.27372 2.24991 6.22655C2.24953 5.17255 2.24927 4.46271 2.44532 3.86559C2.81579 2.73726 3.6799 1.84161 4.79286 1.45435C5.38218 1.24929 6.08191 1.2496 7.09866 1.25004ZM7.24496 2.75008C6.02388 2.75008 5.60328 2.76057 5.28581 2.87103C4.62643 3.10047 4.09906 3.63728 3.87047 4.3335C3.75939 4.67183 3.74995 5.11796 3.74995 6.37014V20.3743C3.74995 20.4933 3.80987 20.5661 3.88505 20.6009C3.92421 20.619 3.96252 20.6237 3.99443 20.6194C4.02257 20.6156 4.05898 20.6035 4.10173 20.5644C4.75441 19.9671 5.74549 19.9671 6.39816 20.5644L6.88126 21.0065C7.23625 21.3313 7.76365 21.3313 8.11863 21.0065C9.04682 20.1571 10.4531 20.1571 11.3813 21.0065C11.7362 21.3313 12.2636 21.3313 12.6186 21.0065C13.5468 20.1571 14.9531 20.1571 15.8813 21.0065C16.2362 21.3313 16.7636 21.3313 17.1186 21.0065L17.6017 20.5644C18.2544 19.9671 19.2455 19.9671 19.8982 20.5644C19.9409 20.6035 19.9773 20.6156 20.0055 20.6194C20.0374 20.6237 20.0757 20.619 20.1148 20.6009C20.19 20.5661 20.2499 20.4934 20.2499 20.3743V6.37014C20.2499 5.11797 20.2405 4.67183 20.1294 4.3335C19.9008 3.63728 19.3735 3.10047 18.7141 2.87103C18.3966 2.76057 17.976 2.75008 16.7549 2.75008H7.24496ZM6.24995 7.50008C6.24995 7.08587 6.58573 6.75008 6.99995 6.75008H7.49995C7.91416 6.75008 8.24995 7.08587 8.24995 7.50008C8.24995 7.9143 7.91416 8.25008 7.49995 8.25008H6.99995C6.58573 8.25008 6.24995 7.9143 6.24995 7.50008ZM9.74995 7.50008C9.74995 7.08587 10.0857 6.75008 10.4999 6.75008H16.9999C17.4142 6.75008 17.7499 7.08587 17.7499 7.50008C17.7499 7.9143 17.4142 8.25008 16.9999 8.25008H10.4999C10.0857 8.25008 9.74995 7.9143 9.74995 7.50008ZM6.24995 11.0001C6.24995 10.5859 6.58573 10.2501 6.99995 10.2501H7.49995C7.91416 10.2501 8.24995 10.5859 8.24995 11.0001C8.24995 11.4143 7.91416 11.7501 7.49995 11.7501H6.99995C6.58573 11.7501 6.24995 11.4143 6.24995 11.0001ZM9.74995 11.0001C9.74995 10.5859 10.0857 10.2501 10.4999 10.2501H16.9999C17.4142 10.2501 17.7499 10.5859 17.7499 11.0001C17.7499 11.4143 17.4142 11.7501 16.9999 11.7501H10.4999C10.0857 11.7501 9.74995 11.4143 9.74995 11.0001ZM6.24995 14.5001C6.24995 14.0859 6.58573 13.7501 6.99995 13.7501H7.49995C7.91416 13.7501 8.24995 14.0859 8.24995 14.5001C8.24995 14.9143 7.91416 15.2501 7.49995 15.2501H6.99995C6.58573 15.2501 6.24995 14.9143 6.24995 14.5001ZM9.74995 14.5001C9.74995 14.0859 10.0857 13.7501 10.4999 13.7501H16.9999C17.4142 13.7501 17.7499 14.0859 17.7499 14.5001C17.7499 14.9143 17.4142 15.2501 16.9999 15.2501H10.4999C10.0857 15.2501 9.74995 14.9143 9.74995 14.5001Z" fill="#1C274C"/>
</svg>
