<svg width="24" height="24" viewBox="0 0 24 24" fill="none" xmlns="http://www.w3.org/2000/svg">
<path fill-rule="evenodd" clip-rule="evenodd" d="M22.75 7C22.75 3.82436 20.1756 1.25 17 1.25C13.8244 1.25 11.25 3.82436 11.25 7C11.25 7.91847 11.4659 8.78866 11.8504 9.56061C11.859 9.5779 11.8624 9.5918 11.8634 9.6002C11.8639 9.60415 11.8639 9.60649 11.8638 9.60744L11.5662 10.7195C11.2878 11.7601 12.2399 12.7122 13.2805 12.4338L14.3926 12.1362C14.3911 12.1366 14.3916 12.1363 14.3926 12.1362C14.3935 12.1362 14.3959 12.1361 14.3998 12.1366C14.4082 12.1376 14.4221 12.141 14.4394 12.1496C15.2113 12.5341 16.0815 12.75 17 12.75C20.1756 12.75 22.75 10.1756 22.75 7ZM14.3936 12.136L14.3926 12.1362L14.3936 12.136ZM17 2.75C19.3472 2.75 21.25 4.65279 21.25 7C21.25 9.34721 19.3472 11.25 17 11.25C16.3188 11.25 15.677 11.0903 15.1081 10.8069C14.7889 10.6479 14.3978 10.5821 14.0058 10.6869L13.06 10.94L13.3131 9.99416C13.4179 9.60224 13.3521 9.2111 13.1931 8.89186C12.9097 8.32298 12.75 7.68122 12.75 7C12.75 4.65279 14.6528 2.75 17 2.75Z" fill="#1C274C"/>
<path fill-rule="evenodd" clip-rule="evenodd" d="M3.00748 6.4069C4.68755 4.72683 7.52269 4.85455 8.69251 6.95067L9.34152 8.1136C10.1054 9.48242 9.7799 11.2095 8.6616 12.3415C8.64671 12.3619 8.56777 12.4768 8.55794 12.6776C8.54539 12.9339 8.63642 13.5267 9.55485 14.4452C10.473 15.3633 11.0657 15.4545 11.3221 15.4421C11.5231 15.4323 11.6381 15.3533 11.6585 15.3384C12.7905 14.2201 14.5176 13.8946 15.8864 14.6585L17.0493 15.3075C19.1455 16.4773 19.2732 19.3125 17.5931 20.9925C16.6944 21.8912 15.4995 22.6897 14.0953 22.7429C12.0144 22.8218 8.55916 22.2844 5.13738 18.8626C1.71559 15.4408 1.17821 11.9856 1.2571 9.90468C1.31033 8.50048 2.10882 7.30556 3.00748 6.4069ZM7.38268 7.68167C6.78366 6.60832 5.17397 6.36173 4.06814 7.46756C3.29279 8.24291 2.78873 9.09872 2.75602 9.9615C2.69023 11.6968 3.11867 14.7226 6.19804 17.802C9.2774 20.8813 12.3032 21.3098 14.0385 21.244C14.9013 21.2113 15.7571 20.7072 16.5324 19.9319C17.6383 18.826 17.3917 17.2163 16.3183 16.6173L15.1554 15.9683C14.432 15.5646 13.4159 15.7023 12.7026 16.4156C12.6325 16.4856 12.1865 16.9018 11.395 16.9403C10.5848 16.9797 9.60403 16.6157 8.49419 15.5058C7.38398 14.3956 7.02006 13.4146 7.05973 12.6043C7.09849 11.8128 7.51471 11.3672 7.58435 11.2975C8.29767 10.5842 8.43542 9.56801 8.03169 8.8446L7.38268 7.68167Z" fill="#1C274C"/>
</svg>
