<svg width="24" height="24" viewBox="0 0 24 24" fill="none" xmlns="http://www.w3.org/2000/svg">
<path fill-rule="evenodd" clip-rule="evenodd" d="M7.09872 1.24996C7.14677 1.24999 7.19553 1.25001 7.24502 1.25001H16.755C16.8045 1.25001 16.8532 1.24999 16.9013 1.24996C17.918 1.24952 18.6178 1.24921 19.2071 1.45427C20.3201 1.84153 21.1842 2.73719 21.5546 3.86551L20.8421 4.09947L21.5546 3.86551C21.7507 4.46263 21.7504 5.17247 21.75 6.22647C21.75 6.27364 21.75 6.3215 21.75 6.37007V20.3742C21.75 21.8394 20.023 22.7117 18.8856 21.6709C18.8061 21.5982 18.6939 21.5982 18.6144 21.6709L18.1313 22.113C17.2031 22.9623 15.7969 22.9623 14.8687 22.113C14.5137 21.7881 13.9863 21.7881 13.6313 22.113C12.7031 22.9623 11.2969 22.9623 10.3687 22.113C10.0137 21.7881 9.48631 21.7881 9.13132 22.113C8.20313 22.9623 6.79688 22.9623 5.86869 22.113L5.3856 21.6709C5.30612 21.5982 5.19389 21.5982 5.11442 21.6709C3.97699 22.7118 2.25001 21.8394 2.25001 20.3742V6.37007C2.25001 6.3215 2.24999 6.27364 2.24997 6.22648C2.24959 5.17247 2.24933 4.46263 2.44539 3.86551C2.81585 2.73719 3.67996 1.84153 4.79292 1.45427C5.38224 1.24921 6.08197 1.24952 7.09872 1.24996ZM7.24502 2.75001C6.02394 2.75001 5.60334 2.76049 5.28587 2.87096C4.62649 3.10039 4.09913 3.63721 3.87054 4.33343C3.75945 4.67175 3.75001 5.11789 3.75001 6.37007V20.3742C3.75001 20.4933 3.80993 20.566 3.88511 20.6008C3.92427 20.6189 3.96258 20.6236 3.99449 20.6193C4.02263 20.6156 4.05904 20.6034 4.10179 20.5643C4.75447 19.9671 5.74555 19.9671 6.39822 20.5643L6.88132 21.0064C7.23631 21.3312 7.76371 21.3312 8.11869 21.0064C9.04688 20.157 10.4531 20.157 11.3813 21.0064C11.7363 21.3312 12.2637 21.3312 12.6187 21.0064C13.5469 20.157 14.9531 20.157 15.8813 21.0064C16.2363 21.3312 16.7637 21.3312 17.1187 21.0064L17.6018 20.5643C18.2545 19.9671 19.2455 19.9671 19.8982 20.5643C19.941 20.6034 19.9774 20.6156 20.0055 20.6193C20.0374 20.6236 20.0757 20.6189 20.1149 20.6008C20.1901 20.566 20.25 20.4933 20.25 20.3742V6.37007C20.25 5.11789 20.2406 4.67175 20.1295 4.33343C19.9009 3.63721 19.3735 3.10039 18.7141 2.87096C18.3967 2.76049 17.9761 2.75001 16.755 2.75001H7.24502ZM6.25001 7.50001C6.25001 7.08579 6.58579 6.75001 7.00001 6.75001H7.50001C7.91422 6.75001 8.25001 7.08579 8.25001 7.50001C8.25001 7.91422 7.91422 8.25001 7.50001 8.25001H7.00001C6.58579 8.25001 6.25001 7.91422 6.25001 7.50001ZM9.75001 7.50001C9.75001 7.08579 10.0858 6.75001 10.5 6.75001H17C17.4142 6.75001 17.75 7.08579 17.75 7.50001C17.75 7.91422 17.4142 8.25001 17 8.25001H10.5C10.0858 8.25001 9.75001 7.91422 9.75001 7.50001ZM6.25001 11C6.25001 10.5858 6.58579 10.25 7.00001 10.25H7.50001C7.91422 10.25 8.25001 10.5858 8.25001 11C8.25001 11.4142 7.91422 11.75 7.50001 11.75H7.00001C6.58579 11.75 6.25001 11.4142 6.25001 11ZM9.75001 11C9.75001 10.5858 10.0858 10.25 10.5 10.25H17C17.4142 10.25 17.75 10.5858 17.75 11C17.75 11.4142 17.4142 11.75 17 11.75H10.5C10.0858 11.75 9.75001 11.4142 9.75001 11ZM6.25001 14.5C6.25001 14.0858 6.58579 13.75 7.00001 13.75H7.50001C7.91422 13.75 8.25001 14.0858 8.25001 14.5C8.25001 14.9142 7.91422 15.25 7.50001 15.25H7.00001C6.58579 15.25 6.25001 14.9142 6.25001 14.5ZM9.75001 14.5C9.75001 14.0858 10.0858 13.75 10.5 13.75H17C17.4142 13.75 17.75 14.0858 17.75 14.5C17.75 14.9142 17.4142 15.25 17 15.25H10.5C10.0858 15.25 9.75001 14.9142 9.75001 14.5Z" fill="#1C274C"/>
</svg>
