<svg width="22" height="21" viewBox="0 0 22 21" fill="none" xmlns="http://www.w3.org/2000/svg">
<path d="M18.7225 1.20074C18.8334 0.801638 18.5997 0.38823 18.2006 0.277369C17.8015 0.166507 17.3881 0.400172 17.2773 0.799274L15.7632 6.25001H8.32006L9.72264 1.20074C9.8335 0.801638 9.59983 0.38823 9.20073 0.277369C8.80163 0.166507 8.38822 0.400172 8.27736 0.799274L6.76327 6.25001H3C2.58579 6.25001 2.25 6.58579 2.25 7.00001C2.25 7.41422 2.58579 7.75001 3 7.75001H6.3466L4.81882 13.25H1C0.585786 13.25 0.25 13.5858 0.25 14C0.25 14.4142 0.585786 14.75 1 14.75H4.40216L3.27736 18.7993C3.1665 19.1984 3.40016 19.6118 3.79927 19.7226C4.19837 19.8335 4.61178 19.5998 4.72264 19.2007L5.95895 14.75H8C8.41421 14.75 8.75 14.4142 8.75 14C8.75 13.5858 8.41421 13.25 8 13.25H6.37562L7.9034 7.75001H15.4872C15.5661 7.97267 15.7487 8.15462 15.9936 8.22265C16.376 8.32886 16.7715 8.11881 16.9015 7.75001H21C21.4142 7.75001 21.75 7.41422 21.75 7.00001C21.75 6.58579 21.4142 6.25001 21 6.25001H17.32L18.7225 1.20074Z" fill="#1C274C"/>
<path fill-rule="evenodd" clip-rule="evenodd" d="M15.2132 9.25001H16.7868C17.5739 9.24999 18.2175 9.24998 18.7374 9.29942C19.2767 9.35069 19.7599 9.46038 20.1981 9.72893C20.6354 9.99691 21.0031 10.3646 21.2711 10.8019C21.5396 11.2401 21.6493 11.7233 21.7006 12.2626C21.75 12.7825 21.75 13.4261 21.75 14.2131V14.7761C21.75 15.3364 21.75 15.7947 21.7245 16.169C21.6981 16.5558 21.6419 16.9074 21.5026 17.2438C21.1728 18.0401 20.5401 18.6728 19.7437 19.0027C19.2689 19.1993 18.7457 19.2348 18.1181 19.2457C17.8916 19.2496 17.7729 19.2524 17.6883 19.2617L17.6804 19.2626L17.6781 19.2658C17.6304 19.3313 17.5721 19.4282 17.4598 19.618L17.1887 20.0759C16.6567 20.9747 15.3432 20.9747 14.8112 20.0759L14.5402 19.618C14.4279 19.4282 14.3696 19.3313 14.3219 19.2658L14.3195 19.2626L14.3117 19.2617C14.2271 19.2524 14.1084 19.2496 13.8819 19.2457C13.2543 19.2348 12.7311 19.1993 12.2563 19.0027C11.4599 18.6728 10.8272 18.0401 10.4974 17.2438C10.3581 16.9074 10.3019 16.5558 10.2755 16.169C10.25 15.7947 10.25 15.3364 10.25 14.7761V14.2132C10.25 13.4261 10.25 12.7825 10.2994 12.2626C10.3507 11.7233 10.4604 11.2401 10.7289 10.8019C10.9969 10.3646 11.3646 9.99691 11.8019 9.72893C12.2401 9.46038 12.7233 9.35069 13.2626 9.29942C13.7825 9.24998 14.4261 9.24999 15.2132 9.25001ZM13.4045 10.7927C12.9751 10.8335 12.7486 10.908 12.5856 11.0079C12.3502 11.1522 12.1522 11.3502 12.0079 11.5856C11.908 11.7486 11.8335 11.9751 11.7927 12.4046C11.7508 12.8451 11.75 13.4171 11.75 14.25V14.75C11.75 15.3427 11.7504 15.7497 11.772 16.0669C11.7932 16.3773 11.8322 16.5466 11.8832 16.6697C12.0608 17.0985 12.4015 17.4392 12.8303 17.6168C13.0158 17.6937 13.28 17.7351 13.9077 17.7459L13.9335 17.7463C14.1236 17.7496 14.314 17.7528 14.4768 17.7708C14.6609 17.7912 14.8701 17.8355 15.0785 17.9566C15.2843 18.0764 15.4252 18.233 15.5341 18.3823C15.6293 18.5129 15.7242 18.6734 15.8179 18.8317L16 19.1394L16.1821 18.8318C16.2758 18.6734 16.3707 18.5129 16.4659 18.3823C16.5748 18.233 16.7156 18.0764 16.9215 17.9566C17.1298 17.8355 17.3391 17.7912 17.5232 17.7708C17.686 17.7528 17.8762 17.7496 18.0663 17.7463L18.0923 17.7459C18.72 17.7351 18.9842 17.6937 19.1697 17.6168C19.5985 17.4392 19.9392 17.0985 20.1168 16.6697C20.1678 16.5466 20.2068 16.3773 20.228 16.0669C20.2496 15.7497 20.25 15.3427 20.25 14.75V14.25C20.25 13.4171 20.2492 12.8451 20.2073 12.4046C20.1665 11.9751 20.092 11.7486 19.9921 11.5856C19.8478 11.3502 19.6498 11.1522 19.4144 11.0079C19.2514 10.908 19.0249 10.8335 18.5955 10.7927C18.1549 10.7508 17.5829 10.75 16.75 10.75H15.25C14.4171 10.75 13.8451 10.7508 13.4045 10.7927Z" fill="#1C274C"/>
</svg>
