<svg width="20" height="20" viewBox="0 0 20 20" fill="none" xmlns="http://www.w3.org/2000/svg">
<g clip-path="url(#clip0_3_19)">
<path d="M3.73999 0.7C2.49999 0.95 1.54999 1.82 1.34999 2.92C1.28999 3.24 1.23999 3.29 0.969993 3.32C0.779993 3.34 0.639993 3.41 0.619993 3.51C0.579993 3.71 1.95999 5.44 2.19999 5.48C2.32999 5.5 2.60999 5.23 3.14999 4.56C3.96999 3.54 4.03999 3.3 3.49999 3.3C3.16999 3.3 3.14999 3.27 3.30999 2.82C3.41999 2.49 3.91999 2.24 4.54999 2.18C4.84999 2.15 4.84999 2.14 4.87999 1.52C4.91999 0.599999 4.77999 0.5 3.73999 0.7ZM4.29999 1.39C4.29999 1.54 4.16999 1.62 3.76999 1.74C3.46999 1.83 3.15999 1.98 3.05999 2.09C2.65999 2.53 2.46999 3.57 2.74999 3.8C2.87999 3.91 2.85999 3.98 2.57999 4.32L2.25999 4.73L1.91999 4.36C1.60999 4.01 1.59999 3.97 1.73999 3.81C1.82999 3.71 1.89999 3.49 1.89999 3.31C1.89999 2.38 2.64999 1.57 3.76999 1.31C4.30999 1.18 4.29999 1.18 4.29999 1.39Z" fill="black"/>
<path d="M8.00001 2.84L4.35001 4.25L4.32001 7.85L4.30001 11.45L3.78001 11.97C3.22001 12.54 3.21001 12.6 3.70001 13.2C3.88001 13.42 3.89001 13.49 3.78001 13.76C3.68001 14.05 3.61001 14.08 3.17001 14.13C2.90001 14.15 2.64001 14.24 2.59001 14.31C2.45001 14.53 2.48001 15.66 2.62001 15.78C2.69001 15.83 2.96001 15.91 3.21001 15.95C3.60001 16.01 3.68001 16.06 3.78001 16.33C3.89001 16.62 3.87001 16.68 3.59001 17.02C3.42001 17.23 3.30001 17.45 3.32001 17.5C3.38001 17.66 4.31001 18.6 4.42001 18.6C4.47001 18.6 4.69001 18.47 4.90001 18.3C5.24001 18.03 5.30001 18.02 5.58001 18.12C5.85001 18.23 5.90001 18.3 5.96001 18.7C6.05001 19.35 6.13001 19.4 6.91001 19.4C7.67001 19.4 7.72001 19.36 7.80001 18.71C7.84001 18.32 7.89001 18.25 8.17001 18.14C8.46001 18.02 8.51001 18.03 8.85001 18.3C9.06001 18.47 9.28001 18.6 9.34001 18.6C9.52001 18.6 10.4 17.67 10.4 17.48C10.4 17.39 10.28 17.17 10.14 17C9.91001 16.74 9.89001 16.64 9.96001 16.37C10.04 16.1 10.12 16.04 10.5 15.97C10.84 15.9 11.06 15.92 11.4 16.04L11.85 16.2L14.2 15.3C15.49 14.8 17.19 14.14 17.98 13.84L19.4 13.28L19.38 8.77L19.35 4.25L15.65 2.83C13.62 2.05 11.88 1.41 11.8 1.41C11.72 1.42 10.01 2.06 8.00001 2.84ZM15.12 3.28C16.81 3.92 18.16 4.48 18.12 4.51C18.01 4.61 16.68 5.11 16.5 5.13C16.31 5.14 10.3 2.67 10.36 2.61C10.49 2.48 11.77 2.03 11.9 2.06C11.98 2.08 13.43 2.63 15.12 3.28ZM12.75 4.3C14.51 5.03 16.01 5.64 16.08 5.67C16.16 5.71 16.2 5.96 16.2 6.46V7.2L15.73 7.44C14.79 7.91 14.81 7.92 14.78 7.03L14.75 6.26L11.58 4.85C9.83001 4.08 8.40001 3.42 8.40001 3.39C8.40001 3.32 9.43001 2.91 9.50001 2.95C9.53001 2.97 10.99 3.58 12.75 4.3ZM10.39 4.97C11.96 5.66 13.29 6.26 13.33 6.3C13.41 6.37 12.07 6.9 11.83 6.9C11.74 6.9 7.10001 5.15 5.70001 4.58C5.47001 4.49 5.53001 4.45 6.40001 4.1C6.92001 3.89 7.39001 3.71 7.44001 3.71C7.49001 3.7 8.81001 4.27 10.39 4.97ZM11.5 11.43C11.5 14.58 11.47 15.41 11.38 15.38C11.3 15.35 11.24 15.12 11.22 14.81C11.19 14.36 11.16 14.28 10.94 14.2C10.8 14.14 10.56 14.1 10.41 14.1C10.21 14.1 10.1 14.03 10.02 13.85C9.86001 13.49 9.87001 13.43 10.15 13.06C10.29 12.88 10.4 12.67 10.4 12.59C10.4 12.4 9.49001 11.5 9.30001 11.5C9.22001 11.51 9.00001 11.64 8.81001 11.79C8.50001 12.06 8.46001 12.07 8.16001 11.95C7.89001 11.83 7.85001 11.77 7.82001 11.37C7.80001 11.12 7.73001 10.87 7.65001 10.8C7.44001 10.63 6.06001 10.71 6.03001 10.9C5.93001 11.72 5.88001 11.82 5.57001 11.95C5.29001 12.07 5.23001 12.06 5.08001 11.93C4.91001 11.78 4.90001 11.48 4.90001 8.35V4.93L8.20001 6.19L11.5 7.45V11.43ZM18.76 12.87C18.69 12.94 12.29 15.4 12.19 15.4C12.14 15.4 12.11 13.73 12.12 11.44L12.15 7.48L13.15 7.09C13.7 6.88 14.16 6.7 14.17 6.7C14.18 6.7 14.21 7.12 14.22 7.62C14.24 8.38 14.28 8.55 14.41 8.58C14.55 8.61 16.55 7.78 16.7 7.63C16.73 7.61 16.77 7.15 16.8 6.63L16.85 5.67L17.8 5.3L18.75 4.94L18.78 8.88C18.79 11.05 18.78 12.85 18.76 12.87ZM7.24001 11.8C7.30001 12.25 7.34001 12.3 7.63001 12.39C7.81001 12.44 8.09001 12.54 8.27001 12.61C8.56001 12.73 8.61001 12.71 8.95001 12.46L9.32001 12.17L9.53001 12.38L9.73001 12.59L9.47001 12.94C9.32001 13.13 9.20001 13.32 9.20001 13.37C9.20001 13.52 9.65001 14.55 9.75001 14.62C9.80001 14.66 10.02 14.7 10.23 14.7C10.59 14.7 10.6 14.71 10.6 15.04C10.6 15.38 10.59 15.39 10.13 15.42L9.66001 15.45L9.41001 16.09C9.26001 16.49 9.20001 16.78 9.26001 16.85C9.75001 17.51 9.75001 17.5 9.52001 17.72L9.31001 17.93L8.95001 17.62C8.75001 17.44 8.57001 17.3 8.55001 17.3C8.53001 17.3 8.31001 17.39 8.08001 17.49C7.84001 17.6 7.57001 17.71 7.48001 17.74C7.36001 17.77 7.29001 17.95 7.24001 18.3C7.18001 18.76 7.15001 18.8 6.90001 18.8C6.60001 18.8 6.50001 18.65 6.50001 18.2C6.50001 17.88 6.46001 17.84 5.73001 17.54L5.20001 17.32L4.83001 17.61L4.45001 17.89L4.23001 17.68L4.01001 17.48L4.32001 17.09L4.62001 16.71L4.40001 16.23C4.28001 15.97 4.15001 15.68 4.11001 15.6C4.06001 15.52 3.84001 15.43 3.59001 15.4C3.18001 15.35 3.15001 15.33 3.15001 15.05C3.15001 14.77 3.18001 14.75 3.57001 14.69C3.81001 14.66 4.03001 14.61 4.06001 14.57C4.12001 14.52 4.60001 13.4 4.60001 13.33C4.60001 13.32 4.47001 13.15 4.30001 12.97L4.01001 12.63L4.24001 12.41L4.47001 12.19L4.78001 12.45C5.15001 12.76 5.24001 12.76 5.94001 12.45C6.44001 12.23 6.50001 12.17 6.50001 11.91C6.50001 11.45 6.60001 11.3 6.90001 11.3C7.15001 11.3 7.18001 11.34 7.24001 11.8Z" fill="black"/>
<path d="M13.83 12.43C12.63 12.88 12.44 13 12.53 13.24C12.62 13.47 12.81 13.44 14.09 12.99C15.3 12.56 15.58 12.37 15.39 12.13C15.23 11.94 15.07 11.97 13.83 12.43Z" fill="black"/>
<path d="M13.83 13.54C12.63 13.98 12.44 14.1 12.53 14.34C12.62 14.58 12.84 14.54 14.1 14.09C15.29 13.66 15.58 13.47 15.39 13.23C15.23 13.04 15.09 13.07 13.83 13.54Z" fill="black"/>
<path d="M6.19999 13.68C5.67999 13.96 5.39999 14.43 5.39999 15.03C5.39999 16.98 8.18999 17.08 8.36999 15.13C8.40999 14.74 8.36999 14.58 8.17999 14.31C7.66999 13.57 6.86999 13.31 6.19999 13.68ZM7.50999 14.39C7.98999 14.87 7.88999 15.55 7.28999 15.86C6.33999 16.35 5.48999 15.09 6.28999 14.38C6.70999 14 7.11999 14.01 7.50999 14.39Z" fill="black"/>
</g>
<defs>
<clipPath id="clip0_3_19">
<rect width="20" height="20" fill="white"/>
</clipPath>
</defs>
</svg>
