<svg width="20" height="20" viewBox="0 0 20 20" fill="none" xmlns="http://www.w3.org/2000/svg">
<path d="M15.4297 3.30859C15.2734 3.35547 15.1953 3.42188 15.1445 3.53125C15.1055 3.61328 15.0391 4.26953 14.9375 5.55469L14.7891 7.45703L14.4375 7.68359C13.6719 8.16797 12.4102 8.94531 12.4023 8.9375C12.3984 8.92969 12.4766 7.79297 12.582 6.40625C12.6836 5.01953 12.7578 3.84766 12.7461 3.79688C12.7344 3.75 12.6719 3.66797 12.6094 3.61328C12.3633 3.40625 11.9883 3.55078 11.9375 3.87109C11.9258 3.94531 11.8281 5.23438 11.7188 6.73828C11.6094 8.23828 11.5156 9.47266 11.5117 9.47656C11.4766 9.50781 10.5039 10.0703 9.9375 10.3906L9.23828 10.7852L9.21094 9.91406C9.19531 9.43359 9.15234 7.86719 9.12109 6.43359C9.08203 4.70313 9.04688 3.79297 9.01953 3.73828C8.94531 3.58984 8.81641 3.51563 8.64062 3.51563C8.50391 3.51563 8.44922 3.53906 8.35547 3.62891C8.21875 3.76953 8.22266 3.48047 8.30078 6.88672C8.33203 8.28906 8.36328 9.83984 8.375 10.3398L8.39453 11.2422L7.56641 11.6758C6.76562 12.0898 5.85156 12.5391 5.80078 12.5391C5.77734 12.5391 5.78125 12.3945 5.85938 10.5273C5.92969 8.86328 6.07031 6.90625 6.22656 5.31641C6.25391 5.02734 6.26953 4.75781 6.25781 4.71094C6.23047 4.58984 6.05859 4.42188 5.93359 4.39453C5.80078 4.36328 5.58594 4.45703 5.51172 4.57813C5.36719 4.8125 5.04688 9.17188 4.97656 11.9102L4.94922 12.9375L4.61328 13.0937C4.10156 13.3281 2.89062 13.8047 2.33594 13.9844C1.77734 14.168 1.67969 14.2422 1.67969 14.4961C1.67969 14.6836 1.82812 14.8711 2.01172 14.9062C2.20312 14.9414 3.37891 14.5352 4.59375 14.0117L4.91016 13.875L4.92969 15.1406C4.94922 16.2422 4.96094 16.418 5.01953 16.5078C5.17969 16.75 5.55859 16.7539 5.70312 16.5117C5.77734 16.3945 5.78125 16.3047 5.78125 14.9375V13.4883L6.22266 13.2773C6.46094 13.1641 7.04688 12.8711 7.52344 12.6289L8.38672 12.1914L8.41016 13.3672C8.42578 14.0156 8.4375 14.9258 8.4375 15.3945C8.4375 16.2227 8.44141 16.25 8.52734 16.3477C8.6875 16.5352 9.00391 16.543 9.16406 16.3633C9.23438 16.2852 9.23828 16.1953 9.23828 14.0117V11.7422L9.49219 11.5977C9.63281 11.5195 10.1211 11.2422 10.582 10.9805C11.0391 10.7188 11.4219 10.5117 11.4297 10.5195C11.4375 10.5273 11.3555 11.707 11.25 13.1484C11.1406 14.5859 11.0547 15.8477 11.0547 15.9492C11.0547 16.1172 11.0742 16.1602 11.1914 16.2773C11.3164 16.4023 11.3477 16.4141 11.4883 16.3945C11.6719 16.3711 11.8203 16.25 11.8555 16.0977C11.875 16 12.3047 10.2852 12.3047 10.0781C12.3047 9.99219 12.4297 9.90234 13.3711 9.32812C13.9531 8.96875 14.4922 8.63672 14.5625 8.58984L14.6875 8.50781V8.66016C14.6836 8.74219 14.5742 10.1797 14.4375 11.8555C14.2695 13.957 14.2031 14.9414 14.2266 15.0312C14.3281 15.4102 14.9336 15.375 15.0195 14.9883C15.0273 14.9414 15.1523 13.4336 15.293 11.6406C15.4336 9.84766 15.5586 8.28125 15.5703 8.16016L15.5938 7.94141L16.8945 7.07422C17.6133 6.59766 18.2266 6.17188 18.2617 6.125C18.3594 5.98047 18.3359 5.76172 18.207 5.61719C18.1094 5.50781 18.0664 5.48828 17.9219 5.49219C17.7695 5.49219 17.6562 5.55859 16.7227 6.1875C16.1562 6.56641 15.6875 6.875 15.6836 6.86719C15.6758 6.85938 15.7305 6.14453 15.8008 5.27344C15.9062 3.94141 15.918 3.67188 15.875 3.56641C15.8086 3.39453 15.5781 3.25781 15.4297 3.30859Z" fill="black"/>
</svg>
