<svg width="14" height="16" viewBox="0 0 14 16" fill="none" xmlns="http://www.w3.org/2000/svg">
<path fill-rule="evenodd" clip-rule="evenodd" d="M6.07347 0C4.01762 0 2.35102 1.58262 2.35102 3.53488C2.35102 5.48715 4.01762 7.06977 6.07347 7.06977C8.12932 7.06977 9.79592 5.48715 9.79592 3.53488C9.79592 1.58262 8.12932 0 6.07347 0ZM3.52653 3.53488C3.52653 2.19913 4.66683 1.11628 6.07347 1.11628C7.4801 1.11628 8.62041 2.19913 8.62041 3.53488C8.62041 4.87064 7.4801 5.95349 6.07347 5.95349C4.66683 5.95349 3.52653 4.87064 3.52653 3.53488Z" fill="#1C274C"/>
<path d="M11.4459 11.4031C11.6789 11.6178 11.6845 11.9711 11.4584 12.1923L10.0218 13.598C9.90571 13.7116 9.74433 13.773 9.57779 13.767C9.41125 13.7611 9.25522 13.6882 9.14851 13.5667L8.49532 12.8225C8.28749 12.5857 8.32115 12.2337 8.57049 12.0364C8.81985 11.839 9.19047 11.871 9.3983 12.1078L9.63321 12.3754L10.6148 11.4149C10.8409 11.1937 11.213 11.1884 11.4459 11.4031Z" fill="#1C274C"/>
<path fill-rule="evenodd" clip-rule="evenodd" d="M7.57086 15.1504C7.09154 15.2193 6.5897 15.2558 6.07347 15.2558C4.4753 15.2558 2.99952 14.9055 1.90288 14.3104C0.822855 13.7243 0 12.8297 0 11.7209C0 10.6122 0.822855 9.71751 1.90288 9.13145C2.99952 8.53637 4.4753 8.18605 6.07347 8.18605C7.48759 8.18605 8.80264 8.46018 9.84431 8.93296C9.89325 8.93115 9.94243 8.93023 9.99184 8.93023C12.0477 8.93023 13.7143 10.5129 13.7143 12.4651C13.7143 14.4174 12.0477 16 9.99184 16C9.06744 16 8.22174 15.68 7.57086 15.1504ZM7.4449 12.4651C7.4449 11.1294 8.5852 10.0465 9.99184 10.0465C11.3985 10.0465 12.5388 11.1294 12.5388 12.4651C12.5388 13.8009 11.3985 14.8837 9.99184 14.8837C8.5852 14.8837 7.4449 13.8009 7.4449 12.4651ZM7.96805 9.4978C6.94567 10.1279 6.26939 11.2215 6.26939 12.4651C6.26939 13.0626 6.4255 13.6255 6.70112 14.119C6.4957 14.1325 6.28623 14.1395 6.07347 14.1395C4.64197 14.1395 3.37488 13.8235 2.48609 13.3412C1.58067 12.8499 1.17551 12.2562 1.17551 11.7209C1.17551 11.1857 1.58067 10.592 2.48609 10.1007C3.37488 9.61837 4.64197 9.30233 6.07347 9.30233C6.74829 9.30233 7.38747 9.3726 7.96805 9.4978Z" fill="#1C274C"/>
</svg>
