<svg width="14" height="14" viewBox="0 0 14 14" fill="none" xmlns="http://www.w3.org/2000/svg">
<path fill-rule="evenodd" clip-rule="evenodd" d="M9.303 0.729249L10.5303 0.729249C11.0544 0.729232 11.4915 0.729218 11.8384 0.775865C12.2047 0.825101 12.5353 0.933408 12.801 1.1991C13.0667 1.46479 13.175 1.79542 13.2242 2.16164C13.2709 2.50859 13.2708 2.94564 13.2708 3.46975V10.5304C13.2708 11.0545 13.2709 11.4916 13.2242 11.8385C13.175 12.2047 13.0667 12.5354 12.801 12.8011C12.5353 13.0668 12.2047 13.1751 11.8384 13.2243C11.4915 13.2709 11.0544 13.2709 10.5303 13.2709H9.303C8.77888 13.2709 8.34184 13.2709 7.99488 13.2243C7.62867 13.1751 7.29803 13.0668 7.03234 12.8011C6.76665 12.5354 6.65834 12.2047 6.60911 11.8385C6.56246 11.4916 6.56247 11.0545 6.56249 10.5304V3.46975C6.56247 2.94564 6.56246 2.50859 6.60911 2.16164C6.65834 1.79542 6.76665 1.46479 7.03234 1.1991C7.29803 0.933409 7.62867 0.825101 7.99488 0.775865C8.34184 0.729217 8.77888 0.729232 9.303 0.729249ZM7.43749 5.68758H8.74999C8.99162 5.68758 9.18749 5.49171 9.18749 5.25008C9.18749 5.00846 8.99162 4.81258 8.74999 4.81258H7.43749V3.93758L8.16666 3.93758C8.40828 3.93758 8.60416 3.74171 8.60416 3.50008C8.60416 3.25846 8.40828 3.06258 8.16666 3.06258L7.43855 3.06258C7.44102 2.73041 7.44921 2.47977 7.47631 2.27823C7.5125 2.00904 7.57504 1.89384 7.65106 1.81782C7.72708 1.7418 7.84229 1.67925 8.11147 1.64306C8.39324 1.60518 8.77099 1.60425 9.33333 1.60425L10.5 1.60425C11.0623 1.60425 11.4401 1.60518 11.7218 1.64306C11.991 1.67925 12.1062 1.7418 12.1823 1.81782C12.2583 1.89384 12.3208 2.00904 12.357 2.27823C12.3949 2.56 12.3958 2.93774 12.3958 3.50008V10.5001C12.3958 11.0624 12.3949 11.4402 12.357 11.7219C12.3208 11.9911 12.2583 12.1063 12.1823 12.1823C12.1062 12.2584 11.991 12.3209 11.7218 12.3571C11.4401 12.395 11.0623 12.3959 10.5 12.3959H9.33333C8.77099 12.3959 8.39324 12.395 8.11147 12.3571C7.84229 12.3209 7.72708 12.2584 7.65106 12.1823C7.57504 12.1063 7.5125 11.9911 7.47631 11.7219C7.44921 11.5204 7.44102 11.2698 7.43855 10.9376H8.16666C8.40828 10.9376 8.60416 10.7417 8.60416 10.5001C8.60416 10.2585 8.40828 10.0626 8.16666 10.0626H7.43749V9.18758H8.74999C8.99162 9.18758 9.18749 8.99171 9.18749 8.75008C9.18749 8.50846 8.99162 8.31258 8.74999 8.31258L7.43749 8.31258V7.43758H8.16666C8.40828 7.43758 8.60416 7.24171 8.60416 7.00008C8.60416 6.75846 8.40828 6.56258 8.16666 6.56258H7.43749V5.68758ZM0.729159 2.82925C0.729159 1.64858 1.72995 0.729249 2.91666 0.729249C4.10337 0.729249 5.10416 1.64858 5.10416 2.82925L5.10416 9.09118C5.10418 9.40801 5.1042 9.60711 5.07847 9.80484C5.04817 10.0377 4.99128 10.2665 4.90894 10.4872C4.83909 10.6744 4.74568 10.8518 4.59635 11.1355L3.72591 12.7893C3.56647 13.0923 3.24941 13.2709 2.91666 13.2709C2.58391 13.2709 2.26685 13.0923 2.1074 12.7893L1.23696 11.1355C1.08764 10.8518 0.994233 10.6744 0.924375 10.4872C0.842035 10.2665 0.785147 10.0377 0.754847 9.80484C0.729119 9.60711 0.729134 9.40801 0.729158 9.09118L0.729159 2.82925ZM2.91666 1.60425C2.17037 1.60425 1.60416 2.17358 1.60416 2.82925L1.60416 3.15298C1.66038 3.18637 1.73082 3.22457 1.81454 3.26313C2.06981 3.38071 2.44488 3.50008 2.91666 3.50008C3.38844 3.50008 3.76351 3.38071 4.01878 3.26313C4.10249 3.22457 4.17294 3.18637 4.22916 3.15298L4.22916 2.82925C4.22916 2.17358 3.66295 1.60425 2.91666 1.60425ZM4.22916 4.12485C3.89503 4.25874 3.45086 4.37508 2.91666 4.37508C2.38246 4.37508 1.93828 4.25874 1.60416 4.12485L1.60416 9.06146C1.60416 9.41738 1.605 9.55716 1.62253 9.69194C1.64421 9.85853 1.68495 10.0226 1.74416 10.1813C1.79217 10.31 1.85763 10.4361 2.02509 10.7542L2.59042 11.8284H3.24289L3.80823 10.7542C3.97569 10.4361 4.04114 10.31 4.08915 10.1813C4.14837 10.0226 4.18911 9.85853 4.21079 9.69194C4.22832 9.55716 4.22916 9.41738 4.22916 9.06146L4.22916 4.12485ZM1.44646 3.04709L1.44724 3.04774C1.44626 3.04695 1.44624 3.04691 1.44646 3.04709ZM4.38572 3.04801L4.38683 3.04711C4.38667 3.04724 4.3863 3.04754 4.38572 3.04801Z" fill="#1C274C"/>
</svg>
