<svg width="16" height="16" viewBox="0 0 16 16" fill="none" xmlns="http://www.w3.org/2000/svg">
<path fill-rule="evenodd" clip-rule="evenodd" d="M7.49221 1.86584C7.08285 1.91994 6.57736 2.03605 5.85828 2.20199L5.03949 2.39094C4.43214 2.5311 4.01389 2.62826 3.69442 2.73791C3.38601 2.84376 3.21152 2.94811 3.07986 3.07977C2.9482 3.21143 2.84385 3.38591 2.738 3.69433C2.62835 4.0138 2.53119 4.43205 2.39103 5.0394L2.20208 5.85819C2.03614 6.57727 1.92003 7.08276 1.86593 7.49212C1.81323 7.89093 1.82538 8.16076 1.89573 8.40606C1.96608 8.65136 2.09879 8.88662 2.35485 9.19688C2.61769 9.51534 2.98406 9.88246 3.50589 10.4043L4.72565 11.624C5.63197 12.5304 6.2769 13.1738 6.83135 13.5968C7.37426 14.0111 7.77126 14.1666 8.17489 14.1666C8.57852 14.1666 8.97552 14.0111 9.51844 13.5968C10.0729 13.1738 10.7178 12.5304 11.6241 11.624C12.5305 10.7177 13.1739 10.0728 13.5969 9.51834C14.0112 8.97543 14.1667 8.57843 14.1667 8.1748C14.1667 7.77117 14.0112 7.37417 13.5969 6.83126C13.1739 6.2768 12.5305 5.63188 11.6241 4.72555L10.4044 3.5058C9.88255 2.98397 9.51544 2.61759 9.19697 2.35476C8.88671 2.0987 8.65146 1.96599 8.40615 1.89564C8.16085 1.82529 7.89102 1.81313 7.49221 1.86584ZM7.3612 0.874458C7.83941 0.81126 8.25873 0.813044 8.68184 0.934389C9.10494 1.05573 9.46147 1.27646 9.8335 1.58351C10.1931 1.88032 10.5937 2.28086 11.094 2.78123L12.3579 4.04508C13.2316 4.91882 13.9234 5.61057 14.3919 6.22468C14.874 6.85654 15.1667 7.46461 15.1667 8.1748C15.1667 8.88499 14.874 9.49306 14.3919 10.1249C13.9234 10.739 13.2316 11.4308 12.3579 12.3045L12.3046 12.3578C11.4309 13.2315 10.7391 13.9233 10.125 14.3919C9.49315 14.874 8.88508 15.1666 8.17489 15.1666C7.46471 15.1666 6.85664 14.8739 6.22477 14.3919C5.61066 13.9233 4.9189 13.2315 4.04515 12.3578L2.78131 11.0939C2.28094 10.5936 1.88041 10.193 1.5836 9.83341C1.27655 9.46138 1.05582 9.10485 0.93448 8.68175C0.813135 8.25864 0.811352 7.83931 0.87455 7.3611C0.935643 6.89882 1.06301 6.3469 1.22214 5.6574L1.42258 4.78882C1.55536 4.21341 1.66363 3.74418 1.79215 3.36971C1.92638 2.97862 2.09543 2.64999 2.37275 2.37266C2.65008 2.09534 2.97872 1.92628 3.3698 1.79206C3.74427 1.66354 4.2135 1.55526 4.78891 1.42249L5.65749 1.22204C6.34699 1.06292 6.89891 0.935552 7.3612 0.874458ZM6.3273 5.33002C6.00187 5.00458 5.47423 5.00458 5.14879 5.33002C4.82335 5.65545 4.82335 6.18309 5.14879 6.50853C5.47423 6.83396 6.00187 6.83396 6.3273 6.50853C6.65274 6.18309 6.65274 5.65545 6.3273 5.33002ZM4.44168 4.62291C5.15765 3.90695 6.31845 3.90695 7.03441 4.62291C7.75037 5.33887 7.75037 6.49967 7.03441 7.21563C6.31845 7.93159 5.15765 7.93159 4.44168 7.21563C3.72572 6.49967 3.72572 5.33887 4.44168 4.62291ZM12.7007 7.3267C12.896 7.52196 12.896 7.83854 12.7007 8.03381L8.04807 12.6866C7.85281 12.8819 7.53623 12.8819 7.34096 12.6867C7.1457 12.4914 7.14569 12.1748 7.34095 11.9795L11.9936 7.32671C12.1889 7.13145 12.5055 7.13144 12.7007 7.3267Z" fill="#1C274C"/>
</svg>
