<svg width="13" height="13" viewBox="0 0 13 13" fill="none" xmlns="http://www.w3.org/2000/svg">
<path fill-rule="evenodd" clip-rule="evenodd" d="M5.76794 0.95965C5.41808 1.00589 4.98606 1.10512 4.3715 1.24694L3.67172 1.40843C3.15265 1.52822 2.79519 1.61126 2.52216 1.70496C2.25857 1.79543 2.10945 1.88461 1.99692 1.99714C1.8844 2.10966 1.79521 2.25878 1.70475 2.52237C1.61104 2.7954 1.528 3.15287 1.40822 3.67193L1.24673 4.37171C1.10491 4.98628 1.00567 5.4183 0.959436 5.76816C0.914392 6.109 0.924778 6.33961 0.984904 6.54926C1.04503 6.75891 1.15845 6.95997 1.37729 7.22513C1.60193 7.49731 1.91505 7.81106 2.36103 8.25705L3.4035 9.29951C4.17809 10.0741 4.72927 10.624 5.20314 10.9856C5.66714 11.3396 6.00644 11.4725 6.3514 11.4725C6.69636 11.4725 7.03566 11.3396 7.49966 10.9856C7.97352 10.624 8.52471 10.0741 9.2993 9.29951C10.0739 8.52492 10.6238 7.97374 10.9853 7.49987C11.3394 7.03587 11.4723 6.69657 11.4723 6.35161C11.4723 6.00665 11.3394 5.66735 10.9853 5.20335C10.6238 4.72949 10.0739 4.1783 9.2993 3.40371L8.25683 2.36124C7.81085 1.91526 7.49709 1.60214 7.22492 1.3775C6.95976 1.15866 6.75869 1.04524 6.54905 0.985117C6.3394 0.924991 6.10878 0.914606 5.76794 0.95965ZM5.65597 0.112365C6.06467 0.0583533 6.42305 0.0598775 6.78466 0.163585C7.14627 0.267292 7.45098 0.455939 7.76893 0.718353C8.07629 0.972026 8.41859 1.31433 8.84622 1.74197L9.92639 2.82214C10.6731 3.56888 11.2644 4.16009 11.6648 4.68494C12.0768 5.22496 12.3269 5.74465 12.3269 6.35161C12.3269 6.95857 12.0768 7.47826 11.6648 8.01829C11.2644 8.54313 10.6731 9.13435 9.92638 9.88109L9.88088 9.9266C9.13413 10.6734 8.54292 11.2646 8.01807 11.665C7.47805 12.077 6.95836 12.3271 6.3514 12.3271C5.74444 12.3271 5.22475 12.077 4.68472 11.665C4.15987 11.2646 3.56866 10.6733 2.82191 9.92659L1.74177 8.84645C1.31413 8.41881 0.971815 8.07651 0.71814 7.76914C0.455726 7.45119 0.267079 7.14648 0.163371 6.78487C0.0596639 6.42327 0.0581396 6.06489 0.112152 5.65619C0.164365 5.26109 0.273223 4.78939 0.409217 4.20011L0.580525 3.45777C0.694004 2.966 0.786541 2.56498 0.896382 2.24494C1.0111 1.91069 1.15558 1.62982 1.39259 1.39281C1.62961 1.15579 1.91048 1.01131 2.24472 0.896596C2.56476 0.786754 2.96579 0.694217 3.45756 0.580738L4.1999 0.409431C4.78918 0.273437 5.26088 0.164579 5.65597 0.112365ZM4.77234 3.92035C4.4942 3.64222 4.04326 3.64222 3.76512 3.92035C3.48699 4.19849 3.48699 4.64944 3.76512 4.92757C4.04326 5.20571 4.4942 5.20571 4.77234 4.92757C5.05047 4.64944 5.05047 4.19849 4.77234 3.92035ZM3.16079 3.31602C3.77269 2.70413 4.76477 2.70413 5.37667 3.31602C5.98857 3.92792 5.98857 4.92 5.37667 5.5319C4.76477 6.1438 3.77269 6.1438 3.16079 5.5319C2.5489 4.92 2.5489 3.92792 3.16079 3.31602ZM6.76766 6.26309C6.66687 6.26214 6.53438 6.30737 6.42077 6.42098C6.19997 6.64179 6.25804 6.86258 6.32005 6.92459C6.38206 6.9866 6.60285 7.04468 6.82366 6.82387C7.27038 6.37715 8.04166 6.22889 8.53592 6.72315C8.91936 7.10658 8.91611 7.65674 8.68681 8.09275C8.8014 8.25921 8.78468 8.48883 8.63665 8.63686C8.48912 8.78439 8.26057 8.8015 8.09424 8.68819C7.83393 8.82654 7.53778 8.87838 7.25543 8.82036C7.02426 8.77285 6.87537 8.54694 6.92287 8.31576C6.97038 8.08459 7.1963 7.9357 7.42747 7.9832C7.52841 8.00395 7.69114 7.97082 7.83087 7.83109C8.05168 7.61028 7.99361 7.38949 7.9316 7.32748C7.86959 7.26547 7.64879 7.2074 7.42799 7.4282C6.98127 7.87492 6.20998 8.02318 5.71572 7.52892C5.33229 7.14549 5.33554 6.59533 5.56484 6.15933C5.45025 5.99286 5.46697 5.76324 5.615 5.61521C5.76249 5.46772 5.99098 5.45058 6.15729 5.56381C6.35093 5.4609 6.5637 5.40648 6.77571 5.40847C7.01171 5.4107 7.20122 5.60382 7.19899 5.83981C7.19677 6.07581 7.00365 6.26531 6.76766 6.26309Z" fill="#1C274C"/>
</svg>
