<svg width="12" height="14" viewBox="0 0 12 14" fill="none" xmlns="http://www.w3.org/2000/svg">
<path fill-rule="evenodd" clip-rule="evenodd" d="M3.23663 1.90075C3.30685 1.24207 3.86434 0.729004 4.54167 0.729004H7.45833C8.13566 0.729004 8.69315 1.24207 8.76338 1.90075C9.20855 1.90981 9.59347 1.93284 9.92213 1.99321C10.3643 2.07443 10.7406 2.22915 11.0468 2.53536C11.3979 2.88648 11.5489 3.32857 11.6195 3.85364C11.6875 4.35937 11.6875 5.00239 11.6875 5.80015V9.36416C11.6875 10.1619 11.6875 10.8049 11.6195 11.3107C11.5489 11.8357 11.3979 12.2778 11.0468 12.629C10.6957 12.9801 10.2536 13.1311 9.72852 13.2017C9.22279 13.2697 8.57977 13.2697 7.78201 13.2697H4.21799C3.42023 13.2697 2.77721 13.2697 2.27148 13.2017C1.74642 13.1311 1.30432 12.9801 0.953205 12.629C0.602087 12.2778 0.451065 11.8357 0.380472 11.3107C0.312479 10.8049 0.312488 10.1619 0.3125 9.36417V5.80015C0.312488 5.00239 0.312479 4.35937 0.380472 3.85364C0.451065 3.32857 0.602087 2.88648 0.953205 2.53536C1.25941 2.22915 1.63571 2.07443 2.07787 1.99321C2.40653 1.93284 2.79145 1.90981 3.23663 1.90075ZM3.23778 2.776C2.8189 2.78495 2.4961 2.80602 2.23595 2.85381C1.90531 2.91454 1.71394 3.01206 1.57192 3.15408C1.41048 3.31552 1.30522 3.54219 1.24767 3.97023C1.18843 4.41085 1.1875 4.99483 1.1875 5.83216V9.33216C1.1875 10.1695 1.18843 10.7535 1.24767 11.1941C1.30522 11.6221 1.41048 11.8488 1.57192 12.0102C1.73337 12.1717 1.96003 12.2769 2.38807 12.3345C2.82869 12.3937 3.41267 12.3947 4.25 12.3947H7.75C8.58733 12.3947 9.17131 12.3937 9.61193 12.3345C10.04 12.2769 10.2666 12.1717 10.4281 12.0102C10.5895 11.8488 10.6948 11.6221 10.7523 11.1941C10.8116 10.7535 10.8125 10.1695 10.8125 9.33216V5.83216C10.8125 4.99483 10.8116 4.41085 10.7523 3.97023C10.6948 3.54219 10.5895 3.31552 10.4281 3.15408C10.2861 3.01206 10.0947 2.91454 9.76405 2.85381C9.5039 2.80602 9.1811 2.78495 8.76222 2.776C8.68726 3.42967 8.13209 3.93734 7.45833 3.93734H4.54167C3.86792 3.93734 3.31274 3.42967 3.23778 2.776ZM4.54167 1.604C4.30004 1.604 4.10417 1.79988 4.10417 2.0415V2.62484C4.10417 2.86646 4.30004 3.06234 4.54167 3.06234H7.45833C7.69996 3.06234 7.89583 2.86646 7.89583 2.62484V2.0415C7.89583 1.79988 7.69996 1.604 7.45833 1.604H4.54167ZM8.06984 6.11799C8.2347 6.29463 8.22516 6.57148 8.04851 6.73634L5.54851 9.06967C5.38042 9.22656 5.11958 9.22656 4.95149 9.06967L3.95149 8.13634C3.77485 7.97148 3.7653 7.69463 3.93016 7.51799C4.09503 7.34135 4.37187 7.3318 4.54851 7.49667L5.25 8.15139L7.45149 6.09667C7.62813 5.9318 7.90497 5.94135 8.06984 6.11799Z" fill="#1C274C"/>
</svg>
