<svg width="16" height="16" viewBox="0 0 16 16" fill="none" xmlns="http://www.w3.org/2000/svg">
<path fill-rule="evenodd" clip-rule="evenodd" d="M7.29755 0.833252H8.70247C9.45769 0.833236 10.0748 0.833223 10.5621 0.898731C11.0714 0.967205 11.5129 1.11539 11.8654 1.46785C12.2179 1.82032 12.3661 2.26188 12.4345 2.77118C12.4682 3.02165 12.4846 3.30645 12.4925 3.62668C13.198 3.74049 13.7762 3.96453 14.2392 4.42754C14.7381 4.92645 14.9595 5.55908 15.0646 6.3407C15.1667 7.10018 15.1667 8.0706 15.1667 9.29577V9.37099C15.1667 10.5962 15.1667 11.5666 15.0646 12.3261C14.9595 13.1077 14.7381 13.7403 14.2392 14.2392C13.7403 14.7381 13.1076 14.9595 12.326 15.0646C11.5665 15.1667 10.5961 15.1667 9.37095 15.1667H6.62907C5.4039 15.1667 4.43347 15.1667 3.674 15.0646C2.89238 14.9595 2.25975 14.7381 1.76084 14.2392C1.26193 13.7403 1.04052 13.1077 0.935434 12.3261C0.833325 11.5666 0.833333 10.5962 0.833344 9.37099V9.29577C0.833333 8.0706 0.833325 7.10018 0.935434 6.3407C1.04052 5.55908 1.26193 4.92645 1.76084 4.42754C2.22385 3.96453 2.80202 3.74049 3.50751 3.62668C3.51545 3.30645 3.53181 3.02165 3.56549 2.77118C3.63396 2.26188 3.78215 1.82032 4.13461 1.46785C4.48707 1.11539 4.92863 0.967205 5.43793 0.898731C5.92518 0.833223 6.54233 0.833236 7.29755 0.833252ZM3.50001 4.64401C3.01268 4.74184 2.70384 4.89875 2.46795 5.13465C2.18581 5.41679 2.01669 5.80322 1.92652 6.47395C1.83441 7.15906 1.83334 8.06217 1.83334 9.33338C1.83334 10.6046 1.83441 11.5077 1.92652 12.1928C2.01669 12.8635 2.18581 13.25 2.46795 13.5321C2.75009 13.8143 3.13652 13.9834 3.80724 14.0735C4.49235 14.1657 5.39546 14.1667 6.66668 14.1667H9.33334C10.6046 14.1667 11.5077 14.1657 12.1928 14.0735C12.8635 13.9834 13.2499 13.8143 13.5321 13.5321C13.8142 13.25 13.9833 12.8635 14.0735 12.1928C14.1656 11.5077 14.1667 10.6046 14.1667 9.33338C14.1667 8.06217 14.1656 7.15906 14.0735 6.47395C13.9833 5.80322 13.8142 5.41679 13.5321 5.13465C13.2962 4.89875 12.9873 4.74184 12.5 4.64401V5.41759C12.5 5.44834 12.5 5.47873 12.5001 5.50876C12.5006 6.0328 12.5011 6.44788 12.3269 6.8197C12.1528 7.19153 11.8336 7.45692 11.4307 7.79197C11.4076 7.81117 11.3842 7.8306 11.3606 7.85029L10.8558 8.27096C10.2649 8.7634 9.78594 9.16253 9.36323 9.4344C8.9229 9.7176 8.49406 9.8965 8.00001 9.8965C7.50596 9.8965 7.07713 9.7176 6.6368 9.4344C6.21409 9.16253 5.73516 8.76341 5.14426 8.27098L4.63943 7.85029C4.6158 7.8306 4.59244 7.81117 4.56935 7.79197C4.16641 7.45692 3.84725 7.19153 3.6731 6.8197C3.49894 6.44788 3.49939 6.0328 3.49995 5.50876C3.49998 5.47873 3.50001 5.44834 3.50001 5.41759L3.50001 4.64401ZM5.57118 1.88981C5.17277 1.94338 4.97741 2.03927 4.84172 2.17496C4.70603 2.31065 4.61014 2.50601 4.55657 2.90442C4.50107 3.31722 4.50001 3.86678 4.50001 4.66659V5.41759C4.50001 6.07846 4.51106 6.25116 4.57869 6.39555C4.64631 6.53994 4.77192 6.65899 5.27961 7.08207L5.75937 7.48186C6.38134 8.00017 6.81316 8.35886 7.17773 8.59334C7.53064 8.82031 7.76996 8.8965 8.00001 8.8965C8.23006 8.8965 8.46938 8.82031 8.82229 8.59334C9.18686 8.35886 9.61868 8.00017 10.2407 7.48186L10.7204 7.08207C11.2281 6.65899 11.3537 6.53994 11.4213 6.39555C11.489 6.25116 11.5 6.07846 11.5 5.41759V4.66659C11.5 3.86678 11.4989 3.31722 11.4435 2.90442C11.3899 2.50601 11.294 2.31065 11.1583 2.17496C11.0226 2.03927 10.8273 1.94338 10.4288 1.88981C10.016 1.83431 9.46649 1.83325 8.66668 1.83325H7.33334C6.53354 1.83325 5.98398 1.83431 5.57118 1.88981ZM6.16668 3.99992C6.16668 3.72378 6.39054 3.49992 6.66668 3.49992H9.33334C9.60949 3.49992 9.83334 3.72378 9.83334 3.99992C9.83334 4.27606 9.60949 4.49992 9.33334 4.49992H6.66668C6.39054 4.49992 6.16668 4.27606 6.16668 3.99992ZM6.83334 5.99992C6.83334 5.72378 7.0572 5.49992 7.33334 5.49992H8.66668C8.94282 5.49992 9.16668 5.72378 9.16668 5.99992C9.16668 6.27606 8.94282 6.49992 8.66668 6.49992H7.33334C7.0572 6.49992 6.83334 6.27606 6.83334 5.99992Z" fill="#1C274C"/>
</svg>
