<svg width="14" height="16" viewBox="0 0 14 16" fill="none" xmlns="http://www.w3.org/2000/svg">
<path fill-rule="evenodd" clip-rule="evenodd" d="M3.73249 0.833279C3.76453 0.833293 3.79703 0.833307 3.83003 0.833307H10.17C10.203 0.833307 10.2355 0.833293 10.2675 0.833279C10.9454 0.832982 11.4119 0.832778 11.8047 0.969483C12.5467 1.22766 13.1228 1.82476 13.3698 2.57698L12.8947 2.73295L13.3698 2.57698C13.5005 2.97506 13.5003 3.44828 13.5 4.15095C13.5 4.1824 13.5 4.2143 13.5 4.24668V13.5828C13.5 14.5596 12.3487 15.1411 11.5904 14.4472C11.5374 14.3988 11.4626 14.3988 11.4096 14.4472L11.0876 14.742C10.4688 15.3082 9.53126 15.3082 8.91247 14.742C8.67582 14.5254 8.32421 14.5254 8.08756 14.742C7.46877 15.3082 6.53126 15.3082 5.91247 14.742C5.67581 14.5254 5.32421 14.5254 5.08756 14.742C4.46877 15.3082 3.53126 15.3082 2.91247 14.742L2.59041 14.4472C2.53742 14.3988 2.46261 14.3988 2.40962 14.4472C1.65133 15.1411 0.500014 14.5596 0.500014 13.5828V4.24668C0.500014 4.2143 0.500003 4.1824 0.499991 4.15095C0.499737 3.44828 0.499566 2.97506 0.630267 2.57698C0.877241 1.82476 1.45332 1.22766 2.19529 0.969483C2.58817 0.832778 3.05466 0.832982 3.73249 0.833279ZM3.83003 1.83331C3.01597 1.83331 2.73557 1.8403 2.52392 1.91394C2.08434 2.0669 1.73276 2.42477 1.58037 2.88892C1.50631 3.11447 1.50001 3.4119 1.50001 4.24668V13.5828C1.50001 13.6622 1.53996 13.7107 1.59008 13.7338C1.61619 13.7459 1.64173 13.749 1.66301 13.7462C1.68177 13.7437 1.70604 13.7356 1.73454 13.7095C2.16965 13.3113 2.83037 13.3113 3.26549 13.7095L3.58756 14.0042C3.82421 14.2208 4.17581 14.2208 4.41247 14.0042C5.03126 13.438 5.96877 13.438 6.58756 14.0042C6.82421 14.2208 7.17582 14.2208 7.41247 14.0042C8.03126 13.438 8.96877 13.438 9.58756 14.0042C9.82421 14.2208 10.1758 14.2208 10.4125 14.0042L10.7345 13.7095C11.1697 13.3113 11.8304 13.3113 12.2655 13.7095C12.294 13.7356 12.3183 13.7437 12.337 13.7462C12.3583 13.749 12.3838 13.7459 12.4099 13.7338C12.4601 13.7107 12.5 13.6622 12.5 13.5828V4.24668C12.5 3.4119 12.4937 3.11447 12.4197 2.88892C12.2673 2.42477 11.9157 2.0669 11.4761 1.91394C11.2645 1.8403 10.9841 1.83331 10.17 1.83331H3.83003ZM3.16668 4.99997C3.16668 4.72383 3.39054 4.49997 3.66668 4.49997H4.00001C4.27616 4.49997 4.50001 4.72383 4.50001 4.99997C4.50001 5.27612 4.27616 5.49997 4.00001 5.49997H3.66668C3.39054 5.49997 3.16668 5.27612 3.16668 4.99997ZM5.50001 4.99997C5.50001 4.72383 5.72387 4.49997 6.00001 4.49997H10.3333C10.6095 4.49997 10.8333 4.72383 10.8333 4.99997C10.8333 5.27612 10.6095 5.49997 10.3333 5.49997H6.00001C5.72387 5.49997 5.50001 5.27612 5.50001 4.99997ZM3.16668 7.33331C3.16668 7.05717 3.39054 6.83331 3.66668 6.83331H4.00001C4.27616 6.83331 4.50001 7.05717 4.50001 7.33331C4.50001 7.60945 4.27616 7.83331 4.00001 7.83331H3.66668C3.39054 7.83331 3.16668 7.60945 3.16668 7.33331ZM5.50001 7.33331C5.50001 7.05717 5.72387 6.83331 6.00001 6.83331H10.3333C10.6095 6.83331 10.8333 7.05717 10.8333 7.33331C10.8333 7.60945 10.6095 7.83331 10.3333 7.83331H6.00001C5.72387 7.83331 5.50001 7.60945 5.50001 7.33331ZM3.16668 9.66664C3.16668 9.3905 3.39054 9.16664 3.66668 9.16664H4.00001C4.27616 9.16664 4.50001 9.3905 4.50001 9.66664C4.50001 9.94278 4.27616 10.1666 4.00001 10.1666H3.66668C3.39054 10.1666 3.16668 9.94278 3.16668 9.66664ZM5.50001 9.66664C5.50001 9.3905 5.72387 9.16664 6.00001 9.16664H10.3333C10.6095 9.16664 10.8333 9.3905 10.8333 9.66664C10.8333 9.94278 10.6095 10.1666 10.3333 10.1666H6.00001C5.72387 10.1666 5.50001 9.94278 5.50001 9.66664Z" fill="#1C274C"/>
</svg>
