<svg width="18" height="20" viewBox="0 0 18 20" fill="none" xmlns="http://www.w3.org/2000/svg">
<path d="M6.5 0C5.67157 0 5 0.671573 5 1.5V2.5C5 3.32843 5.67157 4 6.5 4H11.5C12.3284 4 13 3.32843 13 2.5V1.5C13 0.671573 12.3284 0 11.5 0H6.5Z" fill="#FAFAFA"/>
<path fill-rule="evenodd" clip-rule="evenodd" d="M3.5 2.03662C2.24209 2.10719 1.44798 2.30764 0.87868 2.87694C0 3.75562 0 5.16983 0 7.99826V13.9983C0 16.8267 0 18.2409 0.87868 19.1196C1.75736 19.9983 3.17157 19.9983 6 19.9983H12C14.8284 19.9983 16.2426 19.9983 17.1213 19.1196C18 18.2409 18 16.8267 18 13.9983V7.99826C18 5.16983 18 3.75562 17.1213 2.87694C16.552 2.30764 15.7579 2.10719 14.5 2.03662V2.5C14.5 4.15685 13.1569 5.5 11.5 5.5H6.5C4.84315 5.5 3.5 4.15685 3.5 2.5V2.03662ZM4 7.75C3.58579 7.75 3.25 8.08579 3.25 8.5C3.25 8.91421 3.58579 9.25 4 9.25H4.5C4.91421 9.25 5.25 8.91421 5.25 8.5C5.25 8.08579 4.91421 7.75 4.5 7.75H4ZM7.5 7.75C7.08579 7.75 6.75 8.08579 6.75 8.5C6.75 8.91421 7.08579 9.25 7.5 9.25H14C14.4142 9.25 14.75 8.91421 14.75 8.5C14.75 8.08579 14.4142 7.75 14 7.75H7.5ZM4 11.25C3.58579 11.25 3.25 11.5858 3.25 12C3.25 12.4142 3.58579 12.75 4 12.75H4.5C4.91421 12.75 5.25 12.4142 5.25 12C5.25 11.5858 4.91421 11.25 4.5 11.25H4ZM7.5 11.25C7.08579 11.25 6.75 11.5858 6.75 12C6.75 12.4142 7.08579 12.75 7.5 12.75H14C14.4142 12.75 14.75 12.4142 14.75 12C14.75 11.5858 14.4142 11.25 14 11.25H7.5ZM4 14.75C3.58579 14.75 3.25 15.0858 3.25 15.5C3.25 15.9142 3.58579 16.25 4 16.25H4.5C4.91421 16.25 5.25 15.9142 5.25 15.5C5.25 15.0858 4.91421 14.75 4.5 14.75H4ZM7.5 14.75C7.08579 14.75 6.75 15.0858 6.75 15.5C6.75 15.9142 7.08579 16.25 7.5 16.25H14C14.4142 16.25 14.75 15.9142 14.75 15.5C14.75 15.0858 14.4142 14.75 14 14.75H7.5Z" fill="#FAFAFA"/>
</svg>
