<svg width="12" height="14" viewBox="0 0 12 14" fill="none" xmlns="http://www.w3.org/2000/svg">
<path fill-rule="evenodd" clip-rule="evenodd" d="M3.23652 1.90201C3.30628 1.24284 3.864 0.729248 4.54167 0.729248H7.45833C8.13601 0.729248 8.69372 1.24284 8.76348 1.90201C9.20861 1.91108 9.59349 1.9341 9.92213 1.99447C10.3643 2.07569 10.7406 2.23041 11.0468 2.53662C11.3979 2.88774 11.5489 3.32983 11.6195 3.85489C11.6875 4.36062 11.6875 5.00365 11.6875 5.80141V9.36542C11.6875 10.1632 11.6875 10.8062 11.6195 11.3119C11.5489 11.837 11.3979 12.2791 11.0468 12.6302C10.6957 12.9813 10.2536 13.1324 9.72852 13.2029C9.22279 13.2709 8.57977 13.2709 7.78201 13.2709H4.21799C3.42023 13.2709 2.77721 13.2709 2.27148 13.2029C1.74642 13.1324 1.30432 12.9813 0.953205 12.6302C0.602087 12.2791 0.451065 11.837 0.380472 11.3119C0.312479 10.8062 0.312488 10.1632 0.3125 9.36543V5.8014C0.312488 5.00364 0.312479 4.36062 0.380472 3.85489C0.451065 3.32983 0.602087 2.88774 0.953205 2.53662C1.25941 2.23041 1.63571 2.07569 2.07787 1.99447C2.40651 1.9341 2.79139 1.91108 3.23652 1.90201ZM3.2379 2.77725C2.81896 2.7862 2.49613 2.80728 2.23595 2.85507C1.90531 2.9158 1.71394 3.01332 1.57192 3.15534C1.41048 3.31678 1.30522 3.54345 1.24767 3.97149C1.18843 4.41211 1.1875 4.99609 1.1875 5.83342V9.33342C1.1875 10.1707 1.18843 10.7547 1.24767 11.1953C1.30522 11.6234 1.41048 11.85 1.57192 12.0115C1.73337 12.1729 1.96003 12.2782 2.38807 12.3357C2.82869 12.395 3.41267 12.3959 4.25 12.3959H7.75C8.58733 12.3959 9.17131 12.395 9.61193 12.3357C10.04 12.2782 10.2666 12.1729 10.4281 12.0115C10.5895 11.85 10.6948 11.6234 10.7523 11.1953C10.8116 10.7547 10.8125 10.1707 10.8125 9.33342V5.83342C10.8125 4.99609 10.8116 4.41211 10.7523 3.97149C10.6948 3.54345 10.5895 3.31678 10.4281 3.15534C10.2861 3.01332 10.0947 2.9158 9.76405 2.85507C9.50387 2.80728 9.18104 2.7862 8.76211 2.77725C8.68669 3.43044 8.13174 3.93758 7.45833 3.93758H4.54167C3.86826 3.93758 3.31331 3.43044 3.2379 2.77725ZM4.54167 1.60425C4.30004 1.60425 4.10417 1.80012 4.10417 2.04175V2.62508C4.10417 2.86671 4.30004 3.06258 4.54167 3.06258H7.45833C7.69996 3.06258 7.89583 2.86671 7.89583 2.62508V2.04175C7.89583 1.80012 7.69996 1.60425 7.45833 1.60425H4.54167ZM2.64583 6.12508C2.64583 5.88346 2.84171 5.68758 3.08333 5.68758H3.375C3.61663 5.68758 3.8125 5.88346 3.8125 6.12508C3.8125 6.36671 3.61663 6.56258 3.375 6.56258H3.08333C2.84171 6.56258 2.64583 6.36671 2.64583 6.12508ZM4.6875 6.12508C4.6875 5.88346 4.88338 5.68758 5.125 5.68758H8.91667C9.15829 5.68758 9.35417 5.88346 9.35417 6.12508C9.35417 6.36671 9.15829 6.56258 8.91667 6.56258H5.125C4.88338 6.56258 4.6875 6.36671 4.6875 6.12508ZM2.64583 8.16675C2.64583 7.92512 2.84171 7.72925 3.08333 7.72925H3.375C3.61663 7.72925 3.8125 7.92512 3.8125 8.16675C3.8125 8.40837 3.61663 8.60425 3.375 8.60425H3.08333C2.84171 8.60425 2.64583 8.40837 2.64583 8.16675ZM4.6875 8.16675C4.6875 7.92512 4.88338 7.72925 5.125 7.72925H8.91667C9.15829 7.72925 9.35417 7.92512 9.35417 8.16675C9.35417 8.40837 9.15829 8.60425 8.91667 8.60425H5.125C4.88338 8.60425 4.6875 8.40837 4.6875 8.16675ZM2.64583 10.2084C2.64583 9.96679 2.84171 9.77092 3.08333 9.77092H3.375C3.61663 9.77092 3.8125 9.96679 3.8125 10.2084C3.8125 10.45 3.61663 10.6459 3.375 10.6459H3.08333C2.84171 10.6459 2.64583 10.45 2.64583 10.2084ZM4.6875 10.2084C4.6875 9.96679 4.88338 9.77092 5.125 9.77092H8.91667C9.15829 9.77092 9.35417 9.96679 9.35417 10.2084C9.35417 10.45 9.15829 10.6459 8.91667 10.6459H5.125C4.88338 10.6459 4.6875 10.45 4.6875 10.2084Z" fill="#1C274C"/>
</svg>
