<svg width="23" height="23" viewBox="0 0 23 23" fill="none" xmlns="http://www.w3.org/2000/svg">
<path fill-rule="evenodd" clip-rule="evenodd" d="M16.8488 1.60465C15.5195 1.60465 14.4419 2.68229 14.4419 4.01163C14.4419 5.34096 15.5195 6.4186 16.8488 6.4186C18.1782 6.4186 19.2558 5.34096 19.2558 4.01163C19.2558 2.68229 18.1782 1.60465 16.8488 1.60465ZM12.8372 4.01163C12.8372 1.79607 14.6333 0 16.8488 0C19.0644 0 20.8605 1.79607 20.8605 4.01163C20.8605 5.95242 19.4823 7.57132 17.6512 7.94301V8.56964C18.3157 8.5836 18.8993 8.61448 19.4075 8.68279C20.3704 8.81225 21.1811 9.08921 21.825 9.73312C22.4689 10.377 22.7459 11.1878 22.8753 12.1507C23 13.0781 23 14.2574 23 15.7204V15.8378C23 17.3008 23 18.48 22.8753 19.4075C22.7459 20.3704 22.4689 21.1811 21.825 21.825C21.1811 22.4689 20.3704 22.7459 19.4075 22.8753C18.48 23 17.3008 23 15.8378 23H7.16223C5.69923 23 4.52 23 3.59255 22.8753C2.62964 22.7459 1.81889 22.4689 1.17498 21.825C0.531069 21.1811 0.254113 20.3704 0.124654 19.4075C-3.91346e-05 18.48 -2.14111e-05 17.3008 5.87131e-07 15.8378V15.7204C-2.15387e-05 14.2574 -3.93259e-05 13.0781 0.124653 12.1507C0.254113 11.1878 0.531069 10.377 1.17498 9.73312C1.81889 9.08921 2.62964 8.81225 3.59255 8.68279C4.52 8.5581 5.69923 8.55812 7.16223 8.55814H15.8378C15.908 8.55814 15.9776 8.55814 16.0465 8.55815V7.94301C14.2154 7.57132 12.8372 5.95242 12.8372 4.01163ZM16.0465 10.1628C15.959 10.1628 15.8698 10.1628 15.7791 10.1628H7.22093C5.68537 10.1628 4.61441 10.1645 3.80636 10.2731C3.64844 10.2944 3.50547 10.3191 3.37541 10.3476L11.8778 15.0711C11.8862 15.0756 11.8946 15.0802 11.9028 15.085L21.0432 20.163C21.1496 19.918 21.2294 19.607 21.285 19.1936C21.3936 18.3856 21.3953 17.3146 21.3953 15.7791C21.3953 14.2435 21.3936 13.1725 21.285 12.3645C21.1795 11.5795 20.9864 11.1638 20.6904 10.8678C20.3943 10.5717 19.9786 10.3787 19.1936 10.2731C18.7639 10.2154 18.2599 10.1878 17.6512 10.1747V12.5698C17.6512 13.0129 17.2919 13.3721 16.8488 13.3721C16.4057 13.3721 16.0465 13.0129 16.0465 12.5698V10.1628ZM19.6246 21.2106L11.5114 16.7032L3.73846 21.2755C3.76078 21.2788 3.78342 21.2819 3.80636 21.285C4.61441 21.3936 5.68537 21.3953 7.22093 21.3953H15.7791C17.3146 21.3953 18.3856 21.3936 19.1936 21.285C19.3516 21.2638 19.4945 21.239 19.6246 21.2106ZM2.07509 20.3923L9.88373 15.799L1.9568 11.3951C1.85042 11.6401 1.77057 11.9511 1.715 12.3645C1.60636 13.1726 1.60465 14.2435 1.60465 15.7791C1.60465 17.3146 1.60636 18.3856 1.715 19.1936C1.78954 19.7481 1.90775 20.1183 2.07509 20.3923Z" fill="#1C274C"/>
</svg>
