<svg width="16" height="16" viewBox="0 0 16 16" fill="none" xmlns="http://www.w3.org/2000/svg">
<path fill-rule="evenodd" clip-rule="evenodd" d="M7.96191 0.833252L9.00016 0.833252C9.27631 0.833252 9.50016 1.05711 9.50016 1.33325C9.50016 1.60939 9.27631 1.83325 9.00016 1.83325H8.00016C6.41468 1.83325 5.27587 1.83431 4.40921 1.95083C3.55695 2.06542 3.04313 2.28335 2.66336 2.66312C2.28359 3.04289 2.06566 3.5567 1.95108 4.40897C1.83456 5.27562 1.8335 6.41443 1.8335 7.99992C1.8335 9.5854 1.83456 10.7242 1.95108 11.5909C2.06566 12.4431 2.28359 12.9569 2.66336 13.3367C3.04313 13.7165 3.55695 13.9344 4.40921 14.049C5.27587 14.1655 6.41468 14.1666 8.00016 14.1666C9.58565 14.1666 10.7245 14.1655 11.5911 14.049C12.4434 13.9344 12.9572 13.7165 13.337 13.3367C13.7167 12.9569 13.9347 12.4431 14.0492 11.5909C14.1658 10.7242 14.1668 9.5854 14.1668 7.99992V6.99992C14.1668 6.72378 14.3907 6.49992 14.6668 6.49992C14.943 6.49992 15.1668 6.72378 15.1668 6.99992V8.03817C15.1668 9.5771 15.1668 10.7831 15.0403 11.7241C14.9108 12.6873 14.6406 13.4473 14.0441 14.0438C13.4475 14.6404 12.6875 14.9106 11.7244 15.0401C10.7834 15.1666 9.57734 15.1666 8.03841 15.1666H7.96192C6.42298 15.1666 5.21696 15.1666 4.27597 15.0401C3.31281 14.9106 2.55279 14.6404 1.95625 14.0438C1.35971 13.4473 1.08949 12.6873 0.959994 11.7241C0.833481 10.7831 0.833488 9.5771 0.833496 8.03817V7.96167C0.833488 6.42274 0.833481 5.21671 0.959994 4.27572C1.08949 3.31257 1.35971 2.55255 1.95625 1.95601C2.55279 1.35947 3.31281 1.08924 4.27597 0.95975C5.21696 0.833237 6.42298 0.833244 7.96191 0.833252ZM11.1805 1.5172C12.0924 0.605271 13.571 0.605271 14.4829 1.5172C15.3948 2.42912 15.3948 3.90764 14.4829 4.81956L10.0508 9.25163C9.8033 9.49919 9.64825 9.65426 9.47522 9.78922C9.27142 9.94818 9.05091 10.0845 8.81759 10.1957C8.6195 10.2901 8.41146 10.3594 8.07935 10.4701L6.143 11.1155C5.78551 11.2347 5.39137 11.1416 5.1249 10.8752C4.85844 10.6087 4.7654 10.2146 4.88456 9.85708L5.53001 7.92074C5.64069 7.58862 5.71002 7.38058 5.80443 7.18249C5.91562 6.94917 6.0519 6.72866 6.21086 6.52486C6.34582 6.35183 6.5009 6.19678 6.74846 5.94925L11.1805 1.5172ZM13.7758 2.2243C13.2544 1.7029 12.409 1.7029 11.8876 2.2243L11.6365 2.47538C11.6517 2.53929 11.6729 2.61543 11.7023 2.70036C11.7979 2.97573 11.9786 3.33839 12.3202 3.67991C12.6617 4.02143 13.0243 4.20223 13.2997 4.29777C13.3847 4.32723 13.4608 4.3484 13.5247 4.36354L13.7758 4.11246C14.2972 3.59106 14.2972 2.7457 13.7758 2.2243ZM12.7369 5.15131C12.3929 5.00338 11.9923 4.76622 11.6131 4.38702C11.2339 4.00782 10.9967 3.60713 10.8488 3.26316L7.4785 6.63342C7.20083 6.9111 7.09193 7.02122 6.99937 7.13988C6.88508 7.28641 6.7871 7.44495 6.70715 7.61271C6.64241 7.74856 6.59261 7.89521 6.46843 8.26775L6.1805 9.13154L6.86854 9.81958L7.73233 9.53165C8.10487 9.40747 8.25152 9.35767 8.38738 9.29293C8.55513 9.21298 8.71367 9.115 8.8602 9.00071C8.97886 8.90815 9.08898 8.79926 9.36666 8.52158L12.7369 5.15131Z" fill="#808080"/>
</svg>
