<svg width="12" height="14" viewBox="0 0 12 14" fill="none" xmlns="http://www.w3.org/2000/svg">
<path d="M7.78468 6.1248C7.94561 5.94456 7.92995 5.66799 7.74971 5.50707C7.56948 5.34614 7.29291 5.3618 7.13199 5.54203L5.375 7.50986L4.86801 6.94203C4.70709 6.7618 4.43052 6.74614 4.25028 6.90707C4.07005 7.06799 4.05439 7.34456 4.21532 7.5248L5.04865 8.45813C5.13166 8.5511 5.25037 8.60425 5.375 8.60425C5.49963 8.60425 5.61834 8.5511 5.70135 8.45813L7.78468 6.1248Z" fill="#1C274C"/>
<path fill-rule="evenodd" clip-rule="evenodd" d="M6 0.729248C5.45311 0.729248 4.93094 0.908088 4.08864 1.19657L3.6643 1.34183C2.80019 1.63761 2.13332 1.86589 1.65593 2.05982C1.41546 2.15752 1.20871 2.25214 1.04224 2.34882C0.882033 2.44186 0.721313 2.5579 0.612119 2.71348C0.504186 2.86726 0.448378 3.05631 0.413308 3.23829C0.376849 3.42749 0.354864 3.65445 0.340674 3.91504C0.3125 4.43246 0.3125 5.1413 0.3125 6.0607V6.99504C0.3125 10.554 3.00052 12.2603 4.59903 12.9586L4.61484 12.9655C4.81305 13.0521 4.99936 13.1335 5.21344 13.1883C5.43946 13.2462 5.6796 13.2709 6 13.2709C6.3204 13.2709 6.56054 13.2462 6.78656 13.1883C7.00063 13.1335 7.18694 13.0521 7.38515 12.9655L7.40097 12.9586C8.99948 12.2603 11.6875 10.554 11.6875 6.99504V6.06081C11.6875 5.14135 11.6875 4.43248 11.6593 3.91504C11.6451 3.65445 11.6232 3.42749 11.5867 3.23829C11.5516 3.05631 11.4958 2.86726 11.3879 2.71348C11.2787 2.5579 11.118 2.44186 10.9578 2.34882C10.7913 2.25214 10.5845 2.15752 10.3441 2.05982C9.86668 1.86589 9.1998 1.63761 8.33569 1.34183L7.91136 1.19657C7.06906 0.908088 6.54689 0.729248 6 0.729248ZM4.29703 2.05009C5.23884 1.7277 5.61632 1.60425 6 1.60425C6.38368 1.60425 6.76116 1.7277 7.70298 2.05009L8.03712 2.16447C8.91946 2.4665 9.56294 2.68694 10.0147 2.87048C10.2402 2.9621 10.4036 3.03887 10.5183 3.10547C10.575 3.13836 10.614 3.16549 10.64 3.18667C10.6621 3.20462 10.6705 3.21478 10.6717 3.21628C10.6729 3.2181 10.6801 3.23021 10.6903 3.25889C10.702 3.29163 10.7149 3.33855 10.7275 3.40386C10.753 3.53607 10.7723 3.71767 10.7856 3.96262C10.8123 4.45331 10.8125 5.13828 10.8125 6.07646V6.99504C10.8125 10.0138 8.55506 11.4996 7.05071 12.1567C6.83401 12.2514 6.70887 12.305 6.56957 12.3406C6.43652 12.3747 6.27417 12.3959 6 12.3959C5.72583 12.3959 5.56348 12.3747 5.43043 12.3406C5.29113 12.305 5.16599 12.2514 4.94929 12.1567C3.44494 11.4996 1.1875 10.0138 1.1875 6.99504V6.07646C1.1875 5.13828 1.18766 4.45331 1.21438 3.96262C1.22772 3.71767 1.24702 3.53607 1.2725 3.40386C1.28509 3.33855 1.29801 3.29163 1.30967 3.25889C1.31988 3.23023 1.32713 3.21811 1.32825 3.21628C1.32946 3.2148 1.33788 3.20463 1.35997 3.18667C1.38603 3.16549 1.42505 3.13836 1.48167 3.10547C1.59636 3.03887 1.75975 2.9621 1.98526 2.87048C2.43706 2.68694 3.08054 2.4665 3.96288 2.16447L4.29703 2.05009Z" fill="#1C274C"/>
</svg>
