<svg width="14" height="15" viewBox="0 0 14 15" fill="none" xmlns="http://www.w3.org/2000/svg">
<path d="M6.99994 1.83325C6.34761 1.83325 5.79132 2.24994 5.58516 2.83321C5.49314 3.09357 5.20748 3.23003 4.94712 3.13801C4.68676 3.04598 4.5503 2.76032 4.64232 2.49996C4.98528 1.52964 5.91064 0.833252 6.99994 0.833252C8.08924 0.833252 9.0146 1.52964 9.35756 2.49996C9.44958 2.76032 9.31312 3.04598 9.05276 3.13801C8.7924 3.23003 8.50674 3.09357 8.41472 2.83321C8.20856 2.24994 7.65227 1.83325 6.99994 1.83325Z" fill="#FF5050"/>
<path d="M0.833252 3.99992C0.833252 3.72378 1.05711 3.49992 1.33325 3.49992H12.6666C12.9428 3.49992 13.1666 3.72378 13.1666 3.99992C13.1666 4.27606 12.9428 4.49992 12.6666 4.49992H1.33325C1.05711 4.49992 0.833252 4.27606 0.833252 3.99992Z" fill="#FF5050"/>
<path d="M2.94331 5.63332C2.92494 5.35779 2.68669 5.14932 2.41116 5.16769C2.13563 5.18606 1.92715 5.42431 1.94552 5.69984L2.25449 10.3343C2.31149 11.1895 2.35753 11.8803 2.46551 12.4223C2.57777 12.9858 2.76872 13.4566 3.16312 13.8255C3.55751 14.1945 4.03988 14.3537 4.60965 14.4283C5.15767 14.4999 5.84997 14.4999 6.70703 14.4999H7.29292C8.14997 14.4999 8.84227 14.4999 9.3903 14.4283C9.96006 14.3537 10.4424 14.1945 10.8368 13.8255C11.2312 13.4566 11.4222 12.9858 11.5344 12.4223C11.6424 11.8803 11.6885 11.1895 11.7455 10.3343L12.0544 5.69984C12.0728 5.42431 11.8643 5.18606 11.5888 5.16769C11.3133 5.14932 11.075 5.35779 11.0566 5.63332L10.75 10.2327C10.6901 11.1313 10.6474 11.7565 10.5537 12.2269C10.4628 12.6832 10.3359 12.9248 10.1536 13.0953C9.97137 13.2658 9.72193 13.3764 9.26059 13.4367C8.78499 13.4989 8.15832 13.4999 7.25776 13.4999H6.74218C5.84162 13.4999 5.21495 13.4989 4.73935 13.4367C4.27802 13.3764 4.02858 13.2658 3.8463 13.0953C3.66403 12.9248 3.53714 12.6832 3.44624 12.2269C3.35253 11.7565 3.30984 11.1313 3.24994 10.2327L2.94331 5.63332Z" fill="#FF5050"/>
<path d="M5.28356 6.83573C5.55833 6.80826 5.80335 7.00873 5.83083 7.2835L6.16416 10.6168C6.19164 10.8916 5.99117 11.1366 5.7164 11.1641C5.44162 11.1916 5.1966 10.9911 5.16912 10.7163L4.83579 7.383C4.80831 7.10823 5.00879 6.86321 5.28356 6.83573Z" fill="#FF5050"/>
<path d="M9.16416 7.383C9.19164 7.10823 8.99117 6.86321 8.7164 6.83573C8.44162 6.80826 8.1966 7.00873 8.16912 7.2835L7.83579 10.6168C7.80831 10.8916 8.00879 11.1366 8.28356 11.1641C8.55833 11.1916 8.80335 10.9911 8.83083 10.7163L9.16416 7.383Z" fill="#FF5050"/>
</svg>
