<svg width="13" height="13" viewBox="0 0 13 13" fill="none" xmlns="http://www.w3.org/2000/svg">
<path fill-rule="evenodd" clip-rule="evenodd" d="M5.76816 0.95965C5.4183 1.00589 4.98628 1.10512 4.37171 1.24694L3.67193 1.40843C3.15287 1.52822 2.7954 1.61126 2.52237 1.70496C2.25878 1.79543 2.10966 1.88461 1.99714 1.99714C1.88461 2.10966 1.79543 2.25878 1.70496 2.52237C1.61126 2.7954 1.52821 3.15287 1.40843 3.67193L1.24694 4.37171C1.10512 4.98628 1.00589 5.4183 0.95965 5.76816C0.914606 6.109 0.924991 6.33961 0.985117 6.54926C1.04524 6.75891 1.15866 6.95997 1.3775 7.22513C1.60214 7.49731 1.91526 7.81106 2.36124 8.25705L3.40371 9.29951C4.1783 10.0741 4.72949 10.624 5.20335 10.9856C5.66735 11.3396 6.00665 11.4725 6.35161 11.4725C6.69657 11.4725 7.03587 11.3396 7.49987 10.9856C7.97374 10.624 8.52492 10.0741 9.29951 9.29951C10.0741 8.52492 10.624 7.97374 10.9856 7.49987C11.3396 7.03587 11.4725 6.69657 11.4725 6.35161C11.4725 6.00665 11.3396 5.66735 10.9856 5.20335C10.624 4.72949 10.0741 4.1783 9.29951 3.40371L8.25705 2.36124C7.81106 1.91526 7.49731 1.60214 7.22513 1.3775C6.95997 1.15866 6.75891 1.04524 6.54926 0.985117C6.33961 0.924991 6.109 0.914606 5.76816 0.95965ZM5.65619 0.112365C6.06489 0.0583533 6.42327 0.0598775 6.78487 0.163585C7.14648 0.267292 7.45119 0.455939 7.76914 0.718353C8.0765 0.972026 8.4188 1.31433 8.84643 1.74197L9.92661 2.82214C10.6734 3.56888 11.2646 4.16009 11.665 4.68494C12.077 5.22496 12.3271 5.74465 12.3271 6.35161C12.3271 6.95857 12.077 7.47826 11.665 8.01829C11.2646 8.54313 10.6734 9.13435 9.9266 9.88109L9.88109 9.9266C9.13435 10.6734 8.54313 11.2646 8.01829 11.665C7.47826 12.077 6.95857 12.3271 6.35161 12.3271C5.74465 12.3271 5.22496 12.077 4.68494 11.665C4.16009 11.2646 3.56887 10.6733 2.82212 9.92659L1.74198 8.84645C1.31434 8.41881 0.972029 8.07651 0.718354 7.76914C0.455939 7.45119 0.267292 7.14648 0.163585 6.78487C0.0598776 6.42327 0.0583533 6.06489 0.112365 5.65619C0.164579 5.26109 0.273437 4.78939 0.409431 4.20011L0.580739 3.45777C0.694217 2.966 0.786754 2.56498 0.896596 2.24494C1.01131 1.91069 1.15579 1.62982 1.39281 1.39281C1.62982 1.15579 1.91069 1.01131 2.24493 0.896596C2.56498 0.786754 2.966 0.694217 3.45778 0.580738L4.20011 0.409431C4.78939 0.273437 5.26109 0.164579 5.65619 0.112365ZM4.77255 3.92035C4.49442 3.64222 4.04347 3.64222 3.76534 3.92035C3.4872 4.19849 3.4872 4.64944 3.76534 4.92757C4.04347 5.20571 4.49442 5.20571 4.77255 4.92757C5.05069 4.64944 5.05069 4.19849 4.77255 3.92035ZM3.16101 3.31602C3.7729 2.70413 4.76499 2.70413 5.37688 3.31602C5.98878 3.92792 5.98878 4.92 5.37688 5.5319C4.76499 6.1438 3.7729 6.1438 3.16101 5.5319C2.54911 4.92 2.54911 3.92792 3.16101 3.31602ZM6.76787 6.26309C6.66708 6.26214 6.5346 6.30737 6.42098 6.42098C6.20018 6.64179 6.25825 6.86258 6.32026 6.92459C6.38227 6.9866 6.60307 7.04468 6.82387 6.82387C7.27059 6.37715 8.04188 6.22889 8.53614 6.72315C8.91957 7.10658 8.91632 7.65674 8.68702 8.09275C8.80161 8.25921 8.78489 8.48883 8.63686 8.63686C8.48933 8.78439 8.26078 8.8015 8.09446 8.68819C7.83414 8.82654 7.53799 8.87838 7.25565 8.82036C7.02447 8.77285 6.87558 8.54694 6.92309 8.31576C6.9706 8.08459 7.19651 7.9357 7.42769 7.9832C7.52862 8.00395 7.69135 7.97082 7.83109 7.83109C8.05189 7.61028 7.99382 7.38949 7.93181 7.32748C7.8698 7.26547 7.64901 7.2074 7.4282 7.4282C6.98148 7.87492 6.21019 8.02318 5.71593 7.52892C5.3325 7.14549 5.33575 6.59533 5.56505 6.15933C5.45046 5.99286 5.46718 5.76324 5.61521 5.61521C5.76271 5.46772 5.99119 5.45058 6.15751 5.56381C6.35115 5.4609 6.56391 5.40648 6.77593 5.40847C7.01192 5.4107 7.20143 5.60382 7.19921 5.83981C7.19698 6.07581 7.00387 6.26531 6.76787 6.26309Z" fill="#1C274C"/>
</svg>
