<svg width="14" height="15" viewBox="0 0 14 15" fill="none" xmlns="http://www.w3.org/2000/svg">
<path fill-rule="evenodd" clip-rule="evenodd" d="M2.5 5.13346C2.5 2.73469 4.53917 0.833252 7 0.833252C9.4053 0.833252 11.4078 2.64984 11.4969 4.97184L11.8154 5.07801C12.1242 5.18091 12.3948 5.27109 12.6095 5.37097C12.8416 5.47894 13.0543 5.61801 13.2169 5.84361C13.3795 6.06921 13.4441 6.31498 13.4732 6.5693C13.5 6.80455 13.5 7.0898 13.5 7.41524V11.2474C13.5 11.6536 13.5 12.0002 13.4685 12.2783C13.4353 12.5708 13.3612 12.8582 13.1603 13.1035C13.0449 13.2443 12.9048 13.3629 12.747 13.4536C12.4721 13.6114 12.1764 13.6373 11.8824 13.622C11.6029 13.6073 11.261 13.5503 10.8603 13.4835L10.8326 13.4789C9.97067 13.3353 9.62341 13.281 9.28493 13.3093C9.1611 13.3197 9.03809 13.3382 8.91669 13.3647C8.58493 13.4371 8.2659 13.5927 7.47736 13.9869C7.44994 14.0006 7.42283 14.0142 7.39602 14.0276C6.47425 14.4887 5.90635 14.7727 5.29354 14.8615C5.10923 14.8881 4.92321 14.9014 4.73697 14.901C4.11779 14.8998 3.51997 14.7005 2.55024 14.3771C2.52219 14.3677 2.49382 14.3582 2.46514 14.3487L2.20943 14.2634L2.18456 14.2551C1.87582 14.1523 1.60522 14.0621 1.39053 13.9622C1.15844 13.8542 0.945743 13.7152 0.783139 13.4896C0.620535 13.264 0.55586 13.0182 0.526824 12.7639C0.499965 12.5286 0.499982 12.2434 0.500001 11.9179L0.500001 8.57141C0.499981 8.04733 0.499963 7.60556 0.54486 7.25957C0.591724 6.89843 0.697682 6.54532 0.988416 6.27978C1.07388 6.20173 1.16809 6.13382 1.26917 6.07743C1.61302 5.88558 1.98151 5.89672 2.33894 5.96647C2.41145 5.98062 2.4874 5.99804 2.56679 6.01828C2.52274 5.72105 2.5 5.42474 2.5 5.13346ZM2.83246 7.13945C2.54715 7.04743 2.32816 6.98323 2.14742 6.94796C1.88399 6.89656 1.79764 6.92769 1.75639 6.95071C1.7227 6.9695 1.69129 6.99214 1.66281 7.01816C1.62793 7.05001 1.57108 7.12209 1.53655 7.38825C1.501 7.66215 1.5 8.03825 1.5 8.60525V11.8917C1.5 12.2511 1.50076 12.4787 1.52037 12.6504C1.53852 12.8094 1.56823 12.8686 1.59438 12.9048C1.62053 12.9411 1.66722 12.988 1.81233 13.0555C1.96909 13.1284 2.18473 13.2011 2.52566 13.3148L2.78137 13.4C3.86375 13.7608 4.30059 13.9002 4.73887 13.901C4.87652 13.9013 5.01401 13.8915 5.15024 13.8718C5.58388 13.809 6.00062 13.6073 7.03014 13.0925C7.05099 13.0821 7.07161 13.0718 7.092 13.0616C7.79911 12.7079 8.2347 12.49 8.70333 12.3877C8.86758 12.3518 9.034 12.3268 9.20154 12.3128C9.67953 12.2728 10.1563 12.3523 10.9297 12.4813C10.9519 12.485 10.9743 12.4887 10.997 12.4925C11.4331 12.5652 11.7186 12.612 11.9346 12.6233C12.1426 12.6342 12.214 12.6065 12.249 12.5864C12.3016 12.5562 12.3483 12.5166 12.3868 12.4697C12.4123 12.4385 12.4514 12.3725 12.4749 12.1656C12.4992 11.9507 12.5 11.6614 12.5 11.2192V7.44144C12.5 7.08206 12.4992 6.85451 12.4796 6.68273C12.4615 6.52372 12.4318 6.46461 12.4056 6.42832C12.3795 6.39204 12.3328 6.34516 12.1877 6.27766C12.0309 6.20473 11.8153 6.13206 11.4743 6.01841L11.4351 6.00534C11.3083 6.87293 10.9997 7.74881 10.5448 8.53055C9.93654 9.57595 9.04649 10.4865 7.9314 10.9729C7.33957 11.2311 6.66043 11.2311 6.06861 10.9729C4.95351 10.4865 4.06346 9.57595 3.45516 8.53055C3.19914 8.09058 2.98947 7.62079 2.83246 7.13945ZM7 1.83325C5.04255 1.83325 3.5 3.33464 3.5 5.13346C3.5 6.07842 3.79163 7.12048 4.31948 8.02761C4.84747 8.93499 5.59169 9.67388 6.46846 10.0564C6.80532 10.2033 7.19469 10.2033 7.53154 10.0564C8.40832 9.67388 9.15253 8.93499 9.68053 8.02761C10.2084 7.12048 10.5 6.07842 10.5 5.13346C10.5 3.33464 8.95745 1.83325 7 1.83325ZM7 4.49992C6.53976 4.49992 6.16667 4.87301 6.16667 5.33325C6.16667 5.79349 6.53976 6.16658 7 6.16658C7.46024 6.16658 7.83333 5.79349 7.83333 5.33325C7.83333 4.87301 7.46024 4.49992 7 4.49992ZM5.16667 5.33325C5.16667 4.32073 5.98748 3.49992 7 3.49992C8.01252 3.49992 8.83333 4.32073 8.83333 5.33325C8.83333 6.34577 8.01252 7.16658 7 7.16658C5.98748 7.16658 5.16667 6.34577 5.16667 5.33325Z" fill="#1C274C"/>
</svg>
