<svg width="16" height="14" viewBox="0 0 16 14" fill="none" xmlns="http://www.w3.org/2000/svg">
<path fill-rule="evenodd" clip-rule="evenodd" d="M3.96535 0H12.0347C12.6337 -1.95901e-05 13.1331 -3.59217e-05 13.5297 0.0532749C13.9482 0.109545 14.3261 0.233325 14.6297 0.536972C14.9334 0.840618 15.0571 1.21848 15.1134 1.63701C15.1667 2.03354 15.1667 2.53302 15.1667 3.132V3.20133C15.1667 3.80032 15.1667 4.2998 15.1134 4.69632C15.0571 5.11485 14.9334 5.49272 14.6297 5.79636C14.3261 6.10001 13.9482 6.22379 13.5297 6.28006C13.1331 6.33337 12.6337 6.33335 12.0347 6.33333H3.96535C3.36636 6.33335 2.86688 6.33337 2.47036 6.28006C2.05183 6.22379 1.67396 6.10001 1.37032 5.79636C1.06667 5.49272 0.942889 5.11485 0.886619 4.69632C0.833308 4.2998 0.833325 3.80032 0.833344 3.20133V3.132C0.833325 2.53301 0.833308 2.03354 0.886619 1.63701C0.942889 1.21848 1.06667 0.840618 1.37032 0.536972C1.67396 0.233325 2.05183 0.109545 2.47036 0.0532749C2.86688 -3.59217e-05 3.36636 -1.95901e-05 3.96535 0ZM2.60361 1.04436C2.29597 1.08572 2.1643 1.1572 2.07742 1.24408C1.99055 1.33096 1.91906 1.46262 1.8777 1.77026C1.83441 2.09229 1.83335 2.52399 1.83335 3.16667C1.83335 3.80934 1.83441 4.24105 1.8777 4.56307C1.91906 4.87071 1.99055 5.00238 2.07742 5.08926C2.1643 5.17613 2.29597 5.24762 2.60361 5.28898C2.92563 5.33227 3.35734 5.33333 4.00001 5.33333H12C12.6427 5.33333 13.0744 5.33227 13.3964 5.28898C13.7041 5.24762 13.8357 5.17613 13.9226 5.08926C14.0095 5.00238 14.081 4.87071 14.1223 4.56307C14.1656 4.24105 14.1667 3.80934 14.1667 3.16667C14.1667 2.52399 14.1656 2.09229 14.1223 1.77026C14.081 1.46262 14.0095 1.33096 13.9226 1.24408C13.8357 1.1572 13.7041 1.08572 13.3964 1.04436C13.0744 1.00106 12.6427 1 12 1H4.00001C3.35734 1 2.92563 1.00106 2.60361 1.04436ZM3.50001 3.16667C3.50001 2.89053 3.72387 2.66667 4.00001 2.66667H5.33335C5.60949 2.66667 5.83335 2.89053 5.83335 3.16667C5.83335 3.44281 5.60949 3.66667 5.33335 3.66667H4.00001C3.72387 3.66667 3.50001 3.44281 3.50001 3.16667ZM6.83334 3.16667C6.83334 2.89053 7.0572 2.66667 7.33334 2.66667H12C12.2762 2.66667 12.5 2.89053 12.5 3.16667C12.5 3.44281 12.2762 3.66667 12 3.66667H7.33334C7.0572 3.66667 6.83334 3.44281 6.83334 3.16667ZM3.96535 7.33333H12.0347C12.6337 7.33331 13.1331 7.3333 13.5297 7.38661C13.9482 7.44288 14.3261 7.56666 14.6297 7.87031C14.9334 8.17395 15.0571 8.55182 15.1134 8.97035C15.1667 9.36687 15.1667 9.86635 15.1667 10.4653V10.5347C15.1667 11.1337 15.1667 11.6331 15.1134 12.0297C15.0571 12.4482 14.9334 12.826 14.6297 13.1297C14.3261 13.4333 13.9482 13.5571 13.5297 13.6134C13.1331 13.6667 12.6337 13.6667 12.0347 13.6667H3.96535C3.36636 13.6667 2.86688 13.6667 2.47036 13.6134C2.05183 13.5571 1.67396 13.4333 1.37032 13.1297C1.06667 12.826 0.942889 12.4482 0.886619 12.0297C0.833308 11.6331 0.833325 11.1337 0.833344 10.5347V10.4653C0.833325 9.86635 0.833308 9.36687 0.886619 8.97035C0.942889 8.55182 1.06667 8.17395 1.37032 7.87031C1.67396 7.56666 2.05183 7.44288 2.47036 7.38661C2.86688 7.3333 3.36636 7.33331 3.96535 7.33333ZM2.60361 8.37769C2.29597 8.41905 2.1643 8.49053 2.07742 8.57741C1.99055 8.66429 1.91906 8.79595 1.8777 9.10359C1.83441 9.42562 1.83335 9.85733 1.83335 10.5C1.83335 11.1427 1.83441 11.5744 1.8777 11.8964C1.91906 12.204 1.99055 12.3357 2.07742 12.4226C2.1643 12.5095 2.29597 12.5809 2.60361 12.6223C2.92563 12.6656 3.35734 12.6667 4.00001 12.6667H12C12.6427 12.6667 13.0744 12.6656 13.3964 12.6223C13.7041 12.5809 13.8357 12.5095 13.9226 12.4226C14.0095 12.3357 14.081 12.204 14.1223 11.8964C14.1656 11.5744 14.1667 11.1427 14.1667 10.5C14.1667 9.85733 14.1656 9.42562 14.1223 9.10359C14.081 8.79595 14.0095 8.66429 13.9226 8.57741C13.8357 8.49053 13.7041 8.41905 13.3964 8.37769C13.0744 8.3344 12.6427 8.33333 12 8.33333H4.00001C3.35734 8.33333 2.92563 8.3344 2.60361 8.37769ZM3.50001 10.5C3.50001 10.2239 3.72387 10 4.00001 10H5.33335C5.60949 10 5.83335 10.2239 5.83335 10.5C5.83335 10.7761 5.60949 11 5.33335 11H4.00001C3.72387 11 3.50001 10.7761 3.50001 10.5ZM6.83334 10.5C6.83334 10.2239 7.0572 10 7.33334 10H12C12.2762 10 12.5 10.2239 12.5 10.5C12.5 10.7761 12.2762 11 12 11H7.33334C7.0572 11 6.83334 10.7761 6.83334 10.5Z" fill="#1C274C"/>
</svg>
