<svg width="14" height="13" viewBox="0 0 14 13" fill="none" xmlns="http://www.w3.org/2000/svg">
<path fill-rule="evenodd" clip-rule="evenodd" d="M7.00001 0.729248C5.46972 0.729248 4.22918 1.96979 4.22918 3.50008C4.22918 5.03037 5.46972 6.27092 7.00001 6.27092C8.5303 6.27092 9.77084 5.03037 9.77084 3.50008C9.77084 1.96979 8.5303 0.729248 7.00001 0.729248ZM5.10418 3.50008C5.10418 2.45304 5.95297 1.60425 7.00001 1.60425C8.04705 1.60425 8.89584 2.45304 8.89584 3.50008C8.89584 4.54712 8.04705 5.39592 7.00001 5.39592C5.95297 5.39592 5.10418 4.54712 5.10418 3.50008Z" fill="#1C274C"/>
<path d="M10.5 1.89591C10.2584 1.89591 10.0625 2.09179 10.0625 2.33341C10.0625 2.57504 10.2584 2.77091 10.5 2.77091C11.303 2.77091 11.8125 3.29926 11.8125 3.79175C11.8125 4.28424 11.303 4.81258 10.5 4.81258C10.2584 4.81258 10.0625 5.00846 10.0625 5.25008C10.0625 5.49171 10.2584 5.68758 10.5 5.68758C11.6301 5.68758 12.6875 4.91009 12.6875 3.79175C12.6875 2.67341 11.6301 1.89591 10.5 1.89591Z" fill="#1C274C"/>
<path d="M3.93751 2.33341C3.93751 2.09179 3.74164 1.89591 3.50001 1.89591C2.36996 1.89591 1.31251 2.67341 1.31251 3.79175C1.31251 4.91009 2.36996 5.68758 3.50001 5.68758C3.74164 5.68758 3.93751 5.49171 3.93751 5.25008C3.93751 5.00846 3.74164 4.81258 3.50001 4.81258C2.69706 4.81258 2.18751 4.28424 2.18751 3.79175C2.18751 3.29926 2.69706 2.77091 3.50001 2.77091C3.74164 2.77091 3.93751 2.57504 3.93751 2.33341Z" fill="#1C274C"/>
<path fill-rule="evenodd" clip-rule="evenodd" d="M7.00001 7.14592C5.95919 7.14592 4.99711 7.42638 4.28246 7.90281C3.57086 8.37721 3.06251 9.08062 3.06251 9.91675C3.06251 10.7529 3.57086 11.4563 4.28246 11.9307C4.99711 12.4071 5.95919 12.6876 7.00001 12.6876C8.04084 12.6876 9.00291 12.4071 9.71757 11.9307C10.4292 11.4563 10.9375 10.7529 10.9375 9.91675C10.9375 9.08062 10.4292 8.37721 9.71757 7.90281C9.00291 7.42638 8.04084 7.14592 7.00001 7.14592ZM3.93751 9.91675C3.93751 9.46421 4.21266 9.00096 4.76782 8.63085C5.31992 8.26279 6.10784 8.02092 7.00001 8.02092C7.89218 8.02092 8.6801 8.26279 9.2322 8.63085C9.78736 9.00096 10.0625 9.46421 10.0625 9.91675C10.0625 10.3693 9.78736 10.8325 9.2322 11.2026C8.6801 11.5707 7.89218 11.8126 7.00001 11.8126C6.10784 11.8126 5.31992 11.5707 4.76782 11.2026C4.21266 10.8325 3.93751 10.3693 3.93751 9.91675Z" fill="#1C274C"/>
<path d="M11.2393 8.07303C11.2911 7.83702 11.5244 7.68765 11.7604 7.7394C12.3215 7.86245 12.8271 8.0847 13.2025 8.39187C13.5775 8.69877 13.8542 9.12064 13.8542 9.62508C13.8542 10.1295 13.5775 10.5514 13.2025 10.8583C12.8271 11.1655 12.3215 11.3877 11.7604 11.5108C11.5244 11.5625 11.2911 11.4131 11.2393 11.1771C11.1876 10.9411 11.3369 10.7078 11.573 10.6561C12.0352 10.5547 12.4046 10.3806 12.6484 10.1811C12.8925 9.98135 12.9792 9.78626 12.9792 9.62508C12.9792 9.46391 12.8925 9.26881 12.6484 9.06905C12.4046 8.86956 12.0352 8.69545 11.573 8.59409C11.3369 8.54234 11.1876 8.30905 11.2393 8.07303Z" fill="#1C274C"/>
<path d="M2.23963 7.7394C2.47565 7.68765 2.70893 7.83702 2.76069 8.07303C2.81245 8.30905 2.66307 8.54234 2.42706 8.59409C1.96485 8.69545 1.59546 8.86956 1.35166 9.06905C1.10754 9.26881 1.02084 9.46391 1.02084 9.62508C1.02084 9.78626 1.10754 9.98135 1.35166 10.1811C1.59546 10.3806 1.96485 10.5547 2.42706 10.6561C2.66307 10.7078 2.81245 10.9411 2.76069 11.1771C2.70893 11.4131 2.47565 11.5625 2.23963 11.5108C1.67853 11.3877 1.17292 11.1655 0.797539 10.8583C0.422488 10.5514 0.145844 10.1295 0.145844 9.62508C0.145844 9.12064 0.422488 8.69877 0.797539 8.39187C1.17292 8.0847 1.67853 7.86245 2.23963 7.7394Z" fill="#1C274C"/>
</svg>
