<svg width="14" height="14" viewBox="0 0 14 14" fill="none" xmlns="http://www.w3.org/2000/svg">
<path fill-rule="evenodd" clip-rule="evenodd" d="M4.33722 0.729248H9.6627C9.99518 0.729238 10.2775 0.729229 10.5108 0.75335C10.7592 0.779032 10.9887 0.834799 11.2056 0.968831C11.4225 1.10286 11.575 1.28324 11.7091 1.49393C11.835 1.69181 11.9612 1.94431 12.1099 2.24172L12.1195 2.26093C12.1252 2.27227 12.1303 2.28386 12.135 2.29565L12.9538 4.3654C13.0512 4.61168 13.1592 4.91892 13.1907 5.23333C13.223 5.55492 13.1787 5.92333 12.9267 6.24285C12.7206 6.50422 12.434 6.7004 12.1042 6.79378V12.3959H12.8333C13.0749 12.3959 13.2708 12.5918 13.2708 12.8334C13.2708 13.075 13.0749 13.2709 12.8333 13.2709H1.16666C0.925032 13.2709 0.729156 13.075 0.729156 12.8334C0.729156 12.5918 0.925032 12.3959 1.16666 12.3959H1.89582V6.79381C1.56593 6.70044 1.27931 6.50425 1.07318 6.24285C0.821202 5.92332 0.776884 5.55491 0.809178 5.23332C0.84075 4.91892 0.948715 4.61168 1.04614 4.3654L1.86492 2.29565C1.86958 2.28386 1.87476 2.27227 1.88043 2.26093L1.89005 2.24169C2.03873 1.9443 2.16497 1.6918 2.29087 1.49393C2.42493 1.28324 2.57747 1.10286 2.79434 0.968831C3.0112 0.834799 3.24076 0.779032 3.48915 0.75335C3.72244 0.729229 4.00474 0.729238 4.33722 0.729248ZM10.4999 6.35111C10.6959 6.5587 10.9467 6.714 11.2292 6.79388V12.3959H8.89582L8.89582 10.773C8.89583 10.5164 8.89584 10.2951 8.87938 10.1135C8.86198 9.92151 8.82345 9.73137 8.71998 9.55217C8.60479 9.35264 8.4391 9.18695 8.23957 9.07176C8.06037 8.96829 7.87023 8.92976 7.6782 8.91236C7.49662 8.8959 7.27534 8.89591 7.0188 8.89592H6.98119C6.72465 8.89591 6.50336 8.8959 6.32178 8.91236C6.12975 8.92976 5.93961 8.96829 5.76041 9.07176C5.56088 9.18695 5.39519 9.35264 5.28 9.55217C5.17653 9.73137 5.138 9.92151 5.1206 10.1135C5.10414 10.2951 5.10415 10.5164 5.10416 10.7729L5.10416 12.3959H2.77082V6.79385C3.05323 6.71397 3.30398 6.55867 3.49994 6.35111C3.79241 6.66091 4.20693 6.85425 4.66661 6.85425C5.12628 6.85425 5.5408 6.66091 5.83327 6.35111C6.12575 6.66091 6.54026 6.85425 6.99994 6.85425C7.45961 6.85425 7.87413 6.66091 8.16661 6.35111C8.45908 6.66091 8.8736 6.85425 9.33327 6.85425C9.79295 6.85425 10.2075 6.66091 10.4999 6.35111ZM5.97916 12.3959H8.02082V10.7917C8.02082 10.5111 8.0204 10.3299 8.00796 10.1925C7.99605 10.0612 7.97597 10.0135 7.96221 9.98967C7.92381 9.92316 7.86858 9.86793 7.80207 9.82953C7.77824 9.81577 7.73056 9.79569 7.59922 9.78378C7.46187 9.77133 7.28064 9.77092 6.99999 9.77092C6.71934 9.77092 6.53811 9.77133 6.40076 9.78378C6.26942 9.79569 6.22174 9.81577 6.19791 9.82953C6.1314 9.86793 6.07617 9.92316 6.03777 9.98967C6.02401 10.0135 6.00393 10.0612 5.99202 10.1925C5.97958 10.3299 5.97916 10.5111 5.97916 10.7917V12.3959ZM3.93744 5.25008C3.93744 5.65279 4.2639 5.97925 4.66661 5.97925C5.06931 5.97925 5.39577 5.65279 5.39577 5.25008C5.39577 5.00846 5.59165 4.81258 5.83327 4.81258C6.0749 4.81258 6.27077 5.00846 6.27077 5.25008C6.27077 5.65279 6.59723 5.97925 6.99994 5.97925C7.40265 5.97925 7.72911 5.65279 7.72911 5.25008C7.72911 5.00846 7.92498 4.81258 8.16661 4.81258C8.40823 4.81258 8.60411 5.00846 8.60411 5.25008C8.60411 5.65279 8.93056 5.97925 9.33327 5.97925C9.73598 5.97925 10.0624 5.65279 10.0624 5.25008C10.0624 5.00846 10.2583 4.81258 10.4999 4.81258C10.7416 4.81258 10.9374 5.00846 10.9374 5.25008C10.9374 5.65279 11.2639 5.97925 11.6666 5.97925C11.8988 5.97925 12.1054 5.87126 12.2397 5.70103C12.3061 5.61676 12.3383 5.50146 12.3201 5.32075C12.3013 5.13285 12.2319 4.91919 12.1401 4.68727L11.3284 2.63522C11.1722 2.32294 11.0678 2.11612 10.9708 1.96365C10.8775 1.81699 10.8106 1.75336 10.7456 1.71315C10.6805 1.67294 10.5937 1.64159 10.4208 1.62371C10.2378 1.60479 10.001 1.60425 9.64119 1.60425H4.35874C3.99893 1.60425 3.76214 1.60479 3.57914 1.62371C3.40623 1.64159 3.31941 1.67294 3.25435 1.71315C3.18929 1.75336 3.12242 1.81699 3.0291 1.96365C2.93209 2.11612 2.82773 2.32294 2.67156 2.63522L1.85979 4.68727C1.76804 4.91919 1.69867 5.13285 1.6798 5.32075C1.66165 5.50147 1.69379 5.61677 1.76025 5.70104C1.89448 5.87126 2.10113 5.97925 2.33327 5.97925C2.73598 5.97925 3.06244 5.65279 3.06244 5.25008C3.06244 5.00846 3.25831 4.81258 3.49994 4.81258C3.74156 4.81258 3.93744 5.00846 3.93744 5.25008Z" fill="#1C274C"/>
</svg>
