<svg width="13" height="13" viewBox="0 0 13 13" fill="none" xmlns="http://www.w3.org/2000/svg">
<path fill-rule="evenodd" clip-rule="evenodd" d="M4.78397 0.0769044H7.7577C8.69235 0.0768973 9.43281 0.0768917 10.0186 0.146135C10.62 0.217222 11.1151 0.366461 11.5286 0.705855C11.6689 0.820995 11.7976 0.949641 11.9127 1.08994C12.2521 1.50349 12.4013 1.99857 12.4724 2.59997C12.5417 3.18576 12.5417 3.92621 12.5417 4.86085V4.91796C12.5417 5.8526 12.5417 6.59305 12.4724 7.17884C12.4013 7.78024 12.2521 8.27532 11.9127 8.68887C11.7976 8.82917 11.6689 8.95781 11.5286 9.07296C11.0684 9.45065 10.5065 9.59324 9.80884 9.65408C9.56813 9.67507 9.35598 9.49695 9.33499 9.25624C9.314 9.01552 9.49212 8.80337 9.73283 8.78239C10.1853 8.74293 10.4936 8.67077 10.7271 8.55514L7.17689 5.82424L1.31301 1.63575C1.31044 1.63883 1.30788 1.64193 1.30533 1.64503C1.11509 1.87685 0.999504 2.18389 0.938181 2.70268C0.875716 3.23113 0.875 3.91984 0.875 4.88941C0.875 5.85897 0.875716 6.54768 0.938181 7.07613C0.999504 7.59492 1.11509 7.90196 1.30533 8.13378C1.38412 8.22977 1.47214 8.31779 1.56813 8.39657C1.82632 8.60846 2.1771 8.7273 2.80884 8.78239C3.04955 8.80337 3.22767 9.01552 3.20668 9.25624C3.18569 9.49695 2.97354 9.67507 2.73283 9.65408C2.03513 9.59324 1.47326 9.45065 1.01304 9.07296C0.872737 8.95782 0.74409 8.82917 0.628951 8.68887C0.289557 8.27532 0.140318 7.78024 0.0692303 7.17884C-1.26169e-05 6.59305 -6.98355e-06 5.85259 1.44168e-07 4.91794V4.86087C-6.98355e-06 3.92622 -1.26169e-05 3.18576 0.0692303 2.59997C0.140318 1.99857 0.289557 1.50349 0.62895 1.08994C0.744091 0.949641 0.872737 0.820995 1.01304 0.705855C1.42659 0.366461 1.92166 0.217222 2.52306 0.146135C3.10886 0.0768917 3.84931 0.0768973 4.78397 0.0769044ZM2.09235 1.11713L7.37871 4.8931L10.7669 1.24423C10.5608 1.13361 10.2948 1.05987 9.91589 1.01509C9.38744 0.952621 8.69873 0.951905 7.72917 0.951905H4.8125C3.84293 0.951905 3.15422 0.952621 2.62578 1.01509C2.41649 1.03982 2.24167 1.07339 2.09235 1.11713ZM11.3826 1.86718L8.08475 5.41866L11.3659 7.94263C11.4812 7.7343 11.5576 7.46458 11.6035 7.07613C11.6659 6.54768 11.6667 5.85897 11.6667 4.88941C11.6667 3.91984 11.6659 3.23113 11.6035 2.70268C11.5598 2.33322 11.4886 2.07116 11.3826 1.86718ZM6.25507 7.96181C6.22621 7.98257 6.17666 8.03027 6.10452 8.13365C5.95572 8.34689 5.78771 8.68039 5.53519 9.18555L4.75625 10.7437C4.60391 11.0485 4.50039 11.2561 4.43587 11.4114C4.38497 11.5339 4.37719 11.5825 4.3755 11.5891C4.38845 11.6646 4.44495 11.7252 4.51916 11.7435C4.52592 11.7423 4.57496 11.7379 4.70059 11.6959C4.86002 11.6425 5.07446 11.5539 5.38918 11.4236C5.40013 11.419 5.41094 11.4145 5.42161 11.4101C5.61836 11.3285 5.76894 11.266 5.92733 11.2333C6.15394 11.1865 6.38773 11.1865 6.61434 11.2333C6.77272 11.266 6.9233 11.3285 7.12005 11.4101C7.13072 11.4145 7.14153 11.419 7.15249 11.4236C7.46721 11.5539 7.68165 11.6425 7.84108 11.6959C7.9667 11.7379 8.01574 11.7423 8.0225 11.7435C8.09671 11.7252 8.15321 11.6646 8.16617 11.5891C8.16448 11.5825 8.15669 11.5339 8.1058 11.4114C8.04128 11.2561 7.93776 11.0485 7.78541 10.7437L7.00648 9.18555C6.75395 8.6804 6.58595 8.34689 6.43715 8.13365C6.36501 8.03027 6.31546 7.98257 6.2866 7.96181C6.27844 7.95594 6.27325 7.9532 6.27083 7.95208C6.26842 7.9532 6.26323 7.95594 6.25507 7.96181ZM6.27083 7.95208C6.27044 7.95201 6.26987 7.95162 6.26932 7.95143C6.26908 7.95134 6.26987 7.95164 6.27083 7.95208C6.27066 7.95211 6.27031 7.95208 6.27083 7.95208ZM5.38696 7.63292C5.57951 7.35699 5.85242 7.07691 6.27083 7.07691C6.68925 7.07691 6.96216 7.35699 7.15471 7.63292C7.34477 7.90529 7.54095 8.29777 7.77316 8.76233L8.57573 10.3678C8.71852 10.6534 8.83612 10.8887 8.91383 11.0757C8.98668 11.251 9.06255 11.4669 9.03625 11.6845C8.98065 12.1447 8.63447 12.5165 8.17935 12.6046C7.96406 12.6463 7.74338 12.5859 7.56336 12.5256C7.37129 12.4613 7.12832 12.3607 6.83331 12.2384L6.81758 12.2319C6.57403 12.131 6.50412 12.104 6.43725 12.0902C6.32747 12.0675 6.2142 12.0675 6.10442 12.0902C6.03754 12.104 5.96764 12.131 5.72409 12.2319L5.70834 12.2385C5.41333 12.3607 5.17037 12.4613 4.97831 12.5256C4.79829 12.5859 4.57761 12.6463 4.36232 12.6046C3.9072 12.5165 3.56102 12.1447 3.50542 11.6845C3.47912 11.4669 3.55498 11.251 3.62784 11.0757C3.70555 10.8887 3.82315 10.6534 3.96595 10.3678L4.76851 8.76234C5.00072 8.29777 5.1969 7.90529 5.38696 7.63292Z" fill="#1C274C"/>
</svg>
