<svg width="15" height="13" viewBox="0 0 15 13" fill="none" xmlns="http://www.w3.org/2000/svg">
<path fill-rule="evenodd" clip-rule="evenodd" d="M6.02646 0.461426H8.76835C9.99353 0.461415 10.9639 0.461407 11.7234 0.563516C12.505 0.668601 13.1377 0.890013 13.6366 1.38892C14.0886 1.84097 14.3134 2.40351 14.4297 3.08884C14.5146 3.58915 14.5456 4.18114 14.5571 4.87768C14.5617 4.90491 14.5641 4.93289 14.5641 4.96143C14.5641 4.98496 14.5624 5.00812 14.5593 5.03078C14.5617 5.22173 14.5628 5.42026 14.5635 5.62663C14.5643 5.90277 14.3411 6.12728 14.0649 6.12809C13.7888 6.1289 13.5643 5.9057 13.5635 5.62956C13.5633 5.57265 13.5631 5.51662 13.5628 5.46143H1.23207C1.2308 5.72036 1.23074 5.99749 1.23074 6.29476C1.23074 7.56597 1.23181 8.46909 1.32392 9.1542C1.41409 9.82492 1.58321 10.2114 1.86535 10.4935C2.14749 10.7756 2.53392 10.9447 3.20464 11.0349C3.88975 11.127 4.79286 11.1281 6.06408 11.1281H7.06408C7.34022 11.1281 7.56408 11.352 7.56408 11.6281C7.56408 11.9042 7.34022 12.1281 7.06408 12.1281H6.02647C4.80129 12.1281 3.83087 12.1281 3.07139 12.026C2.28978 11.9209 1.65715 11.6995 1.15824 11.2006C0.65933 10.7017 0.437919 10.0691 0.332834 9.28744C0.230725 8.52797 0.230733 7.55754 0.230744 6.33237V6.25715C0.23074 5.81597 0.230736 5.40783 0.235501 5.03068C0.232365 5.00804 0.230744 4.98492 0.230744 4.96143C0.230744 4.93287 0.233138 4.90487 0.237736 4.87762C0.247838 4.27283 0.272523 3.75066 0.332834 3.30208C0.437919 2.52046 0.65933 1.88783 1.15824 1.38892C1.65715 0.890013 2.28978 0.668601 3.07139 0.563516C3.83087 0.461407 4.80129 0.461415 6.02646 0.461426ZM1.24813 4.46143H13.5466C13.5307 3.98489 13.5005 3.59063 13.4438 3.25612C13.3486 2.69488 13.1861 2.3527 12.9295 2.09603C12.6473 1.81389 12.2609 1.64478 11.5902 1.5546C10.9051 1.46249 10.002 1.46143 8.73074 1.46143H6.06408C4.79286 1.46143 3.88975 1.46249 3.20464 1.5546C2.53392 1.64478 2.14749 1.81389 1.86535 2.09603C1.58321 2.37817 1.41409 2.7646 1.32392 3.43533C1.28399 3.73232 1.26117 4.07027 1.24813 4.46143ZM9.73074 7.12809C10.0069 7.12809 10.2307 7.35195 10.2307 7.62809V10.421L10.7105 9.94121C10.9058 9.74594 11.2224 9.74594 11.4176 9.94121C11.6129 10.1365 11.6129 10.4531 11.4176 10.6483L10.0843 11.9816C9.88903 12.1769 9.57245 12.1769 9.37719 11.9816L8.04386 10.6483C7.84859 10.4531 7.84859 10.1365 8.04386 9.94121C8.23912 9.74594 8.5557 9.74594 8.75096 9.94121L9.23074 10.421V7.62809C9.23074 7.35195 9.4546 7.12809 9.73074 7.12809ZM12.3772 7.27454C12.5725 7.07928 12.889 7.07928 13.0843 7.27454L14.4176 8.60787C14.6129 8.80314 14.6129 9.11972 14.4176 9.31498C14.2224 9.51024 13.9058 9.51024 13.7105 9.31498L13.2307 8.8352V11.6281C13.2307 11.9042 13.0069 12.1281 12.7307 12.1281C12.4546 12.1281 12.2307 11.9042 12.2307 11.6281V8.8352L11.751 9.31498C11.5557 9.51024 11.2391 9.51024 11.0439 9.31498C10.8486 9.11972 10.8486 8.80314 11.0439 8.60787L12.3772 7.27454ZM2.89741 8.96143C2.89741 8.68529 3.12127 8.46143 3.39741 8.46143H6.06408C6.34022 8.46143 6.56408 8.68529 6.56408 8.96143C6.56408 9.23757 6.34022 9.46143 6.06408 9.46143H3.39741C3.12127 9.46143 2.89741 9.23757 2.89741 8.96143Z" fill="#1C274C"/>
</svg>
