<svg width="13" height="11" viewBox="0 0 13 11" fill="none" xmlns="http://www.w3.org/2000/svg">
<path fill-rule="evenodd" clip-rule="evenodd" d="M5.14816 0.153809H7.54731C8.61934 0.1538 9.46846 0.153792 10.133 0.243137C10.8169 0.335087 11.3705 0.528822 11.807 0.965367C12.2436 1.40191 12.4373 1.95547 12.5292 2.63938C12.582 3.03189 12.6036 3.48878 12.6124 4.01797C12.6165 4.04182 12.6186 4.06632 12.6186 4.09131C12.6186 4.11187 12.6172 4.13211 12.6144 4.15191C12.6186 4.48192 12.6186 4.83905 12.6186 5.22507V5.29088C12.6186 6.36291 12.6186 7.21203 12.5292 7.87657C12.4373 8.56049 12.2436 9.11404 11.807 9.55058C11.3705 9.98713 10.8169 10.1809 10.133 10.2728C9.46846 10.3622 8.61934 10.3622 7.54731 10.3621H5.14816C4.07614 10.3622 3.22702 10.3622 2.56247 10.2728C1.87856 10.1809 1.32501 9.98713 0.888463 9.55058C0.451918 9.11404 0.258183 8.56049 0.166233 7.87657C0.0768879 7.21203 0.0768952 6.36291 0.0769045 5.29089V5.22507C0.0769011 4.83904 0.0768981 4.48191 0.0810671 4.1519C0.078323 4.1321 0.0769047 4.11187 0.0769047 4.09131C0.0769047 4.06632 0.0789995 4.04182 0.0830232 4.01798C0.0918621 3.48879 0.113462 3.03189 0.166233 2.63938C0.258183 1.95547 0.451918 1.40191 0.888463 0.965367C1.32501 0.528822 1.87856 0.335087 2.56247 0.243137C3.22702 0.153792 4.07613 0.1538 5.14816 0.153809ZM0.953064 4.52881C0.951955 4.75537 0.951905 4.99787 0.951905 5.25798C0.951905 6.37029 0.952834 7.16051 1.03343 7.75998C1.11234 8.34687 1.26031 8.68499 1.50718 8.93187C1.75405 9.17874 2.09218 9.32671 2.67907 9.40562C3.27854 9.48621 4.06876 9.48714 5.18107 9.48714H7.5144C8.62672 9.48714 9.41694 9.48621 10.0164 9.40562C10.6033 9.32671 10.9414 9.17874 11.1883 8.93187C11.4352 8.68499 11.5831 8.34687 11.662 7.75998C11.7426 7.16051 11.7436 6.37029 11.7436 5.25798C11.7436 4.99787 11.7435 4.75537 11.7424 4.52881H0.953064ZM11.7284 3.65381H0.967114C0.978525 3.31155 0.998492 3.01584 1.03343 2.75597C1.11234 2.16909 1.26031 1.83096 1.50718 1.58409C1.75405 1.33721 2.09218 1.18924 2.67907 1.11033C3.27854 1.02974 4.06876 1.02881 5.18107 1.02881H7.5144C8.62672 1.02881 9.41694 1.02974 10.0164 1.11033C10.6033 1.18924 10.9414 1.33721 11.1883 1.58409C11.4352 1.83096 11.5831 2.16909 11.662 2.75597C11.697 3.01584 11.7169 3.31155 11.7284 3.65381ZM2.41024 7.59131C2.41024 7.34969 2.60611 7.15381 2.84774 7.15381H5.18107C5.4227 7.15381 5.61857 7.34969 5.61857 7.59131C5.61857 7.83293 5.4227 8.02881 5.18107 8.02881H2.84774C2.60611 8.02881 2.41024 7.83293 2.41024 7.59131ZM6.2019 7.59131C6.2019 7.34969 6.39778 7.15381 6.6394 7.15381H7.5144C7.75603 7.15381 7.9519 7.34969 7.9519 7.59131C7.9519 7.83293 7.75603 8.02881 7.5144 8.02881H6.6394C6.39778 8.02881 6.2019 7.83293 6.2019 7.59131Z" fill="#1C274C"/>
</svg>
