<svg width="12" height="14" viewBox="0 0 12 14" fill="none" xmlns="http://www.w3.org/2000/svg">
<path fill-rule="evenodd" clip-rule="evenodd" d="M4.39583 5.25008C4.39583 4.36412 5.11404 3.64591 6 3.64591C6.88596 3.64591 7.60417 4.36412 7.60417 5.25008C7.60417 6.13604 6.88596 6.85425 6 6.85425C5.11404 6.85425 4.39583 6.13604 4.39583 5.25008ZM6 4.52091C5.59729 4.52091 5.27083 4.84737 5.27083 5.25008C5.27083 5.65279 5.59729 5.97925 6 5.97925C6.40271 5.97925 6.72917 5.65279 6.72917 5.25008C6.72917 4.84737 6.40271 4.52091 6 4.52091Z" fill="#1C274C"/>
<path fill-rule="evenodd" clip-rule="evenodd" d="M6 7.14591C5.30247 7.14591 4.64936 7.28635 4.15443 7.53381C3.68567 7.76819 3.22917 8.17293 3.22917 8.75008L3.22909 8.78652C3.2282 9.08424 3.22669 9.58552 3.7018 9.92944C3.92227 10.089 4.21319 10.1908 4.57357 10.2557C4.93728 10.3211 5.40337 10.3542 6 10.3542C6.59663 10.3542 7.06272 10.3211 7.42643 10.2557C7.78681 10.1908 8.07773 10.089 8.2982 9.92944C8.77331 9.58552 8.7718 9.08424 8.77091 8.78652L8.77083 8.75008C8.77083 8.17293 8.31433 7.76819 7.84557 7.53381C7.35064 7.28635 6.69752 7.14591 6 7.14591ZM4.10417 8.75008C4.10417 8.6829 4.17 8.50431 4.54574 8.31644C4.89531 8.14165 5.40886 8.02091 6 8.02091C6.59114 8.02091 7.10469 8.14165 7.45426 8.31644C7.83 8.50431 7.89583 8.6829 7.89583 8.75008C7.89583 9.10268 7.87338 9.15676 7.78513 9.22064C7.71394 9.27218 7.56736 9.34125 7.27149 9.39448C6.97895 9.44711 6.57004 9.47925 6 9.47925C5.42996 9.47925 5.02105 9.44711 4.72851 9.39448C4.43264 9.34125 4.28606 9.27218 4.21487 9.22064C4.12662 9.15676 4.10417 9.10268 4.10417 8.75008Z" fill="#1C274C"/>
<path fill-rule="evenodd" clip-rule="evenodd" d="M4.08864 1.19657C4.93094 0.908088 5.45311 0.729248 6 0.729248C6.54689 0.729248 7.06906 0.908088 7.91136 1.19657L8.33569 1.34183C9.1998 1.63761 9.86668 1.86589 10.3441 2.05982C10.5845 2.15752 10.7913 2.25214 10.9578 2.34882C11.118 2.44186 11.2787 2.5579 11.3879 2.71348C11.4958 2.86726 11.5516 3.05631 11.5867 3.23829C11.6232 3.42749 11.6451 3.65445 11.6593 3.91504C11.6875 4.43248 11.6875 5.14135 11.6875 6.06081V6.99504C11.6875 10.554 8.99948 12.2603 7.40097 12.9586L7.38516 12.9655C7.18695 13.0521 7.00063 13.1335 6.78656 13.1883C6.56054 13.2462 6.3204 13.2709 6 13.2709C5.6796 13.2709 5.43946 13.2462 5.21344 13.1883C4.99936 13.1335 4.81305 13.0521 4.61484 12.9655L4.59903 12.9586C3.00052 12.2603 0.3125 10.554 0.3125 6.99504V6.06086C0.3125 5.14145 0.3125 4.43246 0.340674 3.91504C0.354864 3.65445 0.376849 3.42749 0.413308 3.23829C0.448378 3.05631 0.504186 2.86726 0.612119 2.71348C0.721313 2.5579 0.882033 2.44186 1.04224 2.34882C1.20871 2.25214 1.41546 2.15752 1.65593 2.05982C2.13332 1.86589 2.80019 1.63761 3.6643 1.34183L4.08864 1.19657ZM6 1.60425C5.61632 1.60425 5.23884 1.7277 4.29703 2.05009L3.96288 2.16447C3.08054 2.4665 2.43706 2.68694 1.98526 2.87048C1.75975 2.9621 1.59636 3.03887 1.48167 3.10547C1.42505 3.13836 1.38603 3.16549 1.35997 3.18667C1.33788 3.20463 1.32946 3.2148 1.32825 3.21628C1.32713 3.21811 1.31988 3.23023 1.30967 3.25889C1.29801 3.29163 1.28509 3.33855 1.2725 3.40386C1.24702 3.53607 1.22772 3.71767 1.21438 3.96262C1.18766 4.45331 1.1875 5.13828 1.1875 6.07646V6.99504C1.1875 10.0138 3.44494 11.4996 4.94929 12.1567C5.16599 12.2514 5.29113 12.305 5.43043 12.3406C5.56348 12.3747 5.72583 12.3959 6 12.3959C6.27417 12.3959 6.43652 12.3747 6.56957 12.3406C6.70887 12.305 6.83401 12.2514 7.05071 12.1567C8.55506 11.4996 10.8125 10.0138 10.8125 6.99504V6.07646C10.8125 5.13828 10.8123 4.45331 10.7856 3.96262C10.7723 3.71767 10.753 3.53607 10.7275 3.40386C10.7149 3.33855 10.702 3.29163 10.6903 3.25889C10.6801 3.23021 10.6729 3.2181 10.6717 3.21628C10.6705 3.21478 10.6621 3.20462 10.64 3.18667C10.614 3.16549 10.575 3.13836 10.5183 3.10547C10.4036 3.03887 10.2402 2.9621 10.0147 2.87048C9.56294 2.68694 8.91946 2.4665 8.03712 2.16447L7.70298 2.05009C6.76116 1.7277 6.38368 1.60425 6 1.60425Z" fill="#1C274C"/>
</svg>
