<svg width="14" height="14" viewBox="0 0 14 14" fill="none" xmlns="http://www.w3.org/2000/svg">
<path fill-rule="evenodd" clip-rule="evenodd" d="M4.63465 0.729248H9.36533C10.1631 0.729236 10.8061 0.729227 11.3118 0.79722C11.8369 0.867813 12.279 1.01883 12.6301 1.36995C12.9812 1.72107 13.1323 2.16316 13.2029 2.68823C13.2708 3.19396 13.2708 3.83698 13.2708 4.63474V7.03209C13.2708 7.82985 13.2708 8.47287 13.2029 8.9786C13.1323 9.50366 12.9812 9.94576 12.6301 10.2969C12.3397 10.5873 11.9857 10.7419 11.5711 10.8263C11.1684 10.9083 10.6828 10.929 10.1078 10.9351L10.1045 10.9351L9.97356 10.9355C9.91715 11.1129 9.82535 11.2817 9.69818 11.431C9.62172 11.5207 9.57551 11.6322 9.56613 11.7498C9.51007 12.4523 8.9522 13.0102 8.24966 13.0662C8.13215 13.0756 8.0206 13.1218 7.93088 13.1983C7.39446 13.6554 6.60552 13.6554 6.06911 13.1983C5.97938 13.1218 5.86783 13.0756 5.75032 13.0662C5.04778 13.0102 4.48991 12.4523 4.43385 11.7498C4.42447 11.6322 4.37826 11.5207 4.3018 11.431C4.1748 11.2819 4.08308 11.1134 4.02665 10.9362C3.4198 10.9321 2.91182 10.9157 2.49453 10.839C2.05236 10.7578 1.67607 10.6031 1.36986 10.2969C1.01874 9.94576 0.867722 9.50367 0.797129 8.9786C0.729135 8.47287 0.729145 7.82985 0.729157 7.03209V4.63474C0.729145 3.83698 0.729135 3.19396 0.797129 2.68823C0.867722 2.16316 1.01874 1.72107 1.36986 1.36995C1.72098 1.01883 2.16307 0.867813 2.68814 0.79722C3.19387 0.729227 3.83689 0.729236 4.63465 0.729248ZM4.02752 10.0612C4.08403 9.88502 4.17545 9.71746 4.3018 9.5692C4.37826 9.47947 4.42447 9.36792 4.43385 9.25041C4.48991 8.54787 5.04778 7.99 5.75032 7.93394C5.86783 7.92456 5.97938 7.87836 6.06911 7.8019C6.60552 7.34477 7.39446 7.34477 7.93088 7.8019C8.0206 7.87836 8.13215 7.92456 8.24966 7.93394C8.9522 7.99 9.51007 8.54787 9.56613 9.25041C9.57551 9.36792 9.62172 9.47948 9.69818 9.5692C9.82436 9.71726 9.91571 9.88457 9.97223 10.0605L10.1001 10.0601C10.6748 10.054 11.0846 10.0324 11.3965 9.96893C11.6966 9.90781 11.8761 9.81346 12.0114 9.67816C12.1728 9.51671 12.2781 9.29005 12.3357 8.86201C12.3949 8.42139 12.3958 7.83741 12.3958 7.00008V4.66675C12.3958 3.82942 12.3949 3.24544 12.3357 2.80482C12.2781 2.37678 12.1728 2.15012 12.0114 1.98867C11.85 1.82723 11.6233 1.72197 11.1953 1.66442C10.7546 1.60518 10.1706 1.60425 9.33332 1.60425H4.66666C3.82933 1.60425 3.24535 1.60518 2.80473 1.66442C2.37669 1.72197 2.15002 1.82723 1.98858 1.98867C1.82713 2.15012 1.72187 2.37678 1.66433 2.80482C1.60509 3.24544 1.60416 3.82942 1.60416 4.66675V7.00008C1.60416 7.83741 1.60509 8.42139 1.66433 8.86201C1.72187 9.29005 1.82713 9.51671 1.98858 9.67816C2.13059 9.82017 2.32197 9.91769 2.65261 9.97843C2.98522 10.0395 3.42022 10.057 4.02752 10.0612ZM4.81249 3.50008C4.81249 3.25846 5.00837 3.06258 5.24999 3.06258H8.74999C8.99161 3.06258 9.18749 3.25846 9.18749 3.50008C9.18749 3.74171 8.99161 3.93758 8.74999 3.93758H5.24999C5.00837 3.93758 4.81249 3.74171 4.81249 3.50008ZM3.64582 5.54175C3.64582 5.30012 3.8417 5.10425 4.08332 5.10425H9.91666C10.1583 5.10425 10.3542 5.30012 10.3542 5.54175C10.3542 5.78337 10.1583 5.97925 9.91666 5.97925H4.08332C3.8417 5.97925 3.64582 5.78337 3.64582 5.54175ZM7.36334 8.46787C7.15396 8.28944 6.84602 8.28944 6.63664 8.46787C6.40678 8.66376 6.12098 8.78214 5.81992 8.80617C5.54571 8.82805 5.32796 9.0458 5.30608 9.32002C5.28205 9.62107 5.16367 9.90687 4.96778 10.1367C4.78935 10.3461 4.78935 10.6541 4.96778 10.8634C5.16367 11.0933 5.28205 11.3791 5.30608 11.6801C5.32796 11.9544 5.54571 12.1721 5.81992 12.194C6.12098 12.218 6.40678 12.3364 6.63664 12.5323C6.84602 12.7107 7.15396 12.7107 7.36334 12.5323C7.5932 12.3364 7.879 12.218 8.18006 12.194C8.45427 12.1721 8.67202 11.9544 8.69391 11.6801C8.71793 11.3791 8.83631 11.0933 9.0322 10.8634C9.21063 10.6541 9.21063 10.3461 9.0322 10.1367C8.83631 9.90687 8.71793 9.62107 8.69391 9.32002C8.67202 9.0458 8.45427 8.82805 8.18006 8.80617C7.879 8.78214 7.5932 8.66376 7.36334 8.46787ZM7.57648 9.59691C7.75312 9.43205 8.02996 9.44159 8.19483 9.61823C8.35969 9.79488 8.35014 10.0717 8.1735 10.2366L6.9235 11.4033C6.75541 11.5601 6.49457 11.5601 6.32648 11.4033L5.82648 10.9366C5.64984 10.7717 5.64029 10.4949 5.80515 10.3182C5.97002 10.1416 6.24686 10.132 6.4235 10.2969L6.62499 10.485L7.57648 9.59691Z" fill="#1C274D"/>
</svg>
