<svg width="13" height="13" viewBox="0 0 13 13" fill="none" xmlns="http://www.w3.org/2000/svg">
<path fill-rule="evenodd" clip-rule="evenodd" d="M5.24999 0.729248C3.7197 0.729248 2.47916 1.96979 2.47916 3.50008C2.47916 5.03037 3.7197 6.27092 5.24999 6.27092C6.78028 6.27092 8.02082 5.03037 8.02082 3.50008C8.02082 1.96979 6.78028 0.729248 5.24999 0.729248ZM3.35416 3.50008C3.35416 2.45304 4.20295 1.60425 5.24999 1.60425C6.29703 1.60425 7.14582 2.45304 7.14582 3.50008C7.14582 4.54712 6.29703 5.39592 5.24999 5.39592C4.20295 5.39592 3.35416 4.54712 3.35416 3.50008Z" fill="#1C274C"/>
<path d="M8.74999 1.31258C8.50837 1.31258 8.31249 1.50846 8.31249 1.75008C8.31249 1.99171 8.50837 2.18758 8.74999 2.18758C9.47486 2.18758 10.0625 2.77521 10.0625 3.50008C10.0625 4.22496 9.47486 4.81258 8.74999 4.81258C8.50837 4.81258 8.31249 5.00846 8.31249 5.25008C8.31249 5.49171 8.50837 5.68758 8.74999 5.68758C9.95811 5.68758 10.9375 4.7082 10.9375 3.50008C10.9375 2.29196 9.95811 1.31258 8.74999 1.31258Z" fill="#1C274C"/>
<path fill-rule="evenodd" clip-rule="evenodd" d="M2.14558 7.88698C2.96188 7.42052 4.06038 7.14592 5.24999 7.14592C6.4396 7.14592 7.53811 7.42052 8.3544 7.88698C9.15833 8.34636 9.77082 9.04766 9.77082 9.91675C9.77082 10.7858 9.15833 11.4871 8.3544 11.9465C7.53811 12.413 6.4396 12.6876 5.24999 12.6876C4.06038 12.6876 2.96188 12.413 2.14558 11.9465C1.34165 11.4871 0.729156 10.7858 0.729156 9.91675C0.729156 9.04766 1.34165 8.34636 2.14558 7.88698ZM2.5797 8.64669C1.90574 9.03181 1.60416 9.49717 1.60416 9.91675C1.60416 10.3363 1.90574 10.8017 2.5797 11.1868C3.24128 11.5649 4.18444 11.8126 5.24999 11.8126C6.31554 11.8126 7.25871 11.5649 7.92028 11.1868C8.59424 10.8017 8.89582 10.3363 8.89582 9.91675C8.89582 9.49717 8.59424 9.03181 7.92028 8.64669C7.25871 8.26865 6.31554 8.02092 5.24999 8.02092C4.18444 8.02092 3.24128 8.26865 2.5797 8.64669Z" fill="#1C274C"/>
<path d="M10.5937 7.7394C10.3577 7.68765 10.1244 7.83702 10.0726 8.07303C10.0209 8.30905 10.1703 8.54234 10.4063 8.59409C10.8685 8.69546 11.2379 8.86956 11.4817 9.06905C11.7258 9.26881 11.8125 9.46391 11.8125 9.62508C11.8125 9.77133 11.7421 9.94303 11.5482 10.1232C11.3528 10.3047 11.0527 10.4723 10.6655 10.5889C10.4342 10.6586 10.3031 10.9026 10.3727 11.134C10.4424 11.3653 10.6864 11.4964 10.9178 11.4268C11.3976 11.2823 11.8266 11.0588 12.1437 10.7643C12.4622 10.4684 12.6875 10.0793 12.6875 9.62508C12.6875 9.12064 12.4108 8.69877 12.0358 8.39187C11.6604 8.0847 11.1548 7.86245 10.5937 7.7394Z" fill="#1C274C"/>
</svg>
