<svg width="16" height="16" viewBox="0 0 16 16" fill="none" xmlns="http://www.w3.org/2000/svg">
<path fill-rule="evenodd" clip-rule="evenodd" d="M8.00004 0.833252C4.042 0.833252 0.833374 4.04188 0.833374 7.99992C0.833374 11.958 4.042 15.1666 8.00004 15.1666C11.9581 15.1666 15.1667 11.958 15.1667 7.99992C15.1667 4.04188 11.9581 0.833252 8.00004 0.833252ZM1.83337 7.99992C1.83337 4.59416 4.59428 1.83325 8.00004 1.83325C9.52304 1.83325 10.9171 2.38536 11.993 3.30036C11.9885 3.30449 11.9841 3.30871 11.9798 3.31303L3.31317 11.9795C3.30882 11.9839 3.30457 11.9883 3.30042 11.9928C2.38546 10.9169 1.83337 9.52289 1.83337 7.99992ZM4.00704 12.6994C5.08292 13.6144 6.477 14.1666 8.00004 14.1666C11.4058 14.1666 14.1667 11.4057 14.1667 7.99992C14.1667 6.47692 13.6146 5.08287 12.6996 4.007C12.6955 4.01144 12.6912 4.01582 12.6869 4.02015L4.02027 12.6867C4.01592 12.691 4.01151 12.6953 4.00704 12.6994Z" fill="#FF5050"/>
</svg>
