<svg width="16" height="16" viewBox="0 0 16 16" fill="none" xmlns="http://www.w3.org/2000/svg">
<path fill-rule="evenodd" clip-rule="evenodd" d="M3.50001 9.66662C3.50001 9.39048 3.72387 9.16662 4.00001 9.16662H9.33334C9.60949 9.16662 9.83334 9.39048 9.83334 9.66662C9.83334 9.94276 9.60949 10.1666 9.33334 10.1666H4.00001C3.72387 10.1666 3.50001 9.94276 3.50001 9.66662Z" fill="#1C274C"/>
<path fill-rule="evenodd" clip-rule="evenodd" d="M3.50001 12C3.50001 11.7238 3.72387 11.5 4.00001 11.5H7.66668C7.94282 11.5 8.16668 11.7238 8.16668 12C8.16668 12.2761 7.94282 12.5 7.66668 12.5H4.00001C3.72387 12.5 3.50001 12.2761 3.50001 12Z" fill="#1C274C"/>
<path fill-rule="evenodd" clip-rule="evenodd" d="M8.16668 1.8894C7.85974 1.83724 7.44133 1.83329 6.68654 1.83329C5.40875 1.83329 4.50051 1.83434 3.81191 1.9265C3.13732 2.01678 2.7497 2.18614 2.46795 2.46789C2.18581 2.75003 2.01669 3.13646 1.92652 3.80718C1.83441 4.49229 1.83334 5.39541 1.83334 6.66662V9.33329C1.83334 10.6045 1.83441 11.5076 1.92652 12.1927C2.01669 12.8634 2.18581 13.2499 2.46795 13.532C2.75009 13.8142 3.13652 13.9833 3.80724 14.0734C4.49235 14.1656 5.39546 14.1666 6.66668 14.1666H9.33334C10.6046 14.1666 11.5077 14.1656 12.1928 14.0734C12.8635 13.9833 13.2499 13.8142 13.5321 13.532C13.8142 13.2499 13.9833 12.8634 14.0735 12.1927C14.1656 11.5076 14.1667 10.6045 14.1667 9.33329V9.04188C14.1667 8.01788 14.1595 7.53244 14.0508 7.16662H11.9642C11.209 7.16664 10.5918 7.16665 10.1046 7.10114C9.5953 7.03267 9.15374 6.88448 8.80128 6.53202C8.44882 6.17955 8.30063 5.738 8.23216 5.2287C8.16665 4.74145 8.16666 4.1243 8.16668 3.36908V1.8894ZM9.16668 2.40625V3.33329C9.16668 4.13309 9.16774 4.68265 9.22324 5.09545C9.2768 5.49386 9.37269 5.68922 9.50839 5.82491C9.64408 5.9606 9.83944 6.05649 10.2378 6.11006C10.6506 6.16556 11.2002 6.16662 12 6.16662H13.3463C13.1487 5.97492 12.8955 5.74523 12.5667 5.4493L9.92749 3.07403C9.6039 2.7828 9.36307 2.56783 9.16668 2.40625ZM6.78365 0.833269C7.70671 0.833022 8.30308 0.832862 8.85196 1.04349C9.40083 1.25411 9.84212 1.65148 10.5249 2.26629C10.5484 2.28751 10.5723 2.30899 10.5965 2.33074L13.2356 4.706C13.2637 4.73129 13.2915 4.75625 13.3189 4.78091C14.108 5.49068 14.6183 5.94964 14.8928 6.56593C15.1672 7.18222 15.167 7.86853 15.1667 8.92987C15.1667 8.96675 15.1667 9.00408 15.1667 9.04188V9.37089C15.1667 10.5961 15.1667 11.5665 15.0646 12.326C14.9595 13.1076 14.7381 13.7402 14.2392 14.2391C13.7403 14.738 13.1076 14.9594 12.326 15.0645C11.5665 15.1666 10.5961 15.1666 9.37095 15.1666H6.62907C5.4039 15.1666 4.43347 15.1666 3.674 15.0645C2.89238 14.9594 2.25975 14.738 1.76084 14.2391C1.26193 13.7402 1.04052 13.1076 0.935434 12.326C0.833325 11.5665 0.833333 10.5961 0.833344 9.3709V6.62901C0.833333 5.40383 0.833325 4.43341 0.935434 3.67394C1.04052 2.89232 1.26193 2.25969 1.76084 1.76078C2.26014 1.26148 2.89489 1.04031 3.67926 0.935336C4.4419 0.833267 5.41715 0.833275 6.64902 0.833286L6.68654 0.833286C6.71931 0.833286 6.75167 0.833277 6.78365 0.833269Z" fill="#1C274C"/>
</svg>
