<svg width="16" height="16" viewBox="0 0 16 16" fill="none" xmlns="http://www.w3.org/2000/svg">
<path d="M6.68703 5.97969C6.49177 5.78443 6.17518 5.78443 5.97992 5.97969C5.78466 6.17495 5.78466 6.49153 5.97992 6.68679L7.29304 7.99992L5.97994 9.31302C5.78467 9.50828 5.78467 9.82487 5.97994 10.0201C6.1752 10.2154 6.49178 10.2154 6.68704 10.0201L8.00015 8.70702L9.31324 10.0201C9.5085 10.2154 9.82509 10.2154 10.0203 10.0201C10.2156 9.82485 10.2156 9.50827 10.0203 9.31301L8.70726 7.99992L10.0204 6.68681C10.2156 6.49155 10.2156 6.17496 10.0204 5.9797C9.8251 5.78444 9.50852 5.78444 9.31325 5.9797L8.00015 7.29281L6.68703 5.97969Z" fill="#FC2E3D" fill-opacity="0.7"/>
<path fill-rule="evenodd" clip-rule="evenodd" d="M8.00016 0.833252C4.04212 0.833252 0.833496 4.04188 0.833496 7.99992C0.833496 11.958 4.04212 15.1666 8.00016 15.1666C11.9582 15.1666 15.1668 11.958 15.1668 7.99992C15.1668 4.04188 11.9582 0.833252 8.00016 0.833252ZM1.8335 7.99992C1.8335 4.59416 4.59441 1.83325 8.00016 1.83325C11.4059 1.83325 14.1668 4.59416 14.1668 7.99992C14.1668 11.4057 11.4059 14.1666 8.00016 14.1666C4.59441 14.1666 1.8335 11.4057 1.8335 7.99992Z" fill="#FC2E3D" fill-opacity="0.7"/>
</svg>
